SplineFontDB: 3.2
FontName: MVECReverse-Regular
FullName: MVEC Reverse Regular
FamilyName: MVEC Reverse
Weight: Book
Version: 1.31
ItalicAngle: 0
UnderlinePosition: 0
UnderlineWidth: 0
Ascent: 800
Descent: 200
InvalidEm: 0
sfntRevision: 0x00010000
LayerCount: 2
Layer: 0 1 "Back" 1
Layer: 1 1 "Fore" 0
XUID: [1021 390 -1381075780 17563]
StyleMap: 0x0000
FSType: 0
OS2Version: 3
OS2_WeightWidthSlopeOnly: 0
OS2_UseTypoMetrics: 0
CreationTime: 1755658865
ModificationTime: 1765935142
PfmFamily: 17
TTFWeight: 400
TTFWidth: 5
LineGap: 0
VLineGap: 0
Panose: 2 11 5 3 5 4 5 2 3 4
OS2TypoAscent: 950
OS2TypoAOffset: 0
OS2TypoDescent: -250
OS2TypoDOffset: 0
OS2TypoLinegap: 0
OS2WinAscent: 950
OS2WinAOffset: 0
OS2WinDescent: 250
OS2WinDOffset: 0
HheadAscent: 950
HheadAOffset: 0
HheadDescent: -250
HheadDOffset: 0
OS2SubXSize: 0
OS2SubYSize: 0
OS2SubXOff: 0
OS2SubYOff: 0
OS2SupXSize: 0
OS2SupYSize: 0
OS2SupXOff: 0
OS2SupYOff: 0
OS2StrikeYSize: 0
OS2StrikeYPos: 0
OS2CapHeight: 700
OS2XHeight: 510
OS2Vendor: '????'
OS2CodePages: 00000000.00000000
OS2UnicodeRanges: 80000003.0000000a.00000000.00000000
DEI: 91125
TtTable: prep
PUSHW_1
 511
SCANCTRL
PUSHB_1
 1
SCANTYPE
SVTCA[y-axis]
MPPEM
PUSHB_1
 8
LT
IF
PUSHB_2
 1
 1
INSTCTRL
EIF
PUSHB_2
 70
 6
CALL
IF
POP
PUSHB_1
 16
EIF
MPPEM
PUSHB_1
 20
GT
IF
POP
PUSHB_1
 128
EIF
SCVTCI
PUSHB_1
 6
CALL
NOT
IF
EIF
PUSHB_1
 20
CALL
EndTTInstrs
TtTable: fpgm
PUSHB_1
 0
FDEF
PUSHB_1
 0
SZP0
MPPEM
PUSHB_1
 42
LT
IF
PUSHB_1
 74
SROUND
EIF
PUSHB_1
 0
SWAP
MIAP[rnd]
RTG
PUSHB_1
 6
CALL
IF
RTDG
EIF
MPPEM
PUSHB_1
 42
LT
IF
RDTG
EIF
DUP
MDRP[rp0,rnd,grey]
PUSHB_1
 1
SZP0
MDAP[no-rnd]
RTG
ENDF
PUSHB_1
 1
FDEF
DUP
MDRP[rp0,min,white]
PUSHB_1
 12
CALL
ENDF
PUSHB_1
 2
FDEF
MPPEM
GT
IF
RCVT
SWAP
EIF
POP
ENDF
PUSHB_1
 3
FDEF
ROUND[Black]
RTG
DUP
PUSHB_1
 64
LT
IF
POP
PUSHB_1
 64
EIF
ENDF
PUSHB_1
 4
FDEF
PUSHB_1
 6
CALL
IF
POP
SWAP
POP
ROFF
IF
MDRP[rp0,min,rnd,black]
ELSE
MDRP[min,rnd,black]
EIF
ELSE
MPPEM
GT
IF
IF
MIRP[rp0,min,rnd,black]
ELSE
MIRP[min,rnd,black]
EIF

StartChar: uni0021
Encoding: 33 33 4
Width: 279
GlyphClass: 1
Flags: W
LayerCount: 2
Fore
SplineSet
75 51 m 0,0,1
 75 76 75 76 94 95 c 0,2,3
 111 112 111 112 137 112 c 0,4,5
 162 112 162 112 181 95 c 0,6,7
 198 76 198 76 198 51 c 0,8,9
 198 25 198 25 181 8 c 0,10,11
 162 -11 162 -11 137 -11 c 0,12,13
 111 -11 111 -11 94 8 c 0,14,15
 75 25 75 25 75 51 c 0,0,1
48 743 m 1,16,-1
 78 748 l 1,17,-1
 107 751 l 1,18,-1
 142 747 l 1,19,-1
 174 735 l 1,20,-1
 197 715 l 1,21,-1
 206 689 l 1,22,-1
 199 583 l 1,23,-1
 183 474 l 1,24,-1
 165 361 l 2,25,26
 156 306 156 306 154 251 c 1,27,-1
 159 214 l 2,28,29
 164 191 164 191 172 181 c 1,30,-1
 154 178 l 1,31,-1
 141 177 l 2,32,33
 115 177 115 177 104 193 c 0,34,35
 95 210 95 210 95 244 c 2,36,-1
 95 338 l 1,37,-1
 96 445 l 1,38,-1
 93 548 l 1,39,-1
 83 641 l 1,40,-1
 68 709 l 2,41,42
 59 737 59 737 48 743 c 1,16,-1
EndSplineSet
EndChar

StartChar: uni0022
Encoding: 34 34 5
Width: 338
GlyphClass: 1
Flags: W
LayerCount: 2
Fore
SplineSet
291 751 m 1,0,-1
 287 687 l 1,1,-1
 287 634 l 1,2,-1
 287 586 l 1,3,-1
 291 530 l 1,4,-1
 274 527 l 1,5,-1
 252 526 l 1,6,-1
 221 530 l 1,7,8
 206 536 206 536 204 550 c 2,9,-1
 208 615 l 1,10,-1
 209 671 l 1,11,-1
 209 714 l 1,12,-1
 204 761 l 1,13,-1
 221 764 l 1,14,-1
 247 765 l 1,15,-1
 275 762 l 1,16,-1
 291 751 l 1,0,-1
132 751 m 1,17,-1
 128 687 l 1,18,-1
 128 634 l 1,19,-1
 128 586 l 1,20,-1
 132 530 l 1,21,-1
 115 527 l 1,22,-1
 93 526 l 1,23,-1
 61 530 l 1,24,25
 47 536 47 536 45 550 c 2,26,-1
 49 615 l 1,27,-1
 50 671 l 1,28,-1
 50 714 l 1,29,-1
 45 761 l 1,30,-1
 61 764 l 1,31,-1
 88 765 l 1,32,-1
 116 762 l 1,33,-1
 132 751 l 1,17,-1
EndSplineSet
EndChar

StartChar: uni0023
Encoding: 35 35 6
Width: 720
GlyphClass: 1
Flags: W
LayerCount: 2
Fore
SplineSet
443 434 m 1,0,-1
 297 434 l 1,1,-1
 277 248 l 1,2,-1
 423 248 l 1,3,-1
 443 434 l 1,0,-1
494 184 m 1,4,-1
 474 0 l 1,5,-1
 397 0 l 1,6,-1
 417 184 l 1,7,-1
 270 184 l 1,8,-1
 252 0 l 1,9,-1
 174 0 l 1,10,-1
 193 184 l 1,11,-1
 48 184 l 1,12,-1
 48 248 l 1,13,-1
 201 248 l 1,14,-1
 220 434 l 1,15,-1
 77 434 l 1,16,-1
 77 498 l 1,17,-1
 227 498 l 1,18,-1
 245 658 l 1,19,-1
 320 658 l 1,20,-1
 303 498 l 1,21,-1
 450 498 l 1,22,-1
 466 658 l 1,23,-1
 544 658 l 1,24,-1
 526 498 l 1,25,-1
 677 498 l 1,26,-1
 669 434 l 1,27,-1
 520 434 l 1,28,-1
 501 248 l 1,29,-1
 649 248 l 1,30,-1
 641 184 l 1,31,-1
 494 184 l 1,4,-1
EndSplineSet
EndChar

StartChar: uni0024
Encoding: 36 36 7
Width: 520
GlyphClass: 1
Flags: W
LayerCount: 2
Fore
SplineSet
158 545 m 0,0,1
 158 518 158 518 182 490 c 0,2,3
 204 463 204 463 247 441 c 1,4,-1
 248 563 l 1,5,-1
 248 641 l 1,6,7
 207 630 207 630 183 602 c 0,8,9
 158 574 158 574 158 545 c 0,0,1
317 266 m 1,10,-1
 316 153 l 1,11,-1
 316 65 l 1,12,13
 360 76 360 76 386 102 c 0,14,15
 410 128 410 128 410 156 c 0,16,17
 410 191 410 191 387 217 c 0,18,19
 363 243 363 243 325 262 c 2,20,-1
 317 266 l 1,10,-1
320 748 m 1,21,-1
 319 737 l 1,22,-1
 319 709 l 1,23,-1
 389 700 l 2,24,25
 423 692 423 692 448 678 c 2,26,-1
 489 650 l 1,27,28
 505 633 505 633 505 615 c 0,29,30
 505 595 505 595 491 577 c 2,31,-1
 447 533 l 1,32,-1
 431 577 l 1,33,-1
 399 611 l 1,34,35
 381 624 381 624 359 632 c 2,36,-1
 319 644 l 1,37,-1
 318 535 l 1,38,-1
 318 406 l 1,39,-1
 391 371 l 1,40,-1
 447 339 l 1,41,-1
 491 301 l 2,42,43
 510 280 510 280 521 253 c 0,44,45
 530 226 530 226 530 190 c 0,46,47
 530 148 530 148 514 113 c 0,48,49
 497 79 497 79 469 54 c 0,50,51
 440 28 440 28 400 12 c 0,52,53
 361 -4 361 -4 316 -8 c 1,54,-1
 317 -68 l 1,55,-1
 320 -109 l 1,56,-1
 311 -111 l 1,57,-1
 300 -112 l 1,58,-1
 286 -112 l 1,59,-1
 258 -107 l 2,60,61
 243 -104 243 -104 243 -89 c 2,62,-1
 243 -67 l 1,63,-1
 243 -41 l 1,64,-1
 244 -8 l 1,65,-1
 177 4 l 2,66,67
 142 13 142 13 111 30 c 0,68,69
 82 47 82 47 61 73 c 0,70,71
 42 100 42 100 42 139 c 1,72,-1
 46 171 l 1,73,-1
 70 142 l 1,74,-1
 111 107 l 2,75,76
 136 90 136 90 169 77 c 0,77,78
 201 63 201 63 244 61 c 1,79,-1
 246 301 l 1,80,-1
 163 342 l 2,81,82
 109 369 109 369 77 405 c 128,-1,83
 45 441 45 441 45 497 c 0,84,85
 45 542 45 542 60 578 c 0,86,87
 76 614 76 614 104 641 c 0,88,89
 133 667 133 667 169 684 c 1,90,-1
 247 706 l 1,91,-1
 245 737 l 1,92,-1
 243 758 l 1,93,-1
 257 760 l 1,94,-1
 270 762 l 1,95,-1
 288 762 l 1,96,-1
 312 759 l 1,97,-1
 320 748 l 1,21,-1
EndSplineSet
EndChar

StartChar: uni0025
Encoding: 37 37 8
Width: 749
GlyphClass: 1
Flags: W
LayerCount: 2
Fore
SplineSet
651 139 m 2,0,1
 651 157 651 157 643 173 c 2,2,-1
 622 202 l 2,3,4
 609 215 609 215 592 222 c 2,5,-1
 557 229 l 1,6,-1
 522 222 l 2,7,8
 505 215 505 215 493 202 c 2,9,-1
 473 173 l 2,10,11
 465 157 465 157 465 139 c 0,12,13
 465 122 465 122 472 105 c 2,14,-1
 492 72 l 1,15,-1
 521 50 l 1,16,-1
 557 42 l 1,17,18
 580 42 580 42 597 50 c 0,19,20
 615 59 615 59 626 72 c 2,21,-1
 645 105 l 1,22,-1
 651 139 l 2,0,1
709 137 m 128,-1,24
 709 106 709 106 697 79 c 128,-1,25
 685 52 685 52 664 31 c 0,26,27
 643 11 643 11 615 -1 c 1,28,-1
 556 -14 l 1,29,30
 527 -14 527 -14 499 -1 c 0,31,32
 472 11 472 11 452 31 c 0,33,34
 431 52 431 52 419 79 c 128,-1,35
 407 106 407 106 407 137 c 128,-1,36
 407 168 407 168 419 194 c 0,37,38
 431 222 431 222 452 242 c 0,39,40
 472 263 472 263 499 275 c 0,41,42
 527 287 527 287 556 287 c 1,43,-1
 615 275 l 1,44,-1
 664 242 l 1,45,46
 685 222 685 222 697 194 c 0,47,23
 709 168 709 168 709 137 c 128,-1,24
276 553 m 2,48,49
 276 572 276 572 268 587 c 2,50,-1
 246 616 l 2,51,52
 234 629 234 629 217 636 c 2,53,-1
 182 643 l 1,54,-1
 147 636 l 2,55,56
 130 629 130 629 117 616 c 2,57,-1
 98 587 l 2,58,59
 90 572 90 572 90 553 c 0,60,61
 90 536 90 536 97 519 c 2,62,-1
 116 487 l 1,63,-1
 146 464 l 1,64,-1
 182 456 l 1,65,66
 204 456 204 456 222 464 c 1,67,-1
 251 487 l 1,68,-1
 270 519 l 1,69,-1
 276 553 l 2,48,49
334 551 m 128,-1,71
 334 520 334 520 322 493 c 128,-1,72
 310 466 310 466 288 445 c 0,73,74
 268 425 268 425 240 413 c 0,75,76
 211 401 211 401 181 401 c 0,77,78
 152 401 152 401 124 413 c 0,79,80
 97 425 97 425 76 445 c 0,81,82
 56 466 56 466 44 493 c 0,83,84
 31 520 31 520 31 551 c 128,-1,85
 31 582 31 582 44 609 c 0,86,87
 56 636 56 636 76 657 c 0,88,89
 97 677 97 677 124 689 c 0,90,91
 152 701 152 701 181 701 c 0,92,93
 211 701 211 701 240 689 c 0,94,95
 268 677 268 677 288 657 c 0,96,97
 310 636 310 636 322 609 c 128,-1,70
 334 582 334 582 334 551 c 128,-1,71
582 603 m 2,98,-1
 452 405 l 1,99,-1
 399 327 l 1,100,-1
 349 253 l 1,101,-1
 307 190 l 1,102,-1
 279 146 l 1,103,-1
 240 87 l 1,104,-1
 217 47 l 1,105,-1
 208 51 l 1,106,-1
 198 56 l 1,107,-1
 188 63 l 1,108,-1
 166 82 l 2,109,110
 156 94 156 94 164 106 c 2,111,-1
 296 302 l 1,112,-1
 349 380 l 1,113,-1
 399 453 l 1,114,-1
 440 516 l 1,115,-1
 469 559 l 1,116,-1
 504 616 l 1,117,-1
 525 653 l 1,118,-1
 537 648 l 1,119,-1
 548 641 l 2,120,121
 555 637 555 637 564 632 c 2,122,-1
 581 617 l 2,123,124
 587 610 587 610 582 603 c 2,98,-1
EndSplineSet
EndChar

StartChar: uni0026
Encoding: 38 38 9
Width: 772
GlyphClass: 1
Flags: W
LayerCount: 2
Fore
SplineSet
191 331 m 1,0,-1
 169 281 l 2,1,2
 158 250 158 250 158 209 c 0,3,4
 158 177 158 177 167 146 c 0,5,6
 176 114 176 114 194 90 c 128,-1,7
 212 66 212 66 239 53 c 0,8,9
 266 38 266 38 301 38 c 0,10,11
 340 38 340 38 373 55 c 0,12,13
 405 70 405 70 430 100 c 1,14,15
 365 148 365 148 302 208 c 0,16,17
 239 269 239 269 191 331 c 1,0,-1
723 363 m 1,18,-1
 713 364 l 1,19,-1
 703 364 l 2,20,21
 671 364 671 364 646 347 c 0,22,23
 620 329 620 329 599 301 c 0,24,25
 577 273 577 273 558 236 c 2,26,-1
 518 163 l 1,27,28
 550 139 550 139 581 118 c 2,29,-1
 640 80 l 2,30,31
 668 63 668 63 692 52 c 0,32,33
 715 40 715 40 733 34 c 1,34,35
 727 8 727 8 709 -1 c 1,36,-1
 667 -10 l 1,37,-1
 609 -1 l 1,38,39
 580 8 580 8 564 16 c 0,40,41
 540 27 540 27 517 41 c 2,42,-1
 468 74 l 1,43,44
 430 32 430 32 382 11 c 0,45,46
 333 -12 333 -12 277 -12 c 1,47,-1
 192 1 l 1,48,49
 150 14 150 14 117 39 c 128,-1,50
 84 64 84 64 63 102 c 0,51,52
 43 139 43 139 43 189 c 0,53,54
 43 222 43 222 54 250 c 0,55,56
 63 277 63 277 80 301 c 1,57,-1
 119 341 l 1,58,-1
 164 368 l 1,59,60
 136 410 136 410 119 449 c 0,61,62
 103 488 103 488 103 522 c 0,63,64
 103 561 103 561 121 595 c 0,65,66
 140 629 140 629 170 655 c 0,67,68
 201 680 201 680 243 695 c 0,69,70
 284 710 284 710 331 710 c 0,71,72
 384 710 384 710 422 697 c 0,73,74
 459 683 459 683 484 660 c 0,75,76
 510 637 510 637 522 605 c 0,77,78
 533 572 533 572 533 534 c 0,79,80
 533 499 533 499 521 468 c 128,-1,81
 509 437 509 437 489 413 c 0,82,83
 471 391 471 391 447 377 c 0,84,85
 425 363 425 363 404 363 c 0,86,87
 399 363 399 363 395 366 c 1,88,89
 412 395 412 395 424 438 c 0,90,91
 437 481 437 481 437 528 c 0,92,93
 437 563 437 563 425 589 c 0,94,95
 414 615 414 615 396 632 c 0,96,97
 379 649 379 649 358 658 c 1,98,-1
 317 666 l 1,99,100
 276 666 276 666 246 633 c 0,101,102
 217 600 217 600 217 535 c 0,103,104
 217 498 217 498 239 453 c 0,105,106
 262 409 262 409 300 364 c 0,107,108
 337 319 337 319 385 275 c 0,109,110
 432 231 432 231 482 191 c 1,111,-1
 522 267 l 2,112,113
 541 306 541 306 564 337 c 0,114,115
 585 367 585 367 610 387 c 0,116,117
 636 406 636 406 668 406 c 1,118,-1
 702 398 l 1,119,120
 718 389 718 389 723 363 c 1,18,-1
EndSplineSet
EndChar

StartChar: uni0027
Encoding: 39 39 10
Width: 179
GlyphClass: 1
Flags: W
LayerCount: 2
Fore
SplineSet
132 751 m 1,0,-1
 128 687 l 1,1,-1
 128 634 l 1,2,-1
 128 586 l 1,3,-1
 132 530 l 1,4,-1
 115 527 l 1,5,-1
 93 526 l 1,6,-1
 61 530 l 1,7,8
 47 536 47 536 45 550 c 2,9,-1
 49 615 l 1,10,-1
 50 671 l 1,11,-1
 50 714 l 1,12,-1
 45 761 l 1,13,-1
 61 764 l 1,14,-1
 88 765 l 1,15,-1
 116 762 l 1,16,-1
 132 751 l 1,0,-1
EndSplineSet
EndChar

StartChar: uni0028
Encoding: 40 40 11
Width: 324
GlyphClass: 1
Flags: W
LayerCount: 2
Fore
SplineSet
56 274 m 0,0,1
 56 358 56 358 74 437 c 0,2,3
 93 515 93 515 124 576 c 0,4,5
 156 637 156 637 200 674 c 0,6,7
 243 711 243 711 295 711 c 1,8,9
 287 711 287 711 263 681 c 0,10,11
 238 650 238 650 212 593 c 128,-1,12
 186 536 186 536 166 455 c 0,13,14
 145 374 145 374 145 274 c 0,15,16
 145 168 145 168 167 79 c 0,17,18
 188 -10 188 -10 215 -73 c 0,19,20
 242 -137 242 -137 267 -172 c 0,21,22
 290 -207 290 -207 295 -207 c 1,23,24
 248 -207 248 -207 205 -166 c 0,25,26
 161 -124 161 -124 128 -57 c 0,27,28
 96 11 96 11 76 98 c 0,29,30
 56 184 56 184 56 274 c 0,0,1
EndSplineSet
EndChar

StartChar: uni0029
Encoding: 41 41 12
Width: 324
GlyphClass: 1
Flags: W
LayerCount: 2
Fore
SplineSet
268 274 m 0,0,1
 268 184 268 184 248 98 c 0,2,3
 228 11 228 11 195 -57 c 0,4,5
 162 -124 162 -124 119 -166 c 0,6,7
 75 -207 75 -207 28 -207 c 1,8,9
 33 -207 33 -207 57 -172 c 128,-1,10
 81 -137 81 -137 108 -73 c 0,11,12
 136 -10 136 -10 157 79 c 0,13,14
 179 168 179 168 179 274 c 0,15,16
 179 374 179 374 158 455 c 0,17,18
 138 536 138 536 111 593 c 0,19,20
 86 650 86 650 60 681 c 0,21,22
 36 711 36 711 28 711 c 1,23,24
 80 711 80 711 124 674 c 0,25,26
 167 637 167 637 199 576 c 128,-1,27
 231 515 231 515 249 437 c 0,28,29
 268 358 268 358 268 274 c 0,0,1
EndSplineSet
EndChar

StartChar: uni002A
Encoding: 42 42 13
Width: 533
GlyphClass: 1
Flags: W
LayerCount: 2
Fore
SplineSet
225 365 m 0,0,1
 225 432 225 432 262 473 c 1,2,-1
 267 471 l 1,3,4
 275 417 275 417 296 370.5 c 128,-1,5
 317 324 317 324 340 298 c 1,6,7
 328 279 328 279 307 268.5 c 128,-1,8
 286 258 286 258 261 258 c 1,9,10
 225 300 225 300 225 365 c 0,0,1
301 490 m 1,11,12
 368 463 368 463 442 463 c 0,13,14
 471 463 471 463 487 467 c 1,15,16
 497 447 497 447 497 429 c 0,17,18
 497 406 497 406 482 379 c 1,19,-1
 458 377 l 1,20,21
 407 377 407 377 359.5 408.5 c 128,-1,22
 312 440 312 440 297 487 c 1,23,-1
 301 490 l 1,11,12
77.5 354 m 128,-1,25
 58 367 58 367 46 389 c 1,26,27
 62 434 62 434 109 466 c 128,-1,28
 156 498 156 498 206 498 c 0,29,30
 223 498 223 498 232 496 c 1,31,-1
 234 490 l 1,32,33
 191 457 191 457 161 415.5 c 128,-1,34
 131 374 131 374 120 341 c 1,35,24
 97 341 97 341 77.5 354 c 128,-1,25
37 591 m 0,36,37
 37 617 37 617 52 641 c 1,38,-1
 76 643 l 1,39,40
 126 643 126 643 173.5 611.5 c 128,-1,41
 221 580 221 580 237 533 c 1,42,-1
 233 529 l 1,43,44
 163 557 163 557 91 557 c 0,45,46
 71 557 71 557 47 553 c 1,47,48
 37 570 37 570 37 591 c 0,36,37
301 529 m 1,49,50
 344 563 344 563 373.5 604.5 c 128,-1,51
 403 646 403 646 414 679 c 1,52,53
 437 679 437 679 456.5 666 c 128,-1,54
 476 653 476 653 488 631 c 1,55,56
 472 586 472 586 425 553.5 c 128,-1,57
 378 521 378 521 328 521 c 0,58,59
 314 521 314 521 302 524 c 1,60,-1
 301 529 l 1,49,50
238 649.5 m 128,-1,62
 217 696 217 696 194 722 c 1,63,64
 206 741 206 741 227 751.5 c 128,-1,65
 248 762 248 762 273 762 c 1,66,67
 309 718 309 718 309 655 c 0,68,69
 309 588 309 588 272 547 c 1,70,-1
 267 549 l 1,71,61
 259 603 259 603 238 649.5 c 128,-1,62
EndSplineSet
EndChar

StartChar: uni002B
Encoding: 43 43 14
Width: 444
GlyphClass: 1
Flags: W
LayerCount: 2
Fore
SplineSet
260 445 m 1,0,-1
 258 404 l 1,1,-1
 257 363 l 1,2,-1
 256 314 l 1,3,-1
 288 314 l 1,4,-1
 354 316 l 1,5,-1
 397 318 l 1,6,-1
 399 306 l 1,7,-1
 400 291 l 1,8,-1
 401 274 l 1,9,-1
 398 251 l 2,10,11
 396 242 396 242 387 242 c 2,12,-1
 347 243 l 1,13,-1
 306 244 l 1,14,-1
 256 245 l 1,15,-1
 256 220 l 1,16,-1
 257 150 l 1,17,-1
 260 104 l 1,18,-1
 250 102 l 1,19,-1
 239 101 l 1,20,-1
 226 101 l 1,21,-1
 197 106 l 2,22,23
 184 109 184 109 184 124 c 2,24,-1
 184 161 l 1,25,-1
 185 199 l 1,26,-1
 187 246 l 1,27,-1
 162 246 l 1,28,-1
 93 245 l 1,29,-1
 46 242 l 1,30,-1
 44 252 l 1,31,-1
 43 263 l 1,32,-1
 43 275 l 2,33,34
 43 291 43 291 48 305 c 0,35,36
 53 318 53 318 66 318 c 2,37,-1
 103 317 l 1,38,-1
 141 316 l 1,39,-1
 188 315 l 1,40,-1
 188 346 l 1,41,-1
 186 412 l 1,42,-1
 184 455 l 1,43,-1
 196 457 l 1,44,-1
 210 458 l 1,45,-1
 228 459 l 1,46,-1
 251 456 l 1,47,-1
 260 445 l 1,0,-1
EndSplineSet
EndChar

StartChar: uni002C
Encoding: 44 44 15
Width: 236
GlyphClass: 1
Flags: W
LayerCount: 2
Fore
SplineSet
46 57 m 0,0,1
 46 85 46 85 65 105 c 128,-1,2
 84 125 84 125 110 125 c 1,3,-1
 145 116 l 1,4,-1
 169 93 l 1,5,-1
 183 61 l 1,6,-1
 187 21 l 1,7,-1
 180 -28 l 2,8,9
 174 -54 174 -54 159 -74 c 0,10,11
 143 -95 143 -95 121 -106 c 0,12,13
 97 -119 97 -119 66 -119 c 0,14,15
 40 -119 40 -119 19 -109 c 0,16,17
 0 -100 0 -100 -6 -82 c 1,18,-1
 32 -91 l 1,19,20
 60 -91 60 -91 80 -71 c 0,21,22
 99 -53 99 -53 99 -23 c 0,23,24
 99 -8 99 -8 91 -1 c 2,25,-1
 73 12 l 1,26,-1
 54 26 l 2,27,28
 46 35 46 35 46 57 c 0,0,1
EndSplineSet
EndChar

StartChar: uni002D
Encoding: 45 45 16
Width: 504
GlyphClass: 1
Flags: W
LayerCount: 2
Fore
SplineSet
418 242 m 1,0,-1
 342 244 l 1,1,-1
 270 245 l 1,2,-1
 192 246 l 1,3,-1
 124 245 l 1,4,-1
 77 242 l 1,5,-1
 74 252 l 1,6,-1
 73 263 l 1,7,-1
 73 275 l 2,8,9
 73 291 73 291 78 305 c 0,10,11
 83 318 83 318 96 318 c 2,12,-1
 171 316 l 1,13,-1
 242 315 l 1,14,-1
 318 314 l 1,15,-1
 384 316 l 1,16,-1
 427 318 l 1,17,-1
 429 306 l 1,18,-1
 431 291 l 1,19,-1
 431 274 l 1,20,-1
 428 251 l 1,21,-1
 418 242 l 1,0,-1
EndSplineSet
EndChar

StartChar: uni002E
Encoding: 46 46 17
Width: 229
GlyphClass: 1
Flags: W
LayerCount: 2
Fore
SplineSet
47 57 m 0,0,1
 47 85 47 85 66 105 c 0,2,3
 87 125 87 125 113 125 c 0,4,5
 141 125 141 125 161 105 c 128,-1,6
 181 85 181 85 181 57 c 0,7,8
 181 30 181 30 161 10 c 128,-1,9
 141 -10 141 -10 113 -10 c 0,10,11
 87 -10 87 -10 66 10 c 0,12,13
 47 30 47 30 47 57 c 0,0,1
EndSplineSet
EndChar

StartChar: uni002F
Encoding: 47 47 18
Width: 275
GlyphClass: 1
Flags: W
LayerCount: 2
Fore
SplineSet
243 677 m 1,0,-1
 186 349 l 1,1,-1
 164 221 l 1,2,-1
 143 103 l 1,3,-1
 127 7 l 1,4,-1
 116 -54 l 1,5,-1
 106 -122 l 1,6,-1
 101 -168 l 1,7,-1
 91 -168 l 1,8,-1
 65 -165 l 1,9,-1
 40 -157 l 2,10,11
 28 -151 28 -151 28 -140 c 2,12,-1
 28 -137 l 1,13,-1
 87 191 l 1,14,-1
 108 318 l 1,15,-1
 129 437 l 1,16,-1
 146 531 l 1,17,-1
 156 591 l 1,18,-1
 166 658 l 1,19,-1
 170 700 l 1,20,-1
 182 700 l 1,21,-1
 196 699 l 1,22,-1
 215 696 l 1,23,-1
 234 690 l 1,24,-1
 243 679 l 1,25,-1
 243 677 l 1,0,-1
EndSplineSet
EndChar

StartChar: uni0030
Encoding: 48 48 19
Width: 602
GlyphClass: 1
Flags: W
LayerCount: 2
Fore
SplineSet
296 74 m 0,0,1
 325 74 325 74 348 89 c 0,2,3
 373 104 373 104 390 132 c 0,4,5
 409 160 409 160 420 198 c 0,6,7
 429 235 429 235 429 283 c 0,8,9
 429 333 429 333 422 377 c 0,10,11
 413 422 413 422 395 455 c 0,12,13
 378 488 378 488 351 508 c 0,14,15
 325 528 325 528 289 528 c 0,16,17
 260 528 260 528 237 512 c 0,18,19
 212 496 212 496 195 467 c 0,20,21
 177 438 177 438 167 398 c 0,22,23
 158 358 158 358 158 310 c 0,24,25
 158 261 158 261 167 218 c 0,26,27
 175 175 175 175 193 143 c 0,28,29
 210 111 210 111 236 93 c 0,30,31
 261 74 261 74 296 74 c 0,0,1
294 610 m 0,32,33
 349 610 349 610 392 588 c 0,34,35
 436 566 436 566 465 526 c 0,36,37
 495 486 495 486 509 431 c 0,38,39
 525 375 525 375 525 308 c 0,40,41
 525 238 525 238 509 180 c 0,42,43
 494 121 494 121 464 79 c 0,44,45
 436 37 436 37 392 14 c 0,46,47
 348 -10 348 -10 294 -10 c 0,48,49
 183 -10 183 -10 124 69 c 0,50,51
 63 148 63 148 63 302 c 0,52,53
 63 366 63 366 80 422 c 0,54,55
 95 478 95 478 125 520 c 128,-1,56
 155 562 155 562 197 586 c 0,57,58
 240 610 240 610 294 610 c 0,32,33
EndSplineSet
EndChar

StartChar: uni0031
Encoding: 49 49 20
Width: 452
GlyphClass: 1
Flags: W
LayerCount: 2
Fore
SplineSet
166 0 m 1,0,-1
 96 -2 l 1,1,-1
 48 -5 l 1,2,-1
 46 15 l 2,3,4
 46 23 46 23 49 32 c 0,5,6
 53 40 53 40 61 41 c 2,7,-1
 82 42 l 1,8,-1
 118 47 l 1,9,-1
 152 59 l 2,10,11
 168 66 168 66 168 81 c 2,12,-1
 170 160 l 1,13,-1
 172 233 l 1,14,-1
 173 303 l 1,15,-1
 174 367 l 1,16,-1
 175 418 l 1,17,-1
 175 433 l 1,18,-1
 174 447 l 1,19,-1
 168 455 l 1,20,-1
 155 453 l 1,21,-1
 122 440 l 1,22,-1
 82 421 l 1,23,-1
 71 415 l 1,24,-1
 67 420 l 1,25,-1
 51 460 l 2,26,27
 46 476 46 476 52 481 c 2,28,-1
 61 487 l 1,29,-1
 79 494 l 1,30,-1
 98 502 l 1,31,-1
 113 508 l 2,32,33
 131 514 131 514 143 526 c 2,34,-1
 163 549 l 1,35,-1
 178 572 l 1,36,-1
 186 592 l 1,37,-1
 189 609 l 1,38,-1
 195 621 l 2,39,40
 198 625 198 625 208 627 c 2,41,-1
 230 632 l 1,42,-1
 255 633 l 1,43,-1
 277 631 l 1,44,-1
 282 621 l 1,45,-1
 283 599 l 1,46,-1
 282 570 l 1,47,-1
 282 540 l 1,48,-1
 281 542 l 1,49,-1
 281 538 l 1,50,-1
 282 518 l 1,51,-1
 282 515 l 1,52,-1
 281 430 l 1,53,-1
 279 331 l 1,54,-1
 278 236 l 1,55,-1
 277 163 l 1,56,-1
 277 124 l 1,57,-1
 280 82 l 2,58,59
 280 67 280 67 299 60 c 0,60,61
 318 51 318 51 341 47 c 2,62,-1
 402 41 l 1,63,-1
 413 33 l 1,64,-1
 417 19 l 1,65,-1
 416 7 l 1,66,-1
 412 -5 l 1,67,-1
 364 -2 l 1,68,-1
 293 0 l 1,69,-1
 166 0 l 1,0,-1
EndSplineSet
EndChar

StartChar: uni0032
Encoding: 50 50 21
Width: 542
GlyphClass: 1
Flags: W
LayerCount: 2
Fore
SplineSet
37 0 m 1,0,1
 44 28 44 28 66 58 c 1,2,-1
 120 116 l 1,3,-1
 184 179 l 1,4,-1
 247 247 l 1,5,6
 275 284 275 284 294 325 c 0,7,8
 312 366 312 366 312 413 c 1,9,-1
 307 457 l 2,10,11
 301 480 301 480 288 498 c 128,-1,12
 275 516 275 516 252 528 c 0,13,14
 229 539 229 539 195 539 c 0,15,16
 152 539 152 539 118 517 c 0,17,18
 83 494 83 494 56 459 c 1,19,20
 56 496 56 496 71 525 c 0,21,22
 87 553 87 553 112 572 c 0,23,24
 138 591 138 591 171 601 c 1,25,-1
 237 610 l 1,26,27
 287 610 287 610 323 594 c 0,28,29
 359 577 359 577 383 552 c 0,30,31
 406 526 406 526 418 492 c 0,32,33
 430 459 430 459 430 424 c 0,34,35
 430 378 430 378 412 339 c 0,36,37
 395 300 395 300 369 267 c 0,38,39
 343 233 343 233 309 206 c 0,40,41
 276 178 276 178 244 154 c 2,42,-1
 183 108 l 1,43,-1
 138 69 l 1,44,-1
 201 78 l 1,45,-1
 264 80 l 1,46,-1
 328 77 l 1,47,-1
 390 76 l 1,48,-1
 479 79 l 2,49,50
 509 83 509 83 520 96 c 1,51,-1
 520 88 l 1,52,-1
 521 80 l 2,53,54
 521 53 521 53 512 36 c 128,-1,55
 503 19 503 19 486 10 c 0,56,57
 470 1 470 1 447 -2 c 2,58,-1
 397 -5 l 1,59,-1
 342 -3 l 1,60,-1
 247 0 l 1,61,-1
 37 0 l 1,0,1
EndSplineSet
EndChar

StartChar: uni0033
Encoding: 51 51 22
Width: 532
GlyphClass: 1
Flags: W
LayerCount: 2
Fore
SplineSet
49 2 m 1,0,1
 63 -12 63 -12 82 -21 c 2,2,-1
 119 -37 l 1,3,-1
 156 -46 l 1,4,-1
 190 -49 l 2,5,6
 229 -49 229 -49 257 -34 c 0,7,8
 284 -21 284 -21 301 3 c 128,-1,9
 318 27 318 27 326 57 c 128,-1,10
 334 87 334 87 334 118 c 0,11,12
 334 146 334 146 324 173 c 0,13,14
 314 199 314 199 296 220 c 0,15,16
 277 240 277 240 251 253 c 0,17,18
 225 267 225 267 191 270 c 1,19,-1
 180 273 l 2,20,21
 172 275 172 275 172 280 c 2,22,-1
 173 289 l 1,23,-1
 177 298 l 1,24,-1
 181 308 l 1,25,-1
 215 309 l 1,26,27
 235 316 235 316 252 328 c 2,28,-1
 282 358 l 1,29,-1
 303 393 l 1,30,-1
 310 430 l 1,31,-1
 303 470 l 1,32,-1
 282 504 l 2,33,34
 269 520 269 520 246 530 c 1,35,-1
 192 539 l 1,36,37
 149 539 149 539 115 517 c 0,38,39
 80 494 80 494 54 459 c 1,40,41
 54 496 54 496 68 525 c 0,42,43
 84 553 84 553 109 572 c 0,44,45
 136 591 136 591 168 601 c 1,46,-1
 234 610 l 1,47,48
 280 610 280 610 315 596 c 0,49,50
 352 583 352 583 375 560 c 0,51,52
 399 537 399 537 411 506 c 0,53,54
 423 476 423 476 423 442 c 0,55,56
 423 418 423 418 414 396 c 0,57,58
 405 373 405 373 389 354 c 2,59,-1
 352 320 l 1,60,61
 329 306 329 306 304 299 c 1,62,-1
 305 294 l 1,63,64
 341 286 341 286 368 269 c 0,65,66
 397 251 397 251 415 228 c 0,67,68
 434 204 434 204 442 177 c 0,69,70
 452 148 452 148 452 121 c 0,71,72
 452 79 452 79 438 38 c 128,-1,73
 424 -3 424 -3 394 -36 c 128,-1,74
 364 -69 364 -69 320 -90 c 0,75,76
 277 -110 277 -110 221 -110 c 1,77,-1
 166 -106 l 2,78,79
 137 -102 137 -102 110 -90 c 0,80,81
 84 -78 84 -78 66 -60 c 0,82,83
 48 -41 48 -41 48 -12 c 1,84,-1
 49 -6 l 1,85,-1
 49 2 l 1,0,1
EndSplineSet
EndChar

StartChar: uni0034
Encoding: 52 52 23
Width: 569
GlyphClass: 1
Flags: W
LayerCount: 2
Fore
SplineSet
129 213 m 1,0,-1
 226 224 l 1,1,-1
 332 222 l 1,2,-1
 331 295 l 1,3,-1
 329 375 l 1,4,-1
 327 447 l 1,5,-1
 327 495 l 1,6,-1
 324 531 l 1,7,-1
 129 213 l 1,0,-1
18 144 m 1,8,-1
 307 600 l 1,9,-1
 307 601 l 1,10,-1
 334 608 l 1,11,-1
 362 610 l 2,12,13
 396 610 396 610 418 593 c 0,14,15
 441 576 441 576 441 548 c 2,16,-1
 440 489 l 1,17,-1
 439 406 l 1,18,-1
 438 311 l 1,19,-1
 438 220 l 1,20,-1
 514 224 l 2,21,22
 539 228 539 228 550 240 c 1,23,-1
 551 232 l 1,24,-1
 551 224 l 2,25,26
 551 198 551 198 543 182 c 0,27,28
 535 165 535 165 520 155 c 0,29,30
 504 146 504 146 484 143 c 2,31,-1
 438 139 l 1,32,-1
 440 52 l 1,33,-1
 442 -42 l 2,34,35
 442 -83 442 -83 427 -97 c 0,36,37
 412 -110 412 -110 386 -110 c 2,38,-1
 350 -106 l 1,39,-1
 310 -101 l 1,40,-1
 315 -91 l 1,41,-1
 323 -59 l 1,42,-1
 328 15 l 1,43,-1
 332 143 l 1,44,-1
 303 144 l 1,45,-1
 268 144 l 1,46,-1
 18 144 l 1,8,-1
EndSplineSet
EndChar

StartChar: uni0035
Encoding: 53 53 24
Width: 527
GlyphClass: 1
Flags: W
LayerCount: 2
Fore
SplineSet
223 610 m 1,0,-1
 342 612 l 1,1,-1
 411 615 l 1,2,-1
 453 620 l 1,3,4
 453 576 453 576 435 549 c 128,-1,5
 417 522 417 522 374 522 c 2,6,-1
 217 522 l 1,7,-1
 182 526 l 2,8,9
 167 530 167 530 155 537 c 1,10,-1
 147 372 l 1,11,-1
 210 380 l 1,12,-1
 280 377 l 1,13,-1
 348 358 l 1,14,15
 383 344 383 344 408 318 c 0,16,17
 434 293 434 293 450 254 c 128,-1,18
 466 215 466 215 466 160 c 0,19,20
 466 104 466 104 445 55 c 0,21,22
 426 6 426 6 390 -31 c 0,23,24
 356 -68 356 -68 309 -89 c 0,25,26
 263 -110 263 -110 210 -110 c 1,27,-1
 158 -105 l 1,28,-1
 105 -88 l 1,29,30
 81 -76 81 -76 64 -58 c 0,31,32
 48 -39 48 -39 48 -12 c 2,33,-1
 48 -6 l 1,34,-1
 49 2 l 1,35,36
 75 -22 75 -22 112 -34 c 1,37,-1
 181 -47 l 1,38,39
 217 -47 217 -47 247 -33 c 0,40,41
 277 -20 277 -20 300 7 c 0,42,43
 322 32 322 32 335 67 c 0,44,45
 348 103 348 103 348 145 c 0,46,47
 348 214 348 214 327 254 c 128,-1,48
 306 294 306 294 268 313 c 0,49,50
 231 331 231 331 180 331 c 1,51,-1
 71 318 l 1,52,-1
 72 319 l 1,53,-1
 70 318 l 1,54,-1
 93 610 l 1,55,-1
 223 610 l 1,0,-1
EndSplineSet
EndChar

StartChar: uni0036
Encoding: 54 54 25
Width: 597
GlyphClass: 1
Flags: W
LayerCount: 2
Fore
SplineSet
204 386 m 1,0,-1
 215 407 l 1,1,-1
 232 422 l 1,2,-1
 261 431 l 1,3,-1
 309 434 l 2,4,5
 365 434 365 434 407 417 c 128,-1,6
 449 400 449 400 476 371 c 0,7,8
 505 343 505 343 518 305 c 0,9,10
 532 267 532 267 532 226 c 128,-1,11
 532 185 532 185 518 143 c 0,12,13
 506 101 506 101 478 67 c 0,14,15
 451 33 451 33 410 12 c 0,16,17
 369 -10 369 -10 314 -10 c 0,18,19
 250 -10 250 -10 205 16 c 0,20,21
 159 42 159 42 131 88 c 0,22,23
 102 133 102 133 90 194 c 0,24,25
 76 255 76 255 76 324 c 0,26,27
 76 387 76 387 93 455 c 0,28,29
 111 524 111 524 147 580 c 0,30,31
 183 637 183 637 239 673 c 0,32,33
 296 710 296 710 372 710 c 1,34,-1
 421 705 l 2,35,36
 445 701 445 701 466 690 c 0,37,38
 486 678 486 678 499 658 c 0,39,40
 512 640 512 640 512 612 c 1,41,-1
 511 606 l 1,42,-1
 511 598 l 1,43,-1
 484 621 l 1,44,-1
 459 637 l 1,45,-1
 431 646 l 1,46,-1
 399 649 l 1,47,48
 345 649 345 649 305 618 c 0,49,50
 266 588 266 588 241 539 c 0,51,52
 217 491 217 491 205 430 c 0,53,54
 192 368 192 368 192 306 c 0,55,56
 192 253 192 253 201 203 c 128,-1,57
 210 153 210 153 226 115 c 0,58,59
 243 77 243 77 269 54 c 128,-1,60
 295 31 295 31 330 31 c 0,61,62
 352 31 352 31 370 44 c 0,63,64
 387 57 387 57 397 78 c 2,65,-1
 414 126 l 1,66,-1
 420 182 l 1,67,68
 420 221 420 221 408 260 c 0,69,70
 397 298 397 298 377 328 c 0,71,72
 355 359 355 359 325 378 c 0,73,74
 296 397 296 397 258 397 c 0,75,76
 229 397 229 397 204 386 c 1,0,-1
EndSplineSet
EndChar

StartChar: uni0037
Encoding: 55 55 26
Width: 535
GlyphClass: 1
Flags: W
LayerCount: 2
Fore
SplineSet
20 620 m 1,0,-1
 56 615 l 1,1,-1
 123 612 l 1,2,-1
 240 611 l 1,3,-1
 380 612 l 1,4,-1
 464 614 l 1,5,-1
 506 615 l 1,6,-1
 518 615 l 1,7,-1
 514 601 l 1,8,-1
 506 574 l 1,9,-1
 493 542 l 1,10,-1
 478 513 l 1,11,-1
 433 426 l 1,12,-1
 385 328 l 1,13,-1
 338 229 l 1,14,-1
 295 135 l 1,15,-1
 260 55 l 1,16,-1
 234 -4 l 1,17,-1
 205 -59 l 1,18,-1
 171 -91 l 1,19,20
 152 -103 152 -103 131 -106 c 2,21,-1
 80 -110 l 1,22,-1
 63 -109 l 1,23,-1
 51 -108 l 1,24,-1
 39 -106 l 1,25,-1
 75 -77 l 2,26,27
 96 -60 96 -60 121 -19 c 2,28,-1
 158 48 l 1,29,-1
 206 142 l 1,30,-1
 259 249 l 1,31,-1
 310 358 l 1,32,-1
 356 454 l 1,33,-1
 391 528 l 1,34,-1
 364 521 l 1,35,-1
 341 517 l 1,36,-1
 317 515 l 1,37,-1
 99 515 l 2,38,39
 56 515 56 515 38 545 c 0,40,41
 20 576 20 576 20 620 c 1,0,-1
EndSplineSet
EndChar

StartChar: uni0038
Encoding: 56 56 27
Width: 593
GlyphClass: 1
Flags: W
LayerCount: 2
Fore
SplineSet
370 367 m 1,0,1
 386 394 386 394 397 438 c 0,2,3
 409 482 409 482 408 528 c 0,4,5
 407 563 407 563 396 589 c 0,6,7
 386 615 386 615 370 632 c 0,8,9
 353 649 353 649 333 658 c 1,10,-1
 291 666 l 1,11,-1
 253 658 l 1,12,-1
 221 633 l 2,13,14
 207 617 207 617 199 592 c 0,15,16
 190 568 190 568 191 536 c 0,17,18
 192 496 192 496 207 467 c 0,19,20
 220 439 220 439 243 418 c 0,21,22
 265 397 265 397 294 382 c 2,23,-1
 354 354 l 1,24,-1
 414 325 l 2,25,26
 442 312 442 312 465 293 c 0,27,28
 489 275 489 275 503 249 c 0,29,30
 516 224 516 224 517 188 c 128,-1,31
 518 152 518 152 504 117 c 0,32,33
 490 83 490 83 461 55 c 0,34,35
 432 26 432 26 390 9 c 0,36,37
 347 -10 347 -10 291 -11 c 128,-1,38
 235 -12 235 -12 192 3 c 0,39,40
 150 18 150 18 122 42 c 0,41,42
 95 66 95 66 81 99 c 0,43,44
 67 131 67 131 66 163 c 0,45,46
 66 191 66 191 78 224 c 0,47,48
 88 256 88 256 107 282 c 0,49,50
 125 309 125 309 151 324 c 0,51,52
 176 341 176 341 205 338 c 1,53,54
 190 313 190 313 180 274 c 0,55,56
 171 233 171 233 172 191 c 0,57,58
 172 160 172 160 179 131 c 128,-1,59
 186 102 186 102 200 78 c 0,60,61
 214 56 214 56 237 42 c 0,62,63
 258 28 258 28 291 29 c 0,64,65
 317 29 317 29 337 41 c 0,66,67
 358 52 358 52 373 69 c 0,68,69
 386 88 386 88 393 110 c 0,70,71
 400 133 400 133 399 156 c 0,72,73
 398 210 398 210 375 243 c 0,74,75
 351 276 351 276 316 300 c 1,76,-1
 239 342 l 2,77,78
 198 360 198 360 162 383 c 0,79,80
 126 405 126 405 102 438 c 0,81,82
 79 470 79 470 78 522 c 0,83,84
 77 559 77 559 94 593 c 0,85,86
 112 627 112 627 141 653 c 0,87,88
 171 678 171 678 211 694 c 0,89,90
 252 709 252 709 297 710 c 1,91,-1
 392 699 l 1,92,93
 433 686 433 686 461 662 c 0,94,95
 489 639 489 639 503 607 c 0,96,97
 516 575 516 575 517 537 c 0,98,99
 517 502 517 502 504 471 c 128,-1,100
 491 440 491 440 470 416 c 0,101,102
 451 393 451 393 426 379 c 0,103,104
 402 365 402 365 381 365 c 2,105,-1
 370 367 l 1,0,1
EndSplineSet
EndChar

StartChar: uni0039
Encoding: 57 57 28
Width: 597
GlyphClass: 1
Flags: W
LayerCount: 2
Fore
SplineSet
377 214 m 1,0,-1
 367 192 l 1,1,-1
 349 178 l 1,2,-1
 320 169 l 1,3,-1
 273 166 l 2,4,5
 216 166 216 166 174 183 c 128,-1,6
 132 200 132 200 105 229 c 0,7,8
 76 257 76 257 63 295 c 0,9,10
 49 333 49 333 49 374 c 128,-1,11
 49 415 49 415 63 457 c 0,12,13
 76 499 76 499 104 532 c 0,14,15
 130 567 130 567 171 588 c 0,16,17
 212 610 212 610 268 610 c 0,18,19
 331 610 331 610 377 584 c 0,20,21
 422 558 422 558 451 512 c 0,22,23
 480 467 480 467 493 405 c 0,24,25
 505 345 505 345 505 275 c 0,26,27
 505 213 505 213 488 145 c 0,28,29
 470 76 470 76 435 20 c 0,30,31
 399 -37 399 -37 342 -73 c 0,32,33
 286 -110 286 -110 209 -110 c 1,34,-1
 160 -106 l 2,35,36
 136 -102 136 -102 115 -90 c 0,37,38
 95 -78 95 -78 83 -60 c 0,39,40
 71 -41 71 -41 71 -12 c 2,41,-1
 71 -6 l 1,42,-1
 71 2 l 1,43,44
 99 -25 99 -25 122 -37 c 0,45,46
 147 -49 147 -49 182 -49 c 0,47,48
 237 -49 237 -49 276 -19 c 0,49,50
 316 12 316 12 340 61 c 0,51,52
 366 108 366 108 377 170 c 0,53,54
 389 232 389 232 389 294 c 0,55,56
 389 347 389 347 381 397 c 0,57,58
 372 445 372 445 355 485 c 0,59,60
 338 523 338 523 312 546 c 128,-1,61
 286 569 286 569 252 569 c 0,62,63
 229 569 229 569 212 556 c 0,64,65
 196 543 196 543 184 522 c 0,66,67
 173 501 173 501 167 474 c 2,68,-1
 162 418 l 2,69,70
 162 379 162 379 173 340 c 0,71,72
 184 302 184 302 205 272 c 0,73,74
 226 241 226 241 256 222 c 128,-1,75
 286 203 286 203 325 203 c 0,76,77
 353 203 353 203 377 214 c 1,0,-1
EndSplineSet
EndChar

StartChar: uni003A
Encoding: 58 58 29
Width: 271
GlyphClass: 1
Flags: W
LayerCount: 2
Fore
SplineSet
68 374 m 0,0,1
 68 402 68 402 87 422 c 0,2,3
 108 442 108 442 134 442 c 0,4,5
 162 442 162 442 182 422 c 128,-1,6
 202 402 202 402 202 374 c 0,7,8
 202 347 202 347 182 327 c 128,-1,9
 162 307 162 307 134 307 c 0,10,11
 108 307 108 307 87 327 c 0,12,13
 68 347 68 347 68 374 c 0,0,1
68 57 m 0,14,15
 68 85 68 85 87 105 c 0,16,17
 108 125 108 125 134 125 c 0,18,19
 162 125 162 125 182 105 c 128,-1,20
 202 85 202 85 202 57 c 0,21,22
 202 30 202 30 182 10 c 128,-1,23
 162 -10 162 -10 134 -10 c 0,24,25
 108 -10 108 -10 87 10 c 0,26,27
 68 30 68 30 68 57 c 0,14,15
EndSplineSet
EndChar

StartChar: uni003B
Encoding: 59 59 30
Width: 275
GlyphClass: 1
Flags: W
LayerCount: 2
Fore
SplineSet
69 57 m 0,0,1
 69 84 69 84 88 105 c 0,2,3
 106 124 106 124 133 124 c 1,4,-1
 167 116 l 1,5,-1
 192 93 l 1,6,-1
 205 60 l 1,7,-1
 210 21 l 1,8,-1
 203 -28 l 1,9,-1
 181 -74 l 1,10,11
 166 -95 166 -95 143 -107 c 128,-1,12
 120 -119 120 -119 89 -119 c 0,13,14
 63 -119 63 -119 42 -109 c 0,15,16
 23 -100 23 -100 16 -82 c 1,17,-1
 54 -91 l 1,18,19
 83 -91 83 -91 103 -71 c 0,20,21
 122 -53 122 -53 122 -23 c 0,22,23
 122 -8 122 -8 113 -1 c 2,24,-1
 96 12 l 1,25,-1
 77 26 l 2,26,27
 69 35 69 35 69 57 c 0,0,1
67 374 m 0,28,29
 67 402 67 402 86 422 c 0,30,31
 107 442 107 442 133 442 c 0,32,33
 161 442 161 442 181 422 c 128,-1,34
 201 402 201 402 201 374 c 0,35,36
 201 347 201 347 181 327 c 128,-1,37
 161 307 161 307 133 307 c 0,38,39
 107 307 107 307 86 327 c 0,40,41
 67 347 67 347 67 374 c 0,28,29
EndSplineSet
EndChar

StartChar: uni003C
Encoding: 60 60 31
Width: 437
GlyphClass: 1
Flags: W
LayerCount: 2
Fore
SplineSet
382 119 m 1,0,-1
 387 109 l 1,1,-1
 378 86 l 1,2,-1
 361 59 l 1,3,-1
 352 49 l 1,4,-1
 318 72 l 1,5,-1
 261 106 l 1,6,-1
 195 144 l 1,7,-1
 132 178 l 1,8,-1
 84 203 l 1,9,-1
 66 214 l 1,10,-1
 59 221 l 1,11,-1
 49 235 l 1,12,-1
 39 254 l 1,13,-1
 36 273 l 2,14,15
 36 284 36 284 45 291 c 2,16,-1
 65 301 l 1,17,-1
 116 328 l 1,18,-1
 183 365 l 1,19,-1
 253 404 l 1,20,-1
 313 441 l 1,21,-1
 349 465 l 1,22,-1
 353 460 l 1,23,-1
 366 445 l 1,24,-1
 378 424 l 1,25,-1
 384 403 l 1,26,-1
 379 394 l 1,27,-1
 358 382 l 1,28,-1
 304 354 l 1,29,-1
 235 316 l 1,30,-1
 164 275 l 1,31,-1
 135 259 l 1,32,-1
 210 215 l 1,33,-1
 291 170 l 1,34,-1
 382 119 l 1,0,-1
EndSplineSet
EndChar

StartChar: uni003D
Encoding: 61 61 32
Width: 517
GlyphClass: 1
Flags: W
LayerCount: 2
Fore
SplineSet
424 170 m 1,0,-1
 348 172 l 1,1,-1
 276 173 l 1,2,-1
 198 174 l 1,3,-1
 130 173 l 1,4,-1
 83 170 l 1,5,-1
 80 180 l 1,6,-1
 79 191 l 1,7,-1
 79 203 l 2,8,9
 79 219 79 219 84 233 c 0,10,11
 89 246 89 246 102 246 c 2,12,-1
 177 243 l 1,13,-1
 248 242 l 1,14,-1
 324 241 l 1,15,-1
 390 243 l 1,16,-1
 433 246 l 1,17,-1
 435 233 l 1,18,-1
 437 219 l 1,19,-1
 437 201 l 1,20,-1
 434 179 l 1,21,-1
 424 170 l 1,0,-1
424 326 m 1,22,-1
 348 328 l 1,23,-1
 276 329 l 1,24,-1
 198 330 l 1,25,-1
 130 329 l 1,26,-1
 83 326 l 1,27,-1
 80 336 l 1,28,-1
 79 347 l 1,29,-1
 79 360 l 2,30,31
 79 375 79 375 84 389 c 128,-1,32
 89 403 89 403 102 403 c 2,33,-1
 177 400 l 1,34,-1
 248 399 l 1,35,-1
 324 398 l 1,36,-1
 390 400 l 1,37,-1
 433 403 l 1,38,-1
 435 390 l 1,39,-1
 437 375 l 1,40,-1
 437 358 l 1,41,-1
 434 335 l 1,42,-1
 424 326 l 1,22,-1
EndSplineSet
EndChar

StartChar: uni003E
Encoding: 62 62 33
Width: 437
GlyphClass: 1
Flags: W
LayerCount: 2
Fore
SplineSet
54 119 m 2,0,-1
 145 170 l 1,1,-1
 226 215 l 1,2,-1
 301 259 l 1,3,-1
 273 275 l 1,4,-1
 201 316 l 1,5,-1
 132 354 l 1,6,-1
 79 382 l 1,7,-1
 58 394 l 2,8,9
 52 396 52 396 52 403 c 0,10,11
 52 412 52 412 59 424 c 2,12,-1
 71 445 l 1,13,-1
 83 460 l 1,14,-1
 87 465 l 1,15,16
 97 457 97 457 123 441 c 2,17,-1
 184 404 l 1,18,-1
 254 365 l 1,19,-1
 321 328 l 1,20,-1
 371 301 l 1,21,-1
 392 291 l 2,22,23
 402 284 402 284 402 273 c 2,24,-1
 398 254 l 1,25,-1
 388 235 l 1,26,-1
 377 221 l 1,27,-1
 370 214 l 1,28,-1
 352 203 l 1,29,-1
 305 178 l 1,30,-1
 241 144 l 1,31,-1
 176 106 l 1,32,-1
 119 72 l 1,33,-1
 84 49 l 1,34,-1
 75 59 l 1,35,-1
 59 86 l 2,36,37
 49 100 49 100 49 109 c 0,38,39
 49 116 49 116 54 119 c 2,0,-1
EndSplineSet
EndChar

StartChar: uni003F
Encoding: 63 63 34
Width: 390
GlyphClass: 1
Flags: W
LayerCount: 2
Fore
SplineSet
66 51 m 0,0,1
 66 76 66 76 84 95 c 0,2,3
 102 112 102 112 127 112 c 0,4,5
 153 112 153 112 171 95 c 0,6,7
 189 76 189 76 189 51 c 0,8,9
 189 25 189 25 171 8 c 0,10,11
 153 -11 153 -11 127 -11 c 0,12,13
 102 -11 102 -11 84 8 c 0,14,15
 66 25 66 25 66 51 c 0,0,1
353 540 m 0,16,17
 353 508 353 508 338 483 c 2,18,-1
 300 434 l 1,19,-1
 250 390 l 1,20,-1
 199 346 l 2,21,22
 177 323 177 323 161 298 c 0,23,24
 145 272 145 272 145 240 c 1,25,-1
 150 209 l 2,26,27
 155 191 155 191 163 181 c 1,28,-1
 145 178 l 1,29,-1
 131 177 l 2,30,31
 106 177 106 177 95 193 c 0,32,33
 85 210 85 210 85 243 c 0,34,35
 85 278 85 278 97 306 c 128,-1,36
 109 334 109 334 127 357 c 2,37,-1
 166 399 l 1,38,-1
 204 437 l 1,39,-1
 233 475 l 2,40,41
 246 494 246 494 246 516 c 0,42,43
 246 536 246 536 231 546 c 0,44,45
 218 557 218 557 196 565 c 2,46,-1
 151 579 l 2,47,48
 127 586 127 586 105 599 c 0,49,50
 84 612 84 612 70 632 c 0,51,52
 56 654 56 654 56 688 c 2,53,-1
 56 696 l 1,54,-1
 58 707 l 1,55,-1
 63 728 l 1,56,-1
 71 761 l 1,57,58
 78 740 78 740 108 723 c 0,59,60
 138 707 138 707 179 695 c 0,61,62
 273 664 273 664 313 626 c 128,-1,63
 353 588 353 588 353 540 c 0,16,17
EndSplineSet
EndChar

StartChar: uni0040
Encoding: 64 64 35
Width: 981
GlyphClass: 1
Flags: W
LayerCount: 2
Fore
SplineSet
554 107 m 1,0,-1
 558 153 l 1,1,-1
 562 244 l 1,2,-1
 563 356 l 1,3,-1
 561 466 l 1,4,-1
 542 465 l 1,5,-1
 505 456 l 2,6,7
 484 449 484 449 460 433 c 0,8,9
 437 417 437 417 416 388 c 0,10,11
 396 359 396 359 383 314 c 0,12,13
 369 269 369 269 369 204 c 0,14,15
 369 175 369 175 378 149 c 0,16,17
 387 124 387 124 400 105 c 0,18,19
 415 85 415 85 435 73 c 0,20,21
 453 62 453 62 475 62 c 0,22,23
 494 62 494 62 515 72 c 0,24,25
 534 83 534 83 554 107 c 1,0,-1
560 86 m 1,26,27
 546 60 546 60 529 42 c 2,28,-1
 493 13 l 2,29,30
 474 2 474 2 454 -4 c 2,31,-1
 416 -9 l 1,32,33
 385 -9 385 -9 355 7 c 0,34,35
 326 22 326 22 305 51 c 0,36,37
 283 78 283 78 271 113 c 128,-1,38
 259 148 259 148 259 188 c 0,39,40
 259 258 259 258 282 317 c 0,41,42
 306 376 306 376 347 419 c 128,-1,43
 388 462 388 462 442 486 c 0,44,45
 497 510 497 510 561 510 c 2,46,-1
 588 509 l 1,47,-1
 619 506 l 1,48,-1
 650 501 l 1,49,-1
 677 494 l 1,50,51
 668 447 668 447 666 390 c 2,52,-1
 663 271 l 1,53,-1
 662 192 l 2,54,55
 660 151 660 151 663 117 c 128,-1,56
 666 83 666 83 678 61 c 0,57,58
 690 38 690 38 714 38 c 0,59,60
 739 38 739 38 764 55 c 0,61,62
 787 71 787 71 807 102 c 0,63,64
 825 133 825 133 837 178 c 0,65,66
 850 223 850 223 850 278 c 0,67,68
 850 369 850 369 821 435 c 128,-1,69
 792 501 792 501 746 544 c 128,-1,70
 700 587 700 587 642 608 c 0,71,72
 583 629 583 629 523 629 c 0,73,74
 458 629 458 629 404 610 c 0,75,76
 351 591 351 591 309 560 c 0,77,78
 267 528 267 528 237 487 c 0,79,80
 208 445 208 445 188 400 c 0,81,82
 169 355 169 355 159 310 c 0,83,84
 150 264 150 264 150 224 c 0,85,86
 150 169 150 169 172 107 c 0,87,88
 192 47 192 47 230 -4 c 0,89,90
 268 -56 268 -56 320 -89 c 128,-1,91
 372 -122 372 -122 436 -122 c 1,92,-1
 480 -117 l 1,93,94
 471 -150 471 -150 451 -174 c 0,95,96
 432 -196 432 -196 392 -196 c 0,97,98
 310 -196 310 -196 247 -157 c 128,-1,99
 184 -118 184 -118 141 -58 c 0,100,101
 98 3 98 3 76 76 c 0,102,103
 54 150 54 150 53 220 c 0,104,105
 53 316 53 316 86 403 c 0,106,107
 119 491 119 491 182 560 c 0,108,109
 244 627 244 627 334 667 c 0,110,111
 423 708 423 708 533 708 c 0,112,113
 613 708 613 708 685 684 c 0,114,115
 756 660 756 660 809 612 c 0,116,117
 862 563 862 563 894 489 c 0,118,119
 926 416 926 416 926 318 c 0,120,121
 926 249 926 249 907 186 c 0,122,123
 889 123 889 123 857 75 c 0,124,125
 824 27 824 27 781 -2 c 0,126,127
 738 -30 738 -30 690 -30 c 1,128,-1
 647 -25 l 2,129,130
 624 -21 624 -21 605 -8 c 0,131,132
 584 5 584 5 571 25 c 0,133,134
 559 45 559 45 559 75 c 2,135,-1
 559 81 l 1,136,-1
 560 86 l 1,26,27
EndSplineSet
EndChar

StartChar: uni0041
Encoding: 65 65 36
Width: 648
GlyphClass: 1
Flags: W
LayerCount: 2
Fore
SplineSet
39 -10 m 1,0,-1
 13 -5 l 1,1,-1
 8 0 l 1,2,-1
 28 26 l 1,3,-1
 51 65 l 1,4,-1
 77 130 l 1,5,-1
 286 713 l 1,6,7
 317 710 317 710 346 696 c 1,8,-1
 394 660 l 1,9,10
 417 636 417 636 432 592 c 2,11,-1
 455 519 l 1,12,-1
 484 430 l 1,13,-1
 516 333 l 1,14,-1
 549 238 l 1,15,-1
 580 153 l 1,16,-1
 608 86 l 1,17,-1
 639 21 l 2,18,19
 649 4 649 4 657 0 c 1,20,-1
 633 -5 l 1,21,-1
 581 -10 l 2,22,23
 547 -10 547 -10 518 4 c 128,-1,24
 489 18 489 18 481 50 c 2,25,-1
 458 131 l 1,26,-1
 426 233 l 1,27,-1
 377 233 l 1,28,-1
 325 233 l 1,29,-1
 250 233 l 1,30,-1
 182 231 l 1,31,-1
 140 102 l 1,32,-1
 112 29 l 1,33,34
 98 4 98 4 82 -3 c 1,35,-1
 39 -10 l 1,0,-1
298 587 m 1,36,-1
 241 419 l 1,37,-1
 197 285 l 1,38,-1
 248 284 l 1,39,-1
 305 284 l 1,40,-1
 356 284 l 1,41,-1
 407 285 l 1,42,-1
 351 445 l 1,43,-1
 298 587 l 1,36,-1
EndSplineSet
EndChar

StartChar: uni0042
Encoding: 66 66 37
Width: 648
GlyphClass: 1
Flags: W
LayerCount: 2
Fore
SplineSet
295 700 m 1,0,-1
 401 687 l 1,1,2
 445 673 445 673 473 651 c 0,3,4
 500 628 500 628 513 599 c 0,5,6
 526 571 526 571 526 538 c 0,7,8
 526 496 526 496 505 451 c 0,9,10
 485 407 485 407 440 372 c 1,11,-1
 500 348 l 2,12,13
 529 333 529 333 550 312 c 1,14,-1
 582 264 l 1,15,16
 594 235 594 235 594 199 c 0,17,18
 594 155 594 155 579 117 c 0,19,20
 563 78 563 78 534 50 c 0,21,22
 504 21 504 21 460 4 c 0,23,24
 417 -13 417 -13 363 -13 c 2,25,-1
 314 -11 l 1,26,-1
 264 -7 l 1,27,-1
 196 -2 l 1,28,-1
 94 0 l 1,29,-1
 99 9 l 1,30,-1
 103 46 l 1,31,-1
 106 129 l 1,32,-1
 108 276 l 1,33,-1
 107 318 l 1,34,-1
 106 375 l 1,35,-1
 105 441 l 1,36,-1
 104 504 l 1,37,-1
 103 559 l 1,38,-1
 102 595 l 1,39,-1
 98 653 l 1,40,-1
 95 685 l 1,41,-1
 92 702 l 1,42,-1
 116 701 l 1,43,-1
 142 700 l 1,44,-1
 171 700 l 1,45,-1
 295 700 l 1,0,-1
426 499 m 2,46,-1
 419 556 l 1,47,48
 411 583 411 583 392 603 c 128,-1,49
 373 623 373 623 340 635 c 1,50,-1
 256 647 l 1,51,-1
 237 647 l 1,52,-1
 233 647 l 1,53,-1
 229 646 l 1,54,-1
 226 646 l 1,55,-1
 225 526 l 1,56,-1
 223 398 l 1,57,-1
 309 394 l 1,58,-1
 394 383 l 1,59,-1
 418 441 l 2,60,61
 426 470 426 470 426 499 c 2,46,-1
223 238 m 1,62,-1
 224 171 l 1,63,-1
 226 99 l 2,64,65
 226 84 226 84 238 73 c 1,66,-1
 266 58 l 1,67,-1
 302 50 l 1,68,-1
 336 48 l 2,69,70
 382 48 382 48 410 61 c 0,71,72
 439 72 439 72 453 92 c 0,73,74
 469 111 469 111 473 136 c 2,75,-1
 478 186 l 1,76,77
 478 234 478 234 456 267 c 0,78,79
 435 299 435 299 400 318 c 0,80,81
 365 336 365 336 319 344 c 1,82,-1
 223 352 l 1,83,-1
 222 297 l 1,84,-1
 223 238 l 1,62,-1
EndSplineSet
EndChar

StartChar: uni0043
Encoding: 67 67 38
Width: 703
GlyphClass: 1
Flags: W
LayerCount: 2
Fore
SplineSet
55 340 m 0,0,1
 55 420 55 420 84 488 c 0,2,3
 114 555 114 555 163 605 c 0,4,5
 213 654 213 654 280 682 c 0,6,7
 346 710 346 710 421 710 c 1,8,-1
 488 705 l 1,9,-1
 555 689 l 1,10,11
 587 677 587 677 609 659 c 0,12,13
 630 641 630 641 630 615 c 0,14,15
 630 599 630 599 618 578 c 0,16,17
 604 557 604 557 583 546 c 1,18,19
 581 567 581 567 563 585 c 0,20,21
 546 604 546 604 521 618 c 2,22,-1
 468 640 l 1,23,-1
 413 648 l 1,24,25
 366 648 366 648 323 627 c 0,26,27
 281 607 281 607 248 569 c 0,28,29
 216 530 216 530 198 475 c 0,30,31
 178 420 178 420 178 352 c 0,32,33
 178 276 178 276 199 222 c 0,34,35
 218 166 218 166 252 129 c 0,36,37
 285 93 285 93 329 75 c 0,38,39
 373 58 373 58 422 58 c 0,40,41
 482 58 482 58 542 80 c 0,42,43
 603 103 603 103 656 155 c 1,44,45
 654 115 654 115 631 84 c 0,46,47
 609 53 609 53 573 32 c 128,-1,48
 537 11 537 11 491 0 c 1,49,-1
 396 -10 l 1,50,51
 319 -10 319 -10 255 13 c 0,52,53
 193 36 193 36 148 80 c 0,54,55
 103 125 103 125 79 191 c 0,56,57
 55 256 55 256 55 340 c 0,0,1
EndSplineSet
EndChar

StartChar: uni0044
Encoding: 68 68 39
Width: 792
GlyphClass: 1
Flags: W
LayerCount: 2
Fore
SplineSet
226 646 m 1,0,-1
 225 554 l 1,1,-1
 224 457 l 1,2,-1
 223 354 l 1,3,-1
 223 238 l 1,4,-1
 224 171 l 1,5,-1
 226 99 l 2,6,7
 226 84 226 84 240 73 c 0,8,9
 254 63 254 63 276 58 c 2,10,-1
 321 51 l 1,11,-1
 365 49 l 2,12,13
 425 49 425 49 473 71 c 0,14,15
 520 94 520 94 553 132 c 0,16,17
 586 171 586 171 603 222 c 0,18,19
 621 274 621 274 621 332 c 0,20,21
 621 419 621 419 590 480 c 0,22,23
 559 540 559 540 510 577 c 128,-1,24
 461 614 461 614 400 630 c 0,25,26
 337 647 337 647 275 647 c 2,27,-1
 250 647 l 1,28,-1
 226 646 l 1,0,-1
108 276 m 1,29,-1
 107 318 l 1,30,-1
 106 375 l 1,31,-1
 105 441 l 1,32,-1
 104 504 l 1,33,-1
 103 559 l 1,34,-1
 102 595 l 1,35,-1
 98 653 l 1,36,-1
 95 684 l 1,37,-1
 92 700 l 1,38,-1
 314 700 l 1,39,-1
 468 684 l 1,40,41
 544 667 544 667 605 627 c 0,42,43
 665 587 665 587 702 520 c 128,-1,44
 739 453 739 453 739 351 c 0,45,46
 739 273 739 273 712 207 c 0,47,48
 687 141 687 141 641 92 c 128,-1,49
 595 43 595 43 533 15 c 0,50,51
 469 -13 469 -13 397 -13 c 2,52,-1
 335 -11 l 1,53,-1
 274 -7 l 1,54,-1
 198 -2 l 1,55,-1
 94 0 l 1,56,-1
 99 9 l 1,57,-1
 103 46 l 1,58,-1
 106 129 l 1,59,-1
 108 276 l 1,29,-1
EndSplineSet
EndChar

StartChar: uni0045
Encoding: 69 69 40
Width: 582
GlyphClass: 1
Flags: W
LayerCount: 2
Fore
SplineSet
108 276 m 1,0,-1
 107 318 l 1,1,-1
 106 375 l 1,2,-1
 105 441 l 1,3,-1
 104 504 l 1,4,-1
 103 559 l 1,5,-1
 102 595 l 1,6,-1
 98 652 l 1,7,-1
 95 684 l 1,8,-1
 92 700 l 1,9,-1
 276 700 l 1,10,-1
 374 701 l 1,11,-1
 444 705 l 1,12,-1
 496 710 l 1,13,14
 496 678 496 678 483 654 c 0,15,16
 469 630 469 630 435 630 c 2,17,-1
 265 640 l 1,18,-1
 242 643 l 1,19,-1
 226 646 l 1,20,-1
 226 605 l 1,21,-1
 225 545 l 1,22,-1
 224 475 l 1,23,-1
 224 401 l 1,24,-1
 377 401 l 1,25,-1
 419 405 l 1,26,-1
 432 410 l 1,27,-1
 433 397 l 1,28,-1
 433 384 l 2,29,30
 433 358 433 358 418 349 c 1,31,-1
 376 341 l 1,32,-1
 223 342 l 1,33,-1
 223 234 l 1,34,-1
 224 152 l 1,35,-1
 227 65 l 1,36,-1
 349 65 l 1,37,-1
 415 65 l 1,38,-1
 469 68 l 1,39,-1
 510 77 l 2,40,41
 528 84 528 84 539 98 c 1,42,43
 550 58 550 58 537 36 c 0,44,45
 525 15 525 15 499 5 c 1,46,-1
 440 -7 l 1,47,-1
 374 -9 l 1,48,-1
 305 -7 l 1,49,-1
 241 -4 l 1,50,-1
 94 0 l 1,51,-1
 98 10 l 1,52,-1
 103 46 l 1,53,-1
 106 129 l 1,54,-1
 108 276 l 1,0,-1
EndSplineSet
EndChar

StartChar: uni0046
Encoding: 70 70 41
Width: 515
GlyphClass: 1
Flags: W
LayerCount: 2
Fore
SplineSet
107 277 m 1,0,-1
 106 318 l 1,1,-1
 105 375 l 1,2,-1
 104 441 l 1,3,-1
 103 504 l 1,4,-1
 102 559 l 1,5,-1
 101 595 l 1,6,-1
 97 652 l 1,7,-1
 94 684 l 1,8,-1
 91 700 l 1,9,-1
 275 700 l 1,10,-1
 373 701 l 1,11,-1
 443 705 l 1,12,-1
 495 710 l 1,13,14
 495 678 495 678 482 654 c 0,15,16
 468 630 468 630 434 630 c 2,17,-1
 264 640 l 1,18,-1
 241 643 l 1,19,-1
 225 646 l 1,20,-1
 225 605 l 1,21,-1
 224 545 l 1,22,-1
 223 475 l 1,23,-1
 223 401 l 1,24,-1
 376 401 l 1,25,-1
 418 405 l 1,26,-1
 431 410 l 1,27,-1
 432 397 l 1,28,-1
 432 384 l 2,29,30
 432 358 432 358 417 349 c 1,31,-1
 375 341 l 1,32,-1
 222 342 l 1,33,-1
 222 238 l 1,34,-1
 224 151 l 1,35,-1
 226 58 l 2,36,37
 226 17 226 17 206 4 c 0,38,39
 187 -10 187 -10 160 -10 c 2,40,-1
 128 -7 l 1,41,-1
 93 0 l 1,42,-1
 97 10 l 1,43,-1
 102 47 l 1,44,-1
 105 130 l 1,45,-1
 107 277 l 1,0,-1
EndSplineSet
EndChar

StartChar: uni0047
Encoding: 71 71 42
Width: 729
GlyphClass: 1
Flags: W
LayerCount: 2
Fore
SplineSet
55 340 m 0,0,1
 55 420 55 420 84 488 c 0,2,3
 114 555 114 555 163 605 c 0,4,5
 213 654 213 654 280 682 c 0,6,7
 346 710 346 710 421 710 c 1,8,-1
 488 705 l 1,9,-1
 555 689 l 1,10,11
 587 677 587 677 609 659 c 0,12,13
 630 641 630 641 630 615 c 0,14,15
 630 599 630 599 618 578 c 0,16,17
 605 557 605 557 583 546 c 1,18,19
 581 567 581 567 564 585 c 2,20,-1
 522 618 l 1,21,-1
 468 640 l 1,22,-1
 413 648 l 1,23,24
 366 648 366 648 323 627 c 0,25,26
 281 607 281 607 248 569 c 0,27,28
 216 530 216 530 198 475 c 0,29,30
 178 420 178 420 178 352 c 0,31,32
 178 276 178 276 199 222 c 0,33,34
 218 166 218 166 252 129 c 0,35,36
 285 93 285 93 329 75 c 0,37,38
 373 58 373 58 422 58 c 2,39,-1
 460 59 l 1,40,-1
 492 62 l 1,41,-1
 522 66 l 1,42,-1
 526 108 l 1,43,-1
 528 157 l 1,44,-1
 527 217 l 1,45,-1
 525 273 l 1,46,-1
 520 316 l 1,47,-1
 511 338 l 1,48,-1
 558 343 l 2,49,50
 593 343 593 343 620 329 c 0,51,52
 645 315 645 315 645 275 c 2,53,-1
 642 182 l 1,54,-1
 639 89 l 1,55,-1
 640 45 l 1,56,-1
 644 0 l 1,57,-1
 626 3 l 1,58,-1
 602 4 l 1,59,-1
 550 2 l 1,60,-1
 493 -3 l 1,61,-1
 439 -8 l 1,62,-1
 396 -10 l 2,63,64
 319 -10 319 -10 255 13 c 0,65,66
 193 36 193 36 148 80 c 0,67,68
 103 125 103 125 79 191 c 0,69,70
 55 256 55 256 55 340 c 0,0,1
EndSplineSet
EndChar

StartChar: uni0048
Encoding: 72 72 43
Width: 796
GlyphClass: 1
Flags: W
LayerCount: 2
Fore
SplineSet
686 648 m 2,0,-1
 683 520 l 1,1,-1
 682 395 l 1,2,-1
 683 255 l 1,3,-1
 686 106 l 1,4,-1
 688 63 l 1,5,-1
 690 36 l 1,6,-1
 695 18 l 1,7,-1
 702 0 l 1,8,-1
 691 -5 l 1,9,-1
 657 -10 l 1,10,-1
 620 -6 l 2,11,12
 603 -2 603 -2 589 8 c 0,13,14
 577 18 577 18 569 34 c 0,15,16
 562 50 562 50 562 73 c 2,17,-1
 564 199 l 1,18,-1
 567 341 l 1,19,-1
 489 344 l 1,20,-1
 400 345 l 1,21,-1
 304 344 l 1,22,-1
 222 341 l 1,23,-1
 222 239 l 1,24,-1
 224 151 l 1,25,-1
 226 58 l 2,26,27
 226 17 226 17 206 4 c 0,28,29
 187 -10 187 -10 160 -10 c 2,30,-1
 128 -7 l 1,31,-1
 93 0 l 1,32,-1
 97 10 l 1,33,-1
 102 47 l 1,34,-1
 105 130 l 1,35,-1
 107 277 l 1,36,-1
 106 318 l 1,37,-1
 105 375 l 1,38,-1
 104 441 l 1,39,-1
 103 504 l 1,40,-1
 102 559 l 1,41,-1
 101 595 l 1,42,-1
 97 652 l 1,43,-1
 94 684 l 1,44,-1
 91 701 l 1,45,-1
 118 707 l 1,46,-1
 146 710 l 2,47,48
 180 710 180 710 202 694 c 0,49,50
 225 677 225 677 225 648 c 2,51,-1
 225 607 l 1,52,-1
 224 546 l 1,53,-1
 223 475 l 1,54,-1
 223 400 l 1,55,-1
 292 397 l 1,56,-1
 378 396 l 1,57,-1
 481 397 l 1,58,-1
 567 400 l 1,59,-1
 565 503 l 1,60,-1
 562 595 l 1,61,-1
 558 652 l 1,62,-1
 555 684 l 1,63,-1
 552 701 l 1,64,-1
 580 707 l 1,65,-1
 607 710 l 2,66,67
 641 710 641 710 664 694 c 0,68,69
 686 677 686 677 686 648 c 2,0,-1
EndSplineSet
EndChar

StartChar: uni0049
Encoding: 73 73 44
Width: 323
GlyphClass: 1
Flags: W
LayerCount: 2
Fore
SplineSet
223 648 m 2,0,-1
 220 520 l 1,1,-1
 219 395 l 1,2,-1
 220 255 l 1,3,-1
 223 106 l 1,4,-1
 225 63 l 1,5,-1
 227 36 l 1,6,-1
 232 18 l 1,7,-1
 238 0 l 1,8,-1
 228 -5 l 1,9,-1
 194 -10 l 1,10,11
 154 -10 154 -10 129 8 c 128,-1,12
 104 26 104 26 104 73 c 2,13,-1
 104 368 l 1,14,-1
 102 489 l 1,15,-1
 99 595 l 1,16,-1
 95 652 l 1,17,-1
 92 684 l 1,18,-1
 89 701 l 1,19,-1
 116 707 l 1,20,-1
 144 710 l 2,21,22
 178 710 178 710 200 694 c 0,23,24
 223 677 223 677 223 648 c 2,0,-1
EndSplineSet
EndChar

StartChar: uni004A
Encoding: 74 74 45
Width: 324
GlyphClass: 1
Flags: W
LayerCount: 2
Fore
SplineSet
89 701 m 1,0,-1
 116 707 l 1,1,-1
 144 710 l 2,2,3
 177 710 177 710 199 694 c 0,4,5
 222 677 222 677 222 648 c 2,6,-1
 222 579 l 1,7,-1
 221 488 l 1,8,-1
 220 394 l 1,9,-1
 219 318 l 1,10,-1
 219 238 l 1,11,-1
 218 143 l 1,12,-1
 218 52 l 1,13,-1
 217 -15 l 2,14,15
 217 -65 217 -65 201 -103 c 0,16,17
 187 -140 187 -140 158 -163 c 0,18,19
 131 -188 131 -188 95 -198 c 1,20,-1
 17 -210 l 1,21,22
 47 -189 47 -189 65 -151 c 0,23,24
 82 -115 82 -115 91 -53 c 0,25,26
 101 9 101 9 103 103 c 2,27,-1
 105 334 l 1,28,-1
 104 393 l 1,29,-1
 103 469 l 1,30,-1
 101 542 l 1,31,-1
 99 595 l 1,32,-1
 95 652 l 1,33,-1
 92 684 l 1,34,-1
 89 701 l 1,0,-1
EndSplineSet
EndChar

StartChar: uni004B
Encoding: 75 75 46
Width: 660
GlyphClass: 1
Flags: W
LayerCount: 2
Fore
SplineSet
101 595 m 1,0,-1
 97 652 l 1,1,-1
 94 684 l 1,2,-1
 91 701 l 1,3,-1
 113 707 l 1,4,-1
 136 710 l 1,5,-1
 168 706 l 1,6,-1
 197 694 l 1,7,-1
 217 674 l 2,8,9
 225 663 225 663 225 648 c 2,10,-1
 224 603 l 1,11,-1
 223 537 l 1,12,-1
 222 461 l 1,13,-1
 222 382 l 1,14,15
 263 389 263 389 289 416 c 0,16,17
 316 444 316 444 335 482 c 2,18,-1
 440 657 l 1,19,-1
 458 684 l 1,20,-1
 480 700 l 1,21,-1
 507 708 l 1,22,-1
 543 710 l 1,23,-1
 584 707 l 1,24,-1
 616 700 l 1,25,26
 587 686 587 686 562 656 c 2,27,-1
 516 591 l 1,28,-1
 478 523 l 1,29,-1
 449 467 l 1,30,-1
 432 439 l 1,31,-1
 409 410 l 1,32,-1
 383 385 l 2,33,34
 368 374 368 374 352 369 c 1,35,36
 378 364 378 364 400 344 c 1,37,-1
 436 300 l 1,38,-1
 522 150 l 1,39,-1
 564 82 l 1,40,-1
 596 40 l 1,41,-1
 621 17 l 1,42,-1
 643 0 l 1,43,-1
 614 -5 l 1,44,-1
 588 -9 l 1,45,-1
 565 -10 l 1,46,-1
 510 -3 l 1,47,48
 489 4 489 4 473 18 c 128,-1,49
 457 32 457 32 446 55 c 2,50,-1
 416 109 l 1,51,-1
 372 192 l 1,52,-1
 325 264 l 1,53,-1
 277 318 l 1,54,55
 250 341 250 341 222 351 c 1,56,-1
 222 239 l 1,57,-1
 224 151 l 1,58,-1
 226 58 l 2,59,60
 226 17 226 17 206 4 c 0,61,62
 187 -10 187 -10 160 -10 c 2,63,-1
 128 -7 l 1,64,-1
 93 0 l 1,65,-1
 97 10 l 1,66,-1
 102 47 l 1,67,-1
 105 130 l 1,68,-1
 107 277 l 1,69,-1
 106 318 l 1,70,-1
 105 375 l 1,71,-1
 104 441 l 1,72,-1
 103 504 l 1,73,-1
 102 559 l 1,74,-1
 101 595 l 1,0,-1
EndSplineSet
EndChar

StartChar: uni004C
Encoding: 76 76 47
Width: 555
GlyphClass: 1
Flags: W
LayerCount: 2
Fore
SplineSet
538 106 m 1,0,-1
 542 77 l 2,1,2
 542 50 542 50 533 33 c 0,3,4
 523 16 523 16 502 7 c 2,5,-1
 450 -6 l 1,6,-1
 373 -9 l 1,7,-1
 304 -7 l 1,8,-1
 240 -4 l 1,9,-1
 93 0 l 1,10,-1
 97 10 l 1,11,-1
 102 46 l 1,12,-1
 105 129 l 1,13,-1
 107 276 l 1,14,-1
 106 353 l 1,15,-1
 105 443 l 1,16,-1
 103 530 l 1,17,-1
 101 595 l 1,18,-1
 97 652 l 1,19,-1
 94 684 l 1,20,-1
 91 701 l 1,21,-1
 113 707 l 1,22,-1
 136 710 l 1,23,-1
 168 706 l 1,24,-1
 197 694 l 1,25,-1
 217 674 l 2,26,27
 225 663 225 663 225 648 c 2,28,-1
 223 556 l 1,29,-1
 221 459 l 1,30,-1
 221 372 l 1,31,-1
 221 311 l 1,32,-1
 221 273 l 1,33,-1
 221 212 l 1,34,-1
 221 140 l 1,35,-1
 222 65 l 1,36,-1
 348 65 l 1,37,-1
 468 72 l 1,38,39
 515 79 515 79 538 106 c 1,0,-1
EndSplineSet
EndChar

StartChar: uni004D
Encoding: 77 77 48
Width: 874
GlyphClass: 1
Flags: W
LayerCount: 2
Fore
SplineSet
779 0 m 1,0,-1
 762 -5 l 1,1,-1
 723 -10 l 1,2,3
 684 -10 684 -10 663 8 c 0,4,5
 641 26 641 26 641 73 c 2,6,-1
 642 213 l 1,7,-1
 643 368 l 1,8,-1
 642 478 l 1,9,-1
 639 576 l 1,10,-1
 572 475 l 1,11,-1
 509 367 l 1,12,-1
 455 265 l 1,13,-1
 416 178 l 1,14,-1
 413 178 l 1,15,-1
 406 179 l 1,16,-1
 400 185 l 1,17,-1
 344 270 l 1,18,-1
 279 358 l 1,19,-1
 215 436 l 1,20,-1
 166 495 l 1,21,-1
 164 493 l 1,22,-1
 168 446 l 1,23,-1
 168 404 l 1,24,-1
 170 313 l 1,25,-1
 170 234 l 1,26,-1
 170 153 l 1,27,-1
 170 58 l 1,28,-1
 170 24 l 1,29,-1
 166 4 l 1,30,-1
 156 -7 l 1,31,-1
 135 -10 l 1,32,-1
 111 -7 l 1,33,-1
 93 0 l 1,34,-1
 98 10 l 1,35,-1
 102 47 l 1,36,-1
 105 130 l 1,37,-1
 107 277 l 1,38,-1
 106 318 l 1,39,-1
 105 375 l 1,40,-1
 104 441 l 1,41,-1
 103 504 l 1,42,-1
 102 559 l 1,43,-1
 101 595 l 1,44,-1
 97 652 l 1,45,-1
 94 684 l 1,46,-1
 91 701 l 1,47,-1
 107 707 l 1,48,-1
 125 710 l 1,49,50
 160 710 160 710 171 693 c 2,51,-1
 235 607 l 1,52,-1
 307 515 l 1,53,-1
 375 425 l 1,54,-1
 429 345 l 1,55,-1
 460 405 l 1,56,-1
 499 474 l 1,57,-1
 541 542 l 1,58,-1
 579 603 l 1,59,-1
 602 644 l 1,60,-1
 618 669 l 1,61,-1
 626 687 l 1,62,-1
 629 700 l 1,63,-1
 657 707 l 1,64,-1
 683 710 l 2,65,66
 717 710 717 710 738 694 c 0,67,68
 758 677 758 677 758 648 c 2,69,-1
 758 570 l 1,70,-1
 757 491 l 1,71,-1
 759 308 l 1,72,-1
 762 106 l 1,73,-1
 763 63 l 1,74,-1
 766 36 l 1,75,-1
 771 18 l 1,76,-1
 779 0 l 1,0,-1
EndSplineSet
EndChar

StartChar: uni004E
Encoding: 78 78 49
Width: 763
GlyphClass: 1
Flags: W
LayerCount: 2
Fore
SplineSet
671 0 m 1,0,-1
 662 -5 l 1,1,-1
 631 -10 l 2,2,3
 614 -10 614 -10 594 5 c 0,4,5
 576 20 576 20 568 36 c 0,6,7
 542 89 542 89 495 147 c 2,8,-1
 391 264 l 1,9,-1
 276 385 l 2,10,11
 216 445 216 445 168 504 c 1,12,-1
 168 428 l 1,13,-1
 167 353 l 1,14,-1
 166 287 l 1,15,-1
 166 239 l 1,16,-1
 168 151 l 1,17,-1
 170 58 l 1,18,-1
 170 24 l 1,19,-1
 166 4 l 1,20,-1
 156 -7 l 1,21,-1
 135 -10 l 1,22,-1
 112 -7 l 1,23,-1
 93 0 l 1,24,-1
 97 10 l 1,25,-1
 102 47 l 1,26,-1
 105 130 l 1,27,-1
 107 277 l 1,28,-1
 106 318 l 1,29,-1
 105 375 l 1,30,-1
 104 441 l 1,31,-1
 103 504 l 1,32,-1
 102 559 l 1,33,-1
 101 595 l 1,34,-1
 97 652 l 1,35,-1
 94 684 l 1,36,-1
 91 701 l 1,37,-1
 101 705 l 1,38,-1
 111 708 l 1,39,-1
 120 710 l 1,40,41
 152 710 152 710 167 694 c 2,42,-1
 233 615 l 1,43,-1
 318 526 l 1,44,-1
 409 431 l 1,45,-1
 494 338 l 1,46,-1
 560 254 l 2,47,48
 586 215 586 215 594 187 c 1,49,-1
 596 197 l 1,50,-1
 596 222 l 1,51,-1
 595 254 l 1,52,-1
 594 287 l 1,53,-1
 591 450 l 1,54,-1
 586 595 l 1,55,-1
 583 652 l 1,56,-1
 580 684 l 1,57,-1
 577 701 l 1,58,-1
 586 705 l 1,59,-1
 597 708 l 1,60,-1
 612 710 l 1,61,-1
 637 706 l 1,62,-1
 651 694 l 1,63,-1
 655 674 l 1,64,-1
 656 648 l 1,65,-1
 653 520 l 1,66,-1
 652 395 l 1,67,-1
 653 260 l 1,68,-1
 656 117 l 1,69,-1
 657 71 l 1,70,-1
 659 39 l 1,71,-1
 664 17 l 1,72,-1
 671 0 l 1,0,-1
EndSplineSet
EndChar

StartChar: uni004F
Encoding: 79 79 50
Width: 821
GlyphClass: 1
Flags: W
LayerCount: 2
Fore
SplineSet
178 352 m 0,0,1
 178 290 178 290 197 234 c 0,2,3
 214 180 214 180 245 139 c 0,4,5
 277 98 277 98 318 74 c 0,6,7
 360 51 360 51 407 51 c 128,-1,8
 454 51 454 51 495 74 c 0,9,10
 537 98 537 98 567 139 c 128,-1,11
 597 180 597 180 616 234 c 0,12,13
 633 290 633 290 633 352 c 0,14,15
 633 413 633 413 616 469 c 0,16,17
 597 524 597 524 567 565 c 128,-1,18
 537 606 537 606 495 629 c 0,19,20
 454 653 454 653 407 653 c 128,-1,21
 360 653 360 653 318 629 c 0,22,23
 277 606 277 606 245 565 c 0,24,25
 214 524 214 524 197 469 c 0,26,27
 178 413 178 413 178 352 c 0,0,1
377 -11 m 0,28,29
 306 -11 306 -11 247 14 c 0,30,31
 189 37 189 37 146 84 c 0,32,33
 103 130 103 130 79 196 c 0,34,35
 56 263 56 263 56 347 c 0,36,37
 56 422 56 422 83 488 c 0,38,39
 112 554 112 554 161 604 c 0,40,41
 212 653 212 653 283 682 c 0,42,43
 352 710 352 710 436 710 c 0,44,45
 506 710 506 710 566 688 c 0,46,47
 625 665 625 665 668 620 c 0,48,49
 710 574 710 574 733 508 c 0,50,51
 756 441 756 441 756 353 c 0,52,53
 756 275 756 275 730 209 c 128,-1,54
 704 143 704 143 655 94 c 0,55,56
 606 46 606 46 535 18 c 0,57,58
 464 -11 464 -11 377 -11 c 0,28,29
EndSplineSet
EndChar

StartChar: uni0050
Encoding: 80 80 51
Width: 584
GlyphClass: 1
Flags: W
LayerCount: 2
Fore
SplineSet
223 647 m 1,0,-1
 220 520 l 1,1,-1
 219 395 l 1,2,-1
 218 358 l 1,3,-1
 219 319 l 1,4,-1
 236 318 l 1,5,-1
 254 318 l 2,6,7
 298 318 298 318 331 332 c 0,8,9
 365 347 365 347 389 371 c 0,10,11
 411 395 411 395 423 425 c 128,-1,12
 435 455 435 455 435 487 c 0,13,14
 435 517 435 517 423 546 c 0,15,16
 412 574 412 574 390 598 c 0,17,18
 367 620 367 620 333 633 c 0,19,20
 300 647 300 647 253 647 c 2,21,-1
 223 647 l 1,0,-1
274 269 m 2,22,-1
 246 270 l 1,23,-1
 220 273 l 1,24,-1
 223 106 l 1,25,-1
 225 63 l 1,26,-1
 227 36 l 1,27,-1
 232 18 l 1,28,-1
 238 0 l 1,29,-1
 228 -5 l 1,30,-1
 194 -10 l 1,31,32
 154 -10 154 -10 129 8 c 128,-1,33
 104 26 104 26 104 73 c 2,34,-1
 104 368 l 1,35,-1
 102 489 l 1,36,-1
 99 595 l 1,37,-1
 95 653 l 1,38,-1
 92 685 l 1,39,-1
 89 703 l 1,40,-1
 110 701 l 1,41,-1
 131 700 l 1,42,-1
 151 700 l 1,43,-1
 293 700 l 2,44,45
 360 700 360 700 408 683 c 0,46,47
 457 665 457 665 489 637 c 0,48,49
 520 609 520 609 534 572 c 0,50,51
 550 534 550 534 550 496 c 0,52,53
 550 440 550 440 526 398 c 0,54,55
 501 355 501 355 462 326 c 0,56,57
 423 298 423 298 373 283 c 0,58,59
 323 269 323 269 274 269 c 2,22,-1
EndSplineSet
EndChar

StartChar: uni0051
Encoding: 81 81 52
Width: 821
GlyphClass: 1
Flags: W
LayerCount: 2
Fore
SplineSet
178 352 m 0,0,1
 178 290 178 290 197 234 c 0,2,3
 214 180 214 180 245 139 c 0,4,5
 277 98 277 98 318 74 c 0,6,7
 360 51 360 51 407 51 c 128,-1,8
 454 51 454 51 495 74 c 0,9,10
 537 98 537 98 567 139 c 128,-1,11
 597 180 597 180 616 234 c 0,12,13
 633 290 633 290 633 352 c 0,14,15
 633 413 633 413 616 469 c 0,16,17
 597 524 597 524 567 565 c 128,-1,18
 537 606 537 606 495 629 c 0,19,20
 454 653 454 653 407 653 c 128,-1,21
 360 653 360 653 318 629 c 0,22,23
 277 606 277 606 245 565 c 0,24,25
 214 524 214 524 197 469 c 0,26,27
 178 413 178 413 178 352 c 0,0,1
756 353 m 0,28,29
 756 281 756 281 734 219 c 0,30,31
 711 156 711 156 669 109 c 0,32,33
 626 62 626 62 566 31 c 0,34,35
 504 0 504 0 428 -8 c 1,36,37
 452 -31 452 -31 484 -54 c 0,38,39
 516 -76 516 -76 556 -93 c 0,40,41
 595 -109 595 -109 640 -119 c 1,42,-1
 735 -129 l 1,43,-1
 772 -126 l 1,44,-1
 810 -116 l 1,45,-1
 844 -101 l 2,46,47
 861 -91 861 -91 871 -77 c 1,48,-1
 879 -107 l 1,49,-1
 881 -133 l 2,50,51
 881 -158 881 -158 868 -176 c 128,-1,52
 855 -194 855 -194 834 -205 c 2,53,-1
 787 -222 l 1,54,-1
 736 -228 l 1,55,-1
 640 -218 l 1,56,57
 586 -207 586 -207 534 -183 c 0,58,59
 481 -157 481 -157 436 -115 c 128,-1,60
 391 -73 391 -73 370 -11 c 1,61,62
 300 -10 300 -10 243 16 c 0,63,64
 185 40 185 40 144 86 c 0,65,66
 102 132 102 132 79 197 c 0,67,68
 56 264 56 264 56 347 c 0,69,70
 56 422 56 422 83 488 c 0,71,72
 112 554 112 554 161 604 c 0,73,74
 212 653 212 653 283 682 c 0,75,76
 352 710 352 710 436 710 c 0,77,78
 506 710 506 710 566 688 c 0,79,80
 625 665 625 665 668 620 c 0,81,82
 710 574 710 574 733 508 c 0,83,84
 756 441 756 441 756 353 c 0,28,29
EndSplineSet
EndChar

StartChar: uni0052
Encoding: 82 82 53
Width: 657
GlyphClass: 1
Flags: W
LayerCount: 2
Fore
SplineSet
222 373 m 1,0,-1
 265 363 l 1,1,-1
 308 361 l 1,2,-1
 360 368 l 1,3,4
 384 376 384 376 403 392 c 0,5,6
 420 408 420 408 431 435 c 0,7,8
 442 461 442 461 442 499 c 0,9,10
 442 529 442 529 432 556 c 128,-1,11
 422 583 422 583 401 603 c 0,12,13
 378 623 378 623 343 635 c 1,14,-1
 256 647 l 1,15,-1
 226 647 l 1,16,-1
 224 579 l 1,17,-1
 222 506 l 1,18,-1
 222 436 l 1,19,-1
 222 373 l 1,0,-1
107 277 m 1,20,-1
 106 353 l 1,21,-1
 105 444 l 1,22,-1
 104 530 l 1,23,-1
 102 595 l 1,24,-1
 98 653 l 1,25,-1
 95 685 l 1,26,-1
 92 702 l 1,27,-1
 116 701 l 1,28,-1
 142 700 l 1,29,-1
 171 700 l 1,30,-1
 295 700 l 2,31,32
 359 700 359 700 405 686 c 128,-1,33
 451 672 451 672 483 648 c 0,34,35
 514 623 514 623 529 590 c 128,-1,36
 544 557 544 557 544 520 c 0,37,38
 544 488 544 488 532 454 c 0,39,40
 520 421 520 421 498 394 c 0,41,42
 478 367 478 367 451 350 c 0,43,44
 422 333 422 333 392 333 c 1,45,-1
 414 318 l 1,46,-1
 434 300 l 1,47,-1
 452 276 l 1,48,-1
 474 246 l 1,49,50
 516 174 516 174 545 128 c 2,51,-1
 595 56 l 1,52,-1
 629 17 l 1,53,-1
 655 0 l 1,54,-1
 631 -5 l 1,55,-1
 565 -10 l 1,56,-1
 523 -6 l 2,57,58
 506 -2 506 -2 494 8 c 0,59,60
 482 17 482 17 471 33 c 2,61,-1
 446 75 l 1,62,-1
 411 137 l 1,63,-1
 361 220 l 1,64,-1
 335 257 l 1,65,-1
 307 288 l 1,66,-1
 270 312 l 1,67,-1
 222 325 l 1,68,-1
 222 316 l 1,69,-1
 223 284 l 1,70,-1
 224 223 l 1,71,-1
 226 143 l 1,72,-1
 227 58 l 2,73,74
 227 17 227 17 207 4 c 0,75,76
 188 -10 188 -10 161 -10 c 2,77,-1
 129 -7 l 1,78,-1
 93 0 l 1,79,-1
 97 10 l 1,80,-1
 102 47 l 1,81,-1
 105 130 l 1,82,-1
 107 277 l 1,20,-1
EndSplineSet
EndChar

StartChar: uni0053
Encoding: 83 83 54
Width: 589
GlyphClass: 1
Flags: W
LayerCount: 2
Fore
SplineSet
51 139 m 1,0,-1
 55 171 l 1,1,-1
 82 139 l 2,2,3
 100 120 100 120 128 103 c 0,4,5
 155 85 155 85 194 72 c 0,6,7
 232 60 232 60 280 60 c 1,8,-1
 337 68 l 1,9,10
 364 77 364 77 382 90 c 1,11,-1
 410 121 l 1,12,13
 420 139 420 139 420 156 c 0,14,15
 420 191 420 191 397 217 c 0,16,17
 373 243 373 243 335 262 c 2,18,-1
 173 342 l 2,19,20
 119 369 119 369 86 404 c 0,21,22
 54 441 54 441 54 497 c 0,23,24
 54 549 54 549 75 589 c 0,25,26
 97 629 97 629 133 656 c 0,27,28
 168 683 168 683 214 697 c 1,29,-1
 311 710 l 1,30,-1
 386 702 l 1,31,-1
 451 682 l 1,32,-1
 497 652 l 1,33,34
 515 634 515 634 515 615 c 0,35,36
 515 595 515 595 501 577 c 2,37,-1
 457 533 l 1,38,39
 452 564 452 564 435 586 c 0,40,41
 416 608 416 608 393 621 c 0,42,43
 368 635 368 635 343 641 c 2,44,-1
 298 647 l 1,45,-1
 246 638 l 1,46,47
 222 628 222 628 205 614 c 1,48,-1
 178 581 l 2,49,50
 168 563 168 563 168 545 c 0,51,52
 168 516 168 516 196 486 c 0,53,54
 223 456 223 456 274 432 c 2,55,-1
 401 371 l 1,56,-1
 457 339 l 1,57,-1
 501 301 l 2,58,59
 520 280 520 280 530 253 c 128,-1,60
 540 226 540 226 540 190 c 0,61,62
 540 145 540 145 521 108 c 0,63,64
 501 71 501 71 467 45 c 0,65,66
 434 18 434 18 388 4 c 128,-1,67
 342 -10 342 -10 291 -10 c 1,68,-1
 220 -4 l 2,69,70
 178 3 178 3 141 20 c 128,-1,71
 104 37 104 37 77 65 c 0,72,73
 51 94 51 94 51 139 c 1,0,-1
EndSplineSet
EndChar

StartChar: uni0054
Encoding: 84 84 55
Width: 599
GlyphClass: 1
Flags: W
LayerCount: 2
Fore
SplineSet
558 628 m 2,0,-1
 499 629 l 1,1,-1
 437 629 l 1,2,-1
 365 630 l 1,3,-1
 362 395 l 1,4,-1
 363 255 l 1,5,-1
 366 106 l 1,6,-1
 368 63 l 1,7,-1
 369 36 l 1,8,-1
 374 18 l 1,9,-1
 381 0 l 1,10,-1
 370 -5 l 1,11,-1
 336 -10 l 1,12,-1
 299 -6 l 2,13,14
 283 -2 283 -2 269 8 c 0,15,16
 256 18 256 18 248 34 c 0,17,18
 242 50 242 50 242 73 c 2,19,-1
 243 213 l 1,20,-1
 246 368 l 2,21,22
 246 522 246 522 238 629 c 1,23,-1
 237 631 l 1,24,-1
 178 632 l 1,25,-1
 133 632 l 1,26,-1
 64 628 l 1,27,-1
 17 623 l 1,28,-1
 15 636 l 1,29,-1
 14 648 l 1,30,-1
 14 662 l 1,31,-1
 19 691 l 2,32,33
 23 705 23 705 37 705 c 2,34,-1
 211 701 l 1,35,-1
 283 701 l 1,36,-1
 352 700 l 1,37,-1
 413 700 l 1,38,-1
 459 700 l 1,39,-1
 526 703 l 1,40,-1
 569 710 l 1,41,-1
 571 694 l 1,42,-1
 572 678 l 1,43,-1
 573 660 l 1,44,-1
 570 637 l 2,45,46
 567 628 567 628 558 628 c 2,0,-1
EndSplineSet
EndChar

StartChar: uni0055
Encoding: 85 85 56
Width: 749
GlyphClass: 1
Flags: W
LayerCount: 2
Fore
SplineSet
658 310 m 2,0,1
 658 158 658 158 588 74 c 128,-1,2
 518 -10 518 -10 372 -10 c 0,3,4
 312 -10 312 -10 262 8 c 0,5,6
 211 25 211 25 175 63 c 128,-1,7
 139 101 139 101 119 160 c 0,8,9
 99 220 99 220 99 304 c 2,10,-1
 99 368 l 1,11,-1
 97 454 l 1,12,-1
 96 537 l 1,13,-1
 94 595 l 1,14,-1
 91 652 l 1,15,-1
 87 684 l 1,16,-1
 84 701 l 1,17,-1
 113 707 l 1,18,-1
 139 710 l 2,19,20
 173 710 173 710 196 694 c 0,21,22
 218 677 218 677 218 648 c 2,23,-1
 218 578 l 1,24,-1
 217 485 l 1,25,-1
 217 389 l 1,26,-1
 216 312 l 2,27,28
 216 187 216 187 266 122 c 0,29,30
 316 58 316 58 401 58 c 128,-1,31
 486 58 486 58 534 122 c 0,32,33
 582 187 582 187 582 312 c 2,34,-1
 582 397 l 1,35,-1
 582 463 l 1,36,-1
 582 525 l 1,37,-1
 580 595 l 1,38,-1
 576 652 l 1,39,-1
 573 684 l 1,40,-1
 570 701 l 1,41,-1
 592 707 l 1,42,-1
 615 710 l 1,43,44
 648 710 648 710 656 694 c 0,45,46
 664 677 664 677 664 648 c 2,47,-1
 662 570 l 1,48,-1
 660 478 l 1,49,-1
 658 386 l 1,50,-1
 658 310 l 2,0,1
EndSplineSet
EndChar

StartChar: uni0056
Encoding: 86 86 57
Width: 665
GlyphClass: 1
Flags: W
LayerCount: 2
Fore
SplineSet
368 110 m 1,0,-1
 448 347 l 1,1,-1
 498 512 l 1,2,-1
 532 618 l 2,3,4
 545 658 545 658 558 679 c 128,-1,5
 571 700 571 700 586 706 c 2,6,-1
 626 713 l 1,7,-1
 648 711 l 1,8,-1
 661 707 l 1,9,-1
 668 700 l 1,10,-1
 643 673 l 1,11,-1
 617 632 l 1,12,-1
 588 568 l 1,13,-1
 379 -16 l 1,14,15
 349 -13 349 -13 321 2 c 0,16,17
 298 14 298 14 275 37 c 0,18,19
 251 61 251 61 237 106 c 2,20,-1
 214 179 l 1,21,-1
 186 269 l 1,22,-1
 153 364 l 1,23,-1
 121 459 l 1,24,-1
 89 544 l 1,25,-1
 61 612 l 1,26,-1
 42 652 l 1,27,-1
 28 678 l 1,28,-1
 18 694 l 1,29,-1
 8 700 l 1,30,-1
 27 707 l 1,31,-1
 51 711 l 1,32,-1
 84 713 l 2,33,34
 119 713 119 713 148 697 c 0,35,36
 176 680 176 680 185 648 c 2,37,-1
 204 577 l 1,38,-1
 232 489 l 1,39,-1
 265 393 l 1,40,-1
 300 292 l 1,41,-1
 336 195 l 1,42,-1
 368 110 l 1,0,-1
EndSplineSet
EndChar

StartChar: uni0057
Encoding: 87 87 58
Width: 1007
GlyphClass: 1
Flags: W
LayerCount: 2
Fore
SplineSet
710 110 m 1,0,-1
 789 347 l 1,1,-1
 840 512 l 1,2,-1
 874 618 l 2,3,4
 888 658 888 658 900 679 c 128,-1,5
 912 700 912 700 928 706 c 2,6,-1
 969 713 l 1,7,-1
 991 711 l 1,8,-1
 1002 707 l 1,9,-1
 1011 700 l 1,10,-1
 985 673 l 1,11,-1
 959 632 l 1,12,-1
 931 568 l 1,13,-1
 722 -16 l 1,14,15
 690 -13 690 -13 661 2 c 0,16,17
 638 14 638 14 613 37 c 0,18,19
 588 61 588 61 574 106 c 2,20,-1
 541 216 l 1,21,-1
 507 327 l 1,22,23
 504 300 504 300 489 256 c 2,24,-1
 454 163 l 1,25,-1
 415 67 l 2,26,27
 396 20 396 20 387 -16 c 1,28,29
 355 -13 355 -13 325 2 c 1,30,-1
 275 37 l 1,31,32
 251 61 251 61 237 106 c 2,33,-1
 214 179 l 1,34,-1
 186 269 l 1,35,-1
 153 364 l 1,36,-1
 121 459 l 1,37,-1
 89 544 l 1,38,-1
 61 612 l 1,39,-1
 42 652 l 1,40,-1
 28 678 l 1,41,-1
 18 694 l 1,42,-1
 8 700 l 1,43,-1
 26 705 l 1,44,-1
 41 709 l 1,45,-1
 61 712 l 1,46,-1
 89 713 l 2,47,48
 124 713 124 713 152 697 c 0,49,50
 182 680 182 680 189 648 c 2,51,-1
 209 577 l 1,52,-1
 236 489 l 1,53,-1
 270 393 l 1,54,-1
 306 292 l 1,55,-1
 341 195 l 1,56,-1
 373 110 l 1,57,-1
 401 186 l 1,58,-1
 432 269 l 1,59,-1
 457 352 l 2,60,61
 469 392 469 392 469 425 c 1,62,-1
 465 454 l 1,63,-1
 460 478 l 1,64,-1
 451 512 l 1,65,-1
 435 546 l 1,66,-1
 412 571 l 1,67,-1
 451 579 l 1,68,-1
 493 583 l 1,69,70
 562 583 562 583 578 518 c 2,71,-1
 633 327 l 2,72,73
 664 227 664 227 710 110 c 1,0,-1
EndSplineSet
EndChar

StartChar: uni0058
Encoding: 88 88 59
Width: 674
GlyphClass: 1
Flags: W
LayerCount: 2
Fore
SplineSet
683 0 m 1,0,-1
 657 -5 l 1,1,-1
 629 -9 l 1,2,-1
 592 -10 l 1,3,-1
 534 -3 l 2,4,5
 509 4 509 4 487 19 c 0,6,7
 466 33 466 33 447 56 c 2,8,-1
 410 111 l 1,9,-1
 335 248 l 1,10,11
 280 178 280 178 248 129 c 2,12,-1
 191 49 l 2,13,14
 169 18 169 18 150 4 c 0,15,16
 132 -10 132 -10 106 -10 c 2,17,-1
 51 -5 l 1,18,-1
 32 0 l 1,19,20
 45 0 45 0 63 16 c 2,21,-1
 106 57 l 1,22,-1
 155 116 l 1,23,-1
 206 185 l 1,24,-1
 254 254 l 1,25,-1
 297 316 l 1,26,-1
 248 402 l 1,27,-1
 201 483 l 1,28,-1
 159 554 l 1,29,-1
 125 612 l 1,30,-1
 77 676 l 2,31,32
 58 696 58 696 41 700 c 1,33,-1
 85 709 l 1,34,-1
 142 713 l 2,35,36
 180 713 180 713 211 697 c 0,37,38
 241 680 241 680 259 648 c 2,39,-1
 305 556 l 1,40,-1
 370 438 l 1,41,-1
 449 558 l 1,42,-1
 510 651 l 2,43,44
 528 683 528 683 551 698 c 0,45,46
 573 713 573 713 617 713 c 1,47,-1
 643 710 l 1,48,-1
 664 706 l 1,49,-1
 683 700 l 1,50,51
 664 692 664 692 641 672 c 2,52,-1
 593 624 l 1,53,-1
 543 563 l 1,54,-1
 493 496 l 1,55,-1
 448 429 l 1,56,-1
 409 371 l 1,57,-1
 480 251 l 1,58,-1
 544 151 l 1,59,-1
 570 112 l 1,60,-1
 607 62 l 1,61,-1
 647 19 l 2,62,63
 668 0 668 0 683 0 c 1,0,-1
EndSplineSet
EndChar

StartChar: uni0059
Encoding: 89 89 60
Width: 648
GlyphClass: 1
Flags: W
LayerCount: 2
Fore
SplineSet
391 315 m 1,0,-1
 392 284 l 1,1,-1
 393 223 l 1,2,-1
 395 143 l 1,3,-1
 396 58 l 2,4,5
 396 17 396 17 376 4 c 0,6,7
 357 -10 357 -10 330 -10 c 2,8,-1
 298 -7 l 1,9,-1
 262 0 l 1,10,-1
 266 6 l 1,11,-1
 270 34 l 1,12,-1
 273 109 l 1,13,-1
 274 253 l 1,14,-1
 274 275 l 1,15,-1
 273 301 l 1,16,-1
 270 326 l 1,17,-1
 264 347 l 1,18,-1
 219 403 l 1,19,-1
 164 488 l 1,20,-1
 109 577 l 1,21,-1
 65 648 l 1,22,-1
 48 668 l 1,23,-1
 31 685 l 1,24,-1
 12 700 l 1,25,-1
 31 706 l 1,26,-1
 55 710 l 1,27,-1
 88 713 l 1,28,-1
 140 707 l 1,29,30
 161 700 161 700 176 690 c 1,31,-1
 202 662 l 1,32,-1
 224 629 l 1,33,-1
 256 572 l 1,34,-1
 292 512 l 1,35,-1
 330 452 l 1,36,-1
 367 400 l 1,37,-1
 432 498 l 1,38,-1
 478 578 l 1,39,-1
 512 638 l 1,40,-1
 543 680 l 2,41,42
 560 697 560 697 579 705 c 1,43,-1
 625 713 l 1,44,-1
 642 710 l 1,45,-1
 654 706 l 1,46,-1
 663 700 l 1,47,-1
 639 682 l 1,48,-1
 616 661 l 1,49,-1
 593 635 l 1,50,-1
 563 594 l 1,51,-1
 524 537 l 1,52,-1
 482 475 l 1,53,-1
 442 413 l 1,54,-1
 410 361 l 1,55,-1
 391 329 l 1,56,-1
 391 315 l 1,0,-1
EndSplineSet
EndChar

StartChar: uni005A
Encoding: 90 90 61
Width: 601
GlyphClass: 1
Flags: W
LayerCount: 2
Fore
SplineSet
237 116 m 1,0,-1
 219 86 l 1,1,-1
 199 60 l 1,2,-1
 214 63 l 1,3,-1
 233 65 l 1,4,-1
 258 67 l 1,5,-1
 485 71 l 2,6,7
 529 71 529 71 547 51 c 0,8,9
 566 29 566 29 566 -15 c 1,10,-1
 505 -7 l 1,11,-1
 420 -3 l 2,12,13
 366 0 366 0 287 0 c 2,14,-1
 55 0 l 1,15,-1
 54 13 l 1,16,-1
 54 24 l 1,17,-1
 57 52 l 1,18,-1
 67 82 l 1,19,-1
 108 148 l 1,20,-1
 164 245 l 1,21,-1
 227 357 l 1,22,-1
 289 469 l 1,23,-1
 344 569 l 1,24,-1
 380 642 l 1,25,-1
 359 638 l 1,26,-1
 338 635 l 1,27,-1
 316 634 l 1,28,-1
 119 630 l 2,29,30
 76 630 76 630 59 651 c 0,31,32
 40 670 40 670 40 714 c 1,33,-1
 97 707 l 1,34,-1
 176 702 l 1,35,-1
 300 700 l 1,36,-1
 534 700 l 1,37,-1
 534 684 l 1,38,-1
 531 653 l 2,39,40
 529 633 529 633 516 614 c 2,41,-1
 462 528 l 1,42,-1
 407 434 l 1,43,-1
 354 339 l 1,44,-1
 306 250 l 1,45,-1
 266 173 l 1,46,-1
 237 116 l 1,0,-1
EndSplineSet
EndChar

StartChar: uni005B
Encoding: 91 91 62
Width: 342
GlyphClass: 1
Flags: W
LayerCount: 2
Fore
SplineSet
136 -155 m 1,0,-1
 108 -150 l 2,1,2
 93 -147 93 -147 93 -132 c 2,3,-1
 95 195 l 1,4,-1
 96 322 l 1,5,-1
 97 442 l 1,6,-1
 98 537 l 1,7,-1
 98 596 l 1,8,-1
 93 700 l 1,9,-1
 310 700 l 1,10,-1
 313 687 l 1,11,-1
 314 666 l 2,12,13
 314 637 314 637 300 636 c 2,14,-1
 169 636 l 1,15,-1
 168 536 l 1,16,-1
 167 407 l 1,17,-1
 167 268 l 1,18,-1
 166 136 l 1,19,-1
 166 26 l 1,20,-1
 166 -41 l 1,21,-1
 166 -87 l 1,22,-1
 310 -87 l 1,23,-1
 313 -100 l 1,24,-1
 314 -119 l 1,25,-1
 311 -144 l 1,26,-1
 300 -155 l 1,27,-1
 136 -155 l 1,0,-1
EndSplineSet
EndChar

StartChar: uni005C
Encoding: 92 92 63
Width: 286
GlyphClass: 1
Flags: W
LayerCount: 2
Fore
SplineSet
104 692 m 1,0,-1
 161 363 l 1,1,-1
 184 235 l 1,2,-1
 205 117 l 1,3,-1
 221 21 l 1,4,-1
 232 -39 l 1,5,-1
 246 -106 l 1,6,-1
 258 -152 l 1,7,-1
 253 -154 l 1,8,-1
 240 -157 l 1,9,-1
 223 -161 l 1,10,-1
 206 -163 l 1,11,-1
 189 -160 l 1,12,-1
 178 -149 l 1,13,-1
 177 -147 l 1,14,-1
 120 181 l 1,15,-1
 98 309 l 1,16,-1
 78 427 l 1,17,-1
 62 522 l 1,18,-1
 52 581 l 1,19,-1
 39 647 l 1,20,-1
 27 688 l 1,21,-1
 32 689 l 1,22,-1
 46 694 l 1,23,-1
 64 699 l 1,24,-1
 88 701 l 1,25,-1
 99 699 l 1,26,-1
 104 692 l 1,0,-1
EndSplineSet
EndChar

StartChar: uni005D
Encoding: 93 93 64
Width: 341
GlyphClass: 1
Flags: W
LayerCount: 2
Fore
SplineSet
43 -155 m 2,0,1
 34 -154 34 -154 31 -144 c 0,2,3
 28 -133 28 -133 28 -119 c 2,4,-1
 29 -100 l 1,5,-1
 32 -87 l 1,6,-1
 177 -87 l 1,7,-1
 177 -41 l 1,8,-1
 177 27 l 1,9,-1
 176 136 l 1,10,-1
 176 268 l 1,11,-1
 175 407 l 1,12,-1
 174 536 l 1,13,-1
 174 636 l 1,14,-1
 43 636 l 2,15,16
 28 637 28 637 28 666 c 2,17,-1
 29 687 l 1,18,-1
 32 700 l 1,19,-1
 249 700 l 1,20,21
 244 672 244 672 244 596 c 2,22,-1
 244 537 l 1,23,-1
 245 442 l 1,24,-1
 246 322 l 1,25,-1
 246 195 l 1,26,-1
 249 -132 l 2,27,28
 249 -147 249 -147 235 -150 c 2,29,-1
 206 -155 l 1,30,-1
 43 -155 l 2,0,1
EndSplineSet
EndChar

StartChar: asciicircum
Encoding: 94 94 65
Width: 493
GlyphClass: 2
Flags: W
LayerCount: 2
Fore
SplineSet
62 384 m 2,0,-1
 38 401 l 1,1,2
 70 439 70 439 208 698 c 0,3,4
 209 699 209 699 209 700 c 0,5,6
 216 712 216 712 238 712 c 0,7,8
 257 712 257 712 268.5 706 c 128,-1,9
 280 700 280 700 289 684 c 0,10,11
 290 682 290 682 298 667 c 0,12,13
 425 432 425 432 454 398 c 1,14,-1
 432 380 l 2,15,16
 409 363 409 363 393 363 c 0,17,18
 386 363 386 363 383 368 c 2,19,-1
 332 464 l 2,20,21
 280 560 280 560 247 615 c 1,22,-1
 242 615 l 1,23,24
 201 542 201 542 155 456 c 2,25,-1
 109 371 l 2,26,27
 106 366 106 366 99 366 c 0,28,29
 85 366 85 366 62 384 c 2,0,-1
EndSplineSet
EndChar

StartChar: uni005F
Encoding: 95 95 66
Width: 611
GlyphClass: 1
Flags: W
LayerCount: 2
Fore
SplineSet
565 -106 m 2,0,-1
 394 -105 l 1,1,-1
 324 -104 l 1,2,-1
 256 -103 l 1,3,-1
 194 -103 l 1,4,-1
 147 -103 l 1,5,-1
 79 -104 l 1,6,-1
 31 -106 l 1,7,-1
 29 -96 l 1,8,-1
 28 -85 l 1,9,-1
 28 -72 l 2,10,11
 28 -57 28 -57 33 -43 c 128,-1,12
 38 -29 38 -29 51 -29 c 2,13,-1
 222 -32 l 1,14,-1
 292 -33 l 1,15,-1
 360 -34 l 1,16,-1
 421 -34 l 1,17,-1
 467 -34 l 1,18,-1
 533 -33 l 1,19,-1
 576 -29 l 1,20,-1
 578 -42 l 1,21,-1
 579 -57 l 1,22,-1
 580 -74 l 1,23,-1
 577 -97 l 2,24,25
 573 -106 573 -106 565 -106 c 2,0,-1
EndSplineSet
EndChar

StartChar: uni0060
Encoding: 96 96 67
Width: 400
GlyphClass: 1
Flags: W
LayerCount: 2
Fore
SplineSet
307 575 m 1,0,-1
 292 572 l 1,1,-1
 276 571 l 2,2,3
 255 571 255 571 225 582 c 0,4,5
 196 593 196 593 169 611 c 0,6,7
 141 629 141 629 120 653 c 0,8,9
 98 676 98 676 92 701 c 1,10,-1
 110 725 l 1,11,-1
 134 742 l 1,12,-1
 170 749 l 1,13,-1
 184 719 l 1,14,-1
 212 671 l 1,15,-1
 253 620 l 2,16,17
 276 594 276 594 307 575 c 1,0,-1
EndSplineSet
EndChar

StartChar: uni0061
Encoding: 97 97 68
Width: 505
GlyphClass: 1
Flags: W
LayerCount: 2
Fore
SplineSet
162 -15 m 1,0,1
 129 -15 129 -15 105 -3 c 0,2,3
 81 8 81 8 66 26 c 0,4,5
 52 45 52 45 44 68 c 0,6,7
 36 93 36 93 36 119 c 0,8,9
 36 173 36 173 64 208 c 0,10,11
 93 244 93 244 135 265 c 128,-1,12
 177 286 177 286 226 294 c 2,13,-1
 316 304 l 1,14,-1
 316 318 l 1,15,-1
 313 366 l 1,16,-1
 298 411 l 1,17,-1
 266 444 l 1,18,19
 244 456 244 456 210 456 c 0,20,21
 174 456 174 456 138 438 c 0,22,23
 101 420 101 420 76 392 c 1,24,25
 77 421 77 421 93 444 c 0,26,27
 108 465 108 465 134 480 c 0,28,29
 158 495 158 495 189 503 c 1,30,-1
 252 511 l 1,31,32
 310 511 310 511 343 495 c 0,33,34
 377 480 377 480 395 455 c 0,35,36
 412 431 412 431 417 401 c 2,37,-1
 422 339 l 1,38,-1
 420 253 l 1,39,-1
 418 164 l 1,40,-1
 420 117 l 1,41,-1
 426 75 l 2,42,43
 431 57 431 57 438 46 c 0,44,45
 445 34 445 34 458 34 c 0,46,47
 478 34 478 34 505 56 c 1,48,49
 505 43 505 43 497 31 c 2,50,-1
 475 10 l 2,51,52
 460 1 460 1 441 -5 c 2,53,-1
 400 -10 l 1,54,-1
 367 -5 l 2,55,56
 352 0 352 0 339 10 c 0,57,58
 327 19 327 19 320 33 c 0,59,60
 314 47 314 47 317 65 c 1,61,-1
 316 66 l 1,62,-1
 293 37 l 2,63,64
 277 21 277 21 256 11 c 0,65,66
 235 0 235 0 211 -8 c 1,67,-1
 162 -15 l 1,0,1
313 87 m 1,68,-1
 313 127 l 1,69,-1
 314 176 l 1,70,-1
 314 226 l 1,71,-1
 316 269 l 1,72,-1
 269 260 l 1,73,-1
 209 240 l 1,74,75
 181 226 181 226 159 202 c 0,76,77
 138 178 138 178 138 138 c 1,78,-1
 142 109 l 1,79,-1
 156 84 l 2,80,81
 165 73 165 73 180 65 c 0,82,83
 194 59 194 59 213 59 c 2,84,-1
 240 62 l 1,85,-1
 269 68 l 1,86,-1
 294 77 l 1,87,-1
 313 87 l 1,68,-1
EndSplineSet
EndChar

StartChar: uni0062
Encoding: 98 98 69
Width: 572
GlyphClass: 1
Flags: W
LayerCount: 2
Fore
SplineSet
181 417 m 1,0,1
 209 467 209 467 259 488 c 0,2,3
 309 508 309 508 365 508 c 0,4,5
 411 508 411 508 442 488 c 0,6,7
 473 470 473 470 492 440 c 0,8,9
 512 409 512 409 521 372 c 1,10,-1
 529 297 l 1,11,12
 529 231 529 231 512 175 c 0,13,14
 494 118 494 118 458 77 c 0,15,16
 422 37 422 37 368 14 c 0,17,18
 313 -9 313 -9 239 -9 c 1,19,-1
 179 -4 l 2,20,21
 149 2 149 2 127 13 c 0,22,23
 104 23 104 23 91 39 c 0,24,25
 77 55 77 55 77 76 c 2,26,-1
 78 156 l 1,27,-1
 79 233 l 1,28,-1
 79 345 l 1,29,-1
 78 458 l 1,30,-1
 78 511 l 1,31,-1
 77 573 l 1,32,-1
 75 637 l 1,33,-1
 71 695 l 1,34,-1
 65 739 l 1,35,-1
 56 761 l 1,36,-1
 133 753 l 1,37,38
 160 745 160 745 173 726 c 128,-1,39
 186 707 186 707 188 676 c 2,40,-1
 191 597 l 1,41,-1
 190 566 l 1,42,-1
 189 530 l 1,43,-1
 186 495 l 1,44,-1
 184 464 l 1,45,-1
 181 434 l 2,46,47
 178 422 178 422 181 417 c 1,0,1
191 385 m 1,48,49
 186 356 186 356 184 326 c 2,50,-1
 183 268 l 1,51,-1
 184 178 l 2,52,53
 185 133 185 133 191 87 c 0,54,55
 195 58 195 58 215 46 c 0,56,57
 234 34 234 34 253 34 c 0,58,59
 296 34 296 34 327 55 c 0,60,61
 357 75 357 75 377 107 c 0,62,63
 397 141 397 141 407 183 c 1,64,-1
 416 266 l 2,65,66
 416 303 416 303 409 337 c 2,67,-1
 390 399 l 1,68,69
 376 426 376 426 356 442 c 0,70,71
 337 458 337 458 313 458 c 1,72,-1
 280 451 l 1,73,-1
 246 435 l 1,74,-1
 215 411 l 1,75,-1
 191 385 l 1,48,49
EndSplineSet
EndChar

StartChar: uni0063
Encoding: 99 99 70
Width: 522
GlyphClass: 1
Flags: W
LayerCount: 2
Fore
SplineSet
300 510 m 1,0,-1
 360 505 l 1,1,-1
 411 492 l 1,2,-1
 445 471 l 1,3,4
 458 457 458 457 458 441 c 1,5,-1
 449 410 l 1,6,-1
 417 374 l 1,7,8
 414 397 414 397 401 412 c 2,9,-1
 370 438 l 1,10,-1
 335 452 l 1,11,-1
 303 456 l 1,12,13
 265 456 265 456 235 440 c 0,14,15
 206 422 206 422 187 396 c 0,16,17
 166 368 166 368 156 335 c 0,18,19
 146 303 146 303 146 272 c 0,20,21
 146 224 146 224 161 185 c 128,-1,22
 176 146 176 146 202 118 c 0,23,24
 228 91 228 91 261 76 c 128,-1,25
 294 61 294 61 330 61 c 0,26,27
 370 61 370 61 407 80 c 0,28,29
 443 99 443 99 474 141 c 1,30,31
 474 100 474 100 455 71 c 0,32,33
 437 43 437 43 407 24 c 0,34,35
 378 7 378 7 343 -2 c 1,36,-1
 273 -10 l 1,37,38
 214 -10 214 -10 171 13 c 0,39,40
 127 35 127 35 99 70 c 0,41,42
 69 105 69 105 55 148 c 0,43,44
 40 191 40 191 40 233 c 0,45,46
 40 286 40 286 59 335 c 0,47,48
 76 385 76 385 110 424 c 0,49,50
 145 463 145 463 192 487 c 0,51,52
 240 510 240 510 300 510 c 1,0,-1
EndSplineSet
EndChar

StartChar: uni0064
Encoding: 100 100 71
Width: 596
GlyphClass: 1
Flags: W
LayerCount: 2
Fore
SplineSet
361 99 m 128,-1,1
 388 149 388 149 390 213 c 0,2,3
 390 219 390 219 391 233 c 0,4,5
 393 307 393 307 393 335 c 2,6,-1
 393 428 l 2,7,8
 393 449 393 449 374.5 456.5 c 128,-1,9
 356 464 356 464 324 464 c 0,10,11
 249 464 249 464 206.5 397.5 c 128,-1,12
 164 331 164 331 164 240 c 0,13,14
 164 169 164 169 189 109 c 128,-1,15
 214 49 214 49 275 49 c 0,16,0
 334 49 334 49 361 99 c 128,-1,1
119.5 429.5 m 128,-1,18
 195 511 195 511 338 511 c 0,19,20
 364 511 364 511 392 506 c 1,21,22
 392 567 392 567 388 645 c 0,23,24
 386 686 386 686 382 711 c 128,-1,25
 378 736 378 736 374 746 c 2,26,-1
 370 757 l 1,27,-1
 373 761 l 1,28,29
 433 760 433 760 467.5 744.5 c 128,-1,30
 502 729 502 729 502 687 c 0,31,32
 502 642 502 642 500 548 c 0,33,34
 497 438 497 438 497 375 c 0,35,36
 497 254 497 254 502 107 c 0,37,38
 504 41 504 41 547 41 c 0,39,40
 560 41 560 41 572 48 c 2,41,-1
 585 55 l 1,42,-1
 589 52 l 1,43,-1
 582 42 l 2,44,45
 576 31 576 31 563.5 19 c 128,-1,46
 551 7 551 7 529.5 -1.5 c 128,-1,47
 508 -10 508 -10 478 -10 c 0,48,49
 442 -10 442 -10 418 6.5 c 128,-1,50
 394 23 394 23 393 62 c 1,51,-1
 389 64 l 1,52,-1
 380 50 l 2,53,54
 370 37 370 37 351.5 22 c 128,-1,55
 333 7 333 7 303 -4 c 128,-1,56
 273 -15 273 -15 233 -15 c 0,57,58
 147 -15 147 -15 95.5 48.5 c 128,-1,59
 44 112 44 112 44 215 c 0,60,17
 44 348 44 348 119.5 429.5 c 128,-1,18
EndSplineSet
EndChar

StartChar: uni0065
Encoding: 101 101 72
Width: 514
GlyphClass: 1
Flags: W
LayerCount: 2
Fore
SplineSet
458 141 m 1,0,-1
 457 130 l 1,1,-1
 451 104 l 1,2,-1
 436 69 l 2,3,4
 425 51 425 51 405 35 c 0,5,6
 377 12 377 12 337 1 c 1,7,-1
 258 -10 l 1,8,9
 205 -10 205 -10 165 11 c 0,10,11
 125 31 125 31 99 64 c 0,12,13
 71 98 71 98 58 142 c 0,14,15
 43 185 43 185 43 231 c 0,16,17
 43 281 43 281 60 332 c 0,18,19
 75 382 75 382 106 421 c 0,20,21
 137 461 137 461 181 486 c 0,22,23
 225 510 225 510 280 510 c 0,24,25
 328 510 328 510 362 496 c 0,26,27
 397 484 397 484 418 464 c 0,28,29
 440 444 440 444 449 418 c 0,30,31
 459 392 459 392 459 366 c 0,32,33
 457 329 457 329 440 303 c 0,34,35
 421 277 421 277 394 261 c 0,36,37
 366 245 366 245 333 237 c 1,38,-1
 267 231 l 1,39,-1
 234 233 l 1,40,-1
 198 240 l 1,41,-1
 167 252 l 2,42,43
 152 260 152 260 146 271 c 1,44,-1
 145 270 l 1,45,-1
 149 246 l 1,46,-1
 153 224 l 2,47,48
 159 185 159 185 174 154 c 0,49,50
 189 124 189 124 209 103 c 0,51,52
 231 82 231 82 256 70 c 0,53,54
 282 60 282 60 311 60 c 0,55,56
 346 60 346 60 385 79 c 0,57,58
 424 99 424 99 458 141 c 1,0,-1
246 280 m 1,59,-1
 285 285 l 2,60,61
 305 290 305 290 319 301 c 2,62,-1
 346 328 l 1,63,64
 356 345 356 345 356 367 c 2,65,-1
 351 403 l 1,66,-1
 334 433 l 2,67,68
 323 446 323 446 306 455 c 1,69,-1
 263 464 l 1,70,71
 235 464 235 464 215 451 c 1,72,-1
 182 417 l 2,73,74
 167 396 167 396 159 367 c 0,75,76
 150 339 150 339 147 307 c 1,77,-1
 160 296 l 1,78,-1
 188 288 l 1,79,-1
 219 282 l 1,80,-1
 246 280 l 1,59,-1
EndSplineSet
EndChar

StartChar: uni0066
Encoding: 102 102 73
Width: 341
GlyphClass: 1
Flags: W
LayerCount: 2
Fore
SplineSet
256 500 m 1,0,-1
 298 505 l 1,1,-1
 311 510 l 1,2,-1
 312 496 l 1,3,-1
 312 483 l 2,4,5
 312 457 312 457 297 449 c 1,6,-1
 255 442 l 1,7,-1
 233 443 l 1,8,-1
 210 443 l 1,9,-1
 207 380 l 1,10,-1
 206 319 l 1,11,-1
 207 246 l 1,12,-1
 208 169 l 1,13,-1
 210 85 l 1,14,-1
 210 -11 l 2,15,16
 210 -63 210 -63 195 -101 c 0,17,18
 181 -139 181 -139 153 -163 c 0,19,20
 127 -188 127 -188 91 -198 c 1,21,-1
 13 -210 l 1,22,-1
 42 -184 l 1,23,-1
 65 -151 l 1,24,-1
 82 -105 l 1,25,-1
 93 -31 l 1,26,-1
 99 77 l 1,27,-1
 101 233 l 1,28,-1
 98 361 l 2,29,30
 96 404 96 404 88 424 c 0,31,32
 79 444 79 444 65 449 c 2,33,-1
 28 464 l 1,34,-1
 28 500 l 1,35,36
 60 500 60 500 78 517 c 0,37,38
 97 533 97 533 97 560 c 2,39,-1
 96 575 l 1,40,-1
 96 593 l 2,41,42
 96 644 96 644 117 680 c 0,43,44
 139 715 139 715 172 738 c 0,45,46
 206 760 206 760 248 770 c 1,47,-1
 329 781 l 1,48,-1
 397 773 l 1,49,-1
 454 749 l 2,50,51
 480 735 480 735 493 711 c 0,52,53
 507 689 507 689 506 660 c 1,54,55
 487 691 487 691 447 707 c 128,-1,56
 407 723 407 723 365 723 c 1,57,-1
 316 717 l 2,58,59
 290 710 290 710 267 696 c 0,60,61
 243 680 243 680 228 657 c 0,62,63
 211 633 211 633 210 599 c 2,64,-1
 209 547 l 1,65,-1
 208 528 l 1,66,-1
 206 513 l 1,67,-1
 204 500 l 1,68,-1
 256 500 l 1,0,-1
EndSplineSet
EndChar

StartChar: uni0067
Encoding: 103 103 74
Width: 516
GlyphClass: 1
Flags: W
LayerCount: 2
Fore
SplineSet
350 331 m 1,0,-1
 344 381 l 1,1,-1
 324 425 l 2,2,3
 312 445 312 445 292 456 c 0,4,5
 273 468 273 468 247 468 c 0,6,7
 225 468 225 468 207 456 c 128,-1,8
 189 444 189 444 177 424 c 2,9,-1
 158 380 l 1,10,11
 152 356 152 356 152 330 c 128,-1,12
 152 304 152 304 158 279 c 0,13,14
 164 255 164 255 177 235 c 1,15,-1
 209 204 l 1,16,17
 228 192 228 192 253 192 c 0,18,19
 277 192 277 192 295 205 c 0,20,21
 314 217 314 217 325 236 c 2,22,-1
 344 280 l 1,23,-1
 350 331 l 1,0,-1
45 -76 m 0,24,25
 45 -57 45 -57 60 -41 c 0,26,27
 73 -25 73 -25 96 -25 c 2,28,-1
 118 -28 l 1,29,-1
 114 -41 l 1,30,-1
 113 -54 l 2,31,32
 113 -81 113 -81 127 -101 c 0,33,34
 140 -120 140 -120 161 -133 c 0,35,36
 183 -146 183 -146 211 -151 c 2,37,-1
 271 -156 l 1,38,-1
 316 -150 l 1,39,-1
 356 -132 l 1,40,-1
 383 -106 l 2,41,42
 394 -92 394 -92 394 -75 c 0,43,44
 394 -56 394 -56 373 -48 c 2,45,-1
 321 -35 l 1,46,-1
 255 -28 l 1,47,-1
 188 -15 l 2,48,49
 156 -6 156 -6 136 14 c 0,50,51
 115 33 115 33 115 70 c 0,52,53
 115 103 115 103 132 126 c 2,54,-1
 162 162 l 1,55,56
 108 178 108 178 73 214 c 0,57,58
 38 251 38 251 38 311 c 0,59,60
 38 352 38 352 54 388 c 0,61,62
 69 424 69 424 98 450 c 0,63,64
 126 477 126 477 165 492 c 0,65,66
 204 508 204 508 253 508 c 1,67,-1
 308 499 l 1,68,-1
 357 490 l 1,69,-1
 381 496 l 1,70,-1
 407 514 l 1,71,-1
 430 542 l 1,72,73
 438 559 438 559 438 580 c 2,74,-1
 435 599 l 1,75,-1
 441 600 l 1,76,-1
 445 600 l 2,77,78
 472 600 472 600 486 585 c 0,79,80
 501 571 501 571 501 553 c 128,-1,81
 501 535 501 535 491 521 c 2,82,-1
 467 494 l 1,83,84
 451 483 451 483 433 476 c 2,85,-1
 395 465 l 1,86,87
 427 441 427 441 445 410 c 0,88,89
 465 381 465 381 465 339 c 0,90,91
 465 300 465 300 447 265 c 0,92,93
 431 231 431 231 401 205 c 0,94,95
 371 180 371 180 332 165 c 0,96,97
 293 149 293 149 249 149 c 2,98,-1
 197 153 l 1,99,-1
 188 134 l 1,100,-1
 184 120 l 1,101,102
 184 100 184 100 206 92 c 2,103,-1
 262 80 l 1,104,-1
 335 73 l 1,105,-1
 408 59 l 1,106,107
 442 47 442 47 464 21 c 0,108,109
 486 -3 486 -3 486 -48 c 0,110,111
 486 -86 486 -86 467 -116 c 0,112,113
 447 -146 447 -146 415 -165 c 0,114,115
 383 -186 383 -186 340 -196 c 1,116,-1
 248 -206 l 1,117,-1
 173 -198 l 2,118,119
 137 -191 137 -191 107 -174 c 0,120,121
 79 -158 79 -158 62 -134 c 0,122,123
 45 -109 45 -109 45 -76 c 0,24,25
EndSplineSet
EndChar

StartChar: uni0068
Encoding: 104 104 75
Width: 610
GlyphClass: 1
Flags: W
LayerCount: 2
Fore
SplineSet
138 -10 m 2,0,-1
 105 -7 l 1,1,-1
 67 0 l 1,2,-1
 72 9 l 1,3,-1
 81 44 l 1,4,-1
 88 126 l 1,5,-1
 91 277 l 1,6,-1
 90 427 l 1,7,-1
 87 645 l 1,8,-1
 84 703 l 1,9,-1
 77 740 l 1,10,-1
 67 761 l 1,11,-1
 144 753 l 1,12,13
 171 745 171 745 184 726 c 128,-1,14
 197 707 197 707 199 676 c 2,15,-1
 202 597 l 1,16,-1
 201 551 l 1,17,-1
 198 500 l 1,18,-1
 195 455 l 1,19,-1
 193 431 l 1,20,-1
 194 429 l 1,21,22
 201 447 201 447 221 463 c 0,23,24
 240 478 240 478 267 488 c 2,25,-1
 325 504 l 1,26,-1
 390 510 l 1,27,-1
 434 505 l 2,28,29
 456 501 456 501 475 490 c 0,30,31
 493 481 493 481 504 465 c 0,32,33
 516 448 516 448 516 427 c 2,34,-1
 514 292 l 1,35,-1
 511 172 l 1,36,-1
 513 118 l 1,37,-1
 519 74 l 2,38,39
 524 55 524 55 532 44 c 0,40,41
 540 34 540 34 555 34 c 0,42,43
 575 34 575 34 603 56 c 1,44,45
 603 43 603 43 594 31 c 2,46,-1
 572 10 l 2,47,48
 558 1 558 1 538 -5 c 2,49,-1
 497 -10 l 1,50,-1
 461 -6 l 2,51,52
 444 -2 444 -2 430 8 c 0,53,54
 417 18 417 18 409 33 c 0,55,56
 403 48 403 48 403 71 c 2,57,-1
 405 157 l 1,58,-1
 406 241 l 1,59,-1
 405 320 l 1,60,-1
 403 394 l 2,61,62
 401 429 401 429 382 443 c 0,63,64
 364 456 364 456 338 456 c 2,65,-1
 293 450 l 2,66,67
 269 445 269 445 248 435 c 0,68,69
 228 425 228 425 215 411 c 0,70,71
 202 399 202 399 201 385 c 2,72,-1
 198 317 l 1,73,-1
 197 238 l 1,74,-1
 199 151 l 1,75,-1
 201 58 l 2,76,77
 201 17 201 17 183 4 c 0,78,79
 164 -10 164 -10 138 -10 c 2,0,-1
EndSplineSet
EndChar

StartChar: uni0069
Encoding: 105 105 76
Width: 292
GlyphClass: 1
Flags: W
LayerCount: 2
Fore
SplineSet
70 638 m 0,0,1
 70 666 70 666 91 686 c 0,2,3
 110 706 110 706 138 706 c 128,-1,4
 166 706 166 706 186 686 c 0,5,6
 205 666 205 666 205 638 c 0,7,8
 205 612 205 612 186 591 c 0,9,10
 166 572 166 572 138 572 c 128,-1,11
 110 572 110 572 91 591 c 0,12,13
 70 612 70 612 70 638 c 0,0,1
83 394 m 1,14,-1
 76 451 l 1,15,-1
 69 484 l 1,16,-1
 62 501 l 1,17,-1
 88 507 l 1,18,-1
 111 510 l 1,19,20
 145 510 145 510 171 492 c 0,21,22
 196 476 196 476 196 445 c 2,23,-1
 194 301 l 1,24,-1
 191 172 l 1,25,-1
 193 118 l 1,26,-1
 199 74 l 2,27,28
 204 55 204 55 212 44 c 0,29,30
 221 34 221 34 235 34 c 0,31,32
 255 34 255 34 282 56 c 1,33,34
 282 43 282 43 274 31 c 2,35,-1
 252 10 l 2,36,37
 237 1 237 1 219 -5 c 2,38,-1
 178 -10 l 1,39,-1
 142 -6 l 1,40,-1
 110 8 l 1,41,42
 98 18 98 18 90 33 c 0,43,44
 83 48 83 48 83 71 c 2,45,-1
 85 157 l 1,46,-1
 87 242 l 1,47,-1
 86 320 l 1,48,-1
 83 394 l 1,14,-1
EndSplineSet
EndChar

StartChar: uni006A
Encoding: 106 106 77
Width: 277
GlyphClass: 1
Flags: W
LayerCount: 2
Fore
SplineSet
69 638 m 0,0,1
 69 666 69 666 90 686 c 0,2,3
 109 706 109 706 137 706 c 128,-1,4
 165 706 165 706 185 686 c 0,5,6
 204 666 204 666 204 638 c 0,7,8
 204 612 204 612 185 591 c 0,9,10
 165 572 165 572 137 572 c 128,-1,11
 109 572 109 572 90 591 c 0,12,13
 69 612 69 612 69 638 c 0,0,1
61 501 m 1,14,-1
 87 507 l 1,15,-1
 110 510 l 1,16,17
 144 510 144 510 170 493 c 0,18,19
 195 477 195 477 195 447 c 2,20,-1
 193 338 l 1,21,-1
 191 218 l 1,22,-1
 193 93 l 1,23,-1
 195 -15 l 2,24,25
 195 -65 195 -65 181 -103 c 0,26,27
 166 -140 166 -140 139 -163 c 0,28,29
 111 -188 111 -188 75 -198 c 0,30,31
 40 -210 40 -210 -2 -210 c 1,32,-1
 28 -184 l 1,33,-1
 51 -151 l 1,34,-1
 67 -105 l 1,35,-1
 78 -32 l 1,36,-1
 84 77 l 1,37,-1
 86 233 l 1,38,-1
 85 318 l 1,39,-1
 82 395 l 1,40,-1
 76 451 l 1,41,-1
 69 484 l 1,42,-1
 61 501 l 1,14,-1
EndSplineSet
EndChar

StartChar: uni006B
Encoding: 107 107 78
Width: 542
GlyphClass: 1
Flags: W
LayerCount: 2
Fore
SplineSet
200 684 m 2,0,-1
 197 531 l 1,1,-1
 196 400 l 1,2,-1
 196 328 l 1,3,-1
 197 302 l 1,4,5
 226 307 226 307 247 323 c 1,6,-1
 285 363 l 1,7,-1
 318 412 l 1,8,-1
 351 460 l 1,9,-1
 392 495 l 2,10,11
 415 510 415 510 447 510 c 2,12,-1
 464 509 l 1,13,-1
 485 506 l 1,14,-1
 503 503 l 1,15,-1
 514 500 l 1,16,-1
 475 469 l 1,17,-1
 442 426 l 1,18,-1
 410 379 l 1,19,-1
 383 339 l 2,20,21
 369 321 369 321 347 310 c 0,22,23
 324 297 324 297 299 289 c 1,24,25
 340 280 340 280 360 246 c 2,26,-1
 438 106 l 1,27,-1
 450 83 l 1,28,-1
 466 60 l 2,29,30
 475 49 475 49 487 41 c 0,31,32
 498 34 498 34 512 34 c 0,33,34
 528 34 528 34 543 47 c 1,35,36
 543 30 543 30 534 19 c 2,37,-1
 514 2 l 1,38,-1
 487 -8 l 1,39,-1
 460 -10 l 2,40,41
 412 -10 412 -10 383 10 c 0,42,43
 353 30 353 30 330 77 c 2,44,-1
 255 220 l 1,45,-1
 227 258 l 1,46,-1
 197 275 l 1,47,-1
 196 261 l 1,48,-1
 196 226 l 1,49,-1
 197 157 l 1,50,-1
 200 67 l 1,51,-1
 195 29 l 1,52,-1
 183 6 l 1,53,-1
 162 -7 l 1,54,-1
 137 -10 l 1,55,-1
 104 -7 l 1,56,-1
 67 0 l 1,57,-1
 73 12 l 1,58,-1
 81 58 l 1,59,-1
 88 163 l 1,60,-1
 90 351 l 1,61,-1
 90 432 l 1,62,-1
 89 511 l 1,63,-1
 88 583 l 1,64,-1
 86 645 l 1,65,-1
 83 703 l 1,66,-1
 76 740 l 1,67,-1
 66 761 l 1,68,-1
 118 758 l 1,69,-1
 161 747 l 2,70,71
 179 740 179 740 190 724 c 0,72,73
 200 708 200 708 200 684 c 2,0,-1
EndSplineSet
EndChar

StartChar: uni006C
Encoding: 108 108 79
Width: 291
GlyphClass: 1
Flags: W
LayerCount: 2
Fore
SplineSet
82 77 m 2,0,-1
 84 160 l 1,1,-1
 86 258 l 1,2,-1
 87 362 l 1,3,-1
 87 467 l 1,4,-1
 85 563 l 1,5,-1
 82 645 l 1,6,-1
 77 703 l 1,7,-1
 70 740 l 1,8,-1
 62 761 l 1,9,-1
 114 758 l 1,10,-1
 158 747 l 2,11,12
 177 740 177 740 187 724 c 128,-1,13
 197 708 197 708 196 684 c 0,14,15
 192 545 192 545 193 400 c 0,16,17
 193 253 193 253 196 107 c 0,18,19
 197 74 197 74 203 54 c 128,-1,20
 209 34 209 34 235 34 c 0,21,22
 255 34 255 34 282 56 c 1,23,24
 282 43 282 43 274 31 c 2,25,-1
 251 10 l 1,26,-1
 219 -5 l 1,27,-1
 178 -10 l 1,28,-1
 140 -6 l 2,29,30
 122 -1 122 -1 109 9 c 0,31,32
 97 19 97 19 89 36 c 128,-1,33
 81 53 81 53 82 77 c 2,0,-1
EndSplineSet
EndChar

StartChar: uni006D
Encoding: 109 109 80
Width: 888
GlyphClass: 1
Flags: W
LayerCount: 2
Fore
SplineSet
68 501 m 1,0,-1
 93 507 l 1,1,-1
 117 510 l 1,2,3
 152 510 152 510 175 492 c 0,4,5
 198 476 198 476 198 445 c 1,6,-1
 195 429 l 1,7,8
 209 466 209 466 257 488 c 0,9,10
 304 511 304 511 365 511 c 1,11,-1
 409 508 l 1,12,-1
 448 496 l 1,13,-1
 478 476 l 1,14,-1
 494 445 l 1,15,16
 520 472 520 472 562 491 c 0,17,18
 605 511 605 511 651 511 c 2,19,-1
 702 507 l 2,20,21
 728 502 728 502 747 491 c 0,22,23
 768 482 768 482 780 465 c 0,24,25
 792 449 792 449 792 427 c 2,26,-1
 790 292 l 1,27,-1
 788 172 l 1,28,-1
 789 118 l 1,29,-1
 795 74 l 2,30,31
 800 55 800 55 808 45 c 0,32,33
 817 34 817 34 831 34 c 0,34,35
 851 34 851 34 879 56 c 1,36,37
 879 43 879 43 871 30 c 0,38,39
 862 19 862 19 848 10 c 128,-1,40
 834 1 834 1 815 -5 c 2,41,-1
 774 -10 l 1,42,-1
 738 -6 l 2,43,44
 720 -2 720 -2 706 8 c 0,45,46
 694 18 694 18 686 33 c 0,47,48
 679 48 679 48 679 71 c 2,49,-1
 681 157 l 1,50,-1
 683 242 l 1,51,-1
 682 320 l 1,52,-1
 679 394 l 1,53,-1
 671 424 l 1,54,-1
 655 444 l 1,55,-1
 631 454 l 1,56,-1
 606 458 l 1,57,58
 578 458 578 458 548 442 c 0,59,60
 517 426 517 426 497 404 c 1,61,-1
 494 287 l 1,62,-1
 493 182 l 1,63,-1
 493 156 l 1,64,-1
 494 128 l 1,65,-1
 494 104 l 1,66,-1
 495 94 l 2,67,68
 495 58 495 58 488 36 c 1,69,-1
 470 5 l 2,70,71
 459 -9 459 -9 447 -14 c 1,72,73
 428 -10 428 -10 414 2 c 2,74,-1
 393 25 l 2,75,76
 383 41 383 41 383 63 c 2,77,-1
 385 153 l 1,78,-1
 387 241 l 1,79,-1
 386 320 l 1,80,-1
 383 394 l 2,81,82
 381 429 381 429 363 444 c 0,83,84
 346 458 346 458 321 458 c 2,85,-1
 279 452 l 1,86,-1
 241 436 l 1,87,-1
 213 413 l 2,88,89
 202 400 202 400 202 385 c 2,90,-1
 199 317 l 1,91,-1
 198 239 l 1,92,-1
 200 151 l 1,93,-1
 202 58 l 2,94,95
 202 17 202 17 184 4 c 0,96,97
 165 -10 165 -10 139 -10 c 2,98,-1
 105 -7 l 1,99,-1
 68 0 l 1,100,-1
 75 15 l 1,101,-1
 83 57 l 1,102,-1
 89 132 l 1,103,-1
 92 245 l 1,104,-1
 91 321 l 1,105,-1
 88 395 l 1,106,-1
 83 452 l 1,107,-1
 76 485 l 1,108,-1
 68 501 l 1,0,-1
EndSplineSet
EndChar

StartChar: uni006E
Encoding: 110 110 81
Width: 611
GlyphClass: 1
Flags: W
LayerCount: 2
Fore
SplineSet
202 385 m 2,0,-1
 199 317 l 1,1,-1
 198 238 l 1,2,-1
 200 151 l 1,3,-1
 202 58 l 2,4,5
 202 17 202 17 184 4 c 0,6,7
 165 -10 165 -10 139 -10 c 2,8,-1
 105 -7 l 1,9,-1
 68 0 l 1,10,-1
 75 15 l 1,11,-1
 83 57 l 1,12,-1
 89 131 l 1,13,-1
 92 245 l 1,14,-1
 91 320 l 1,15,-1
 88 395 l 1,16,-1
 83 451 l 1,17,-1
 76 484 l 1,18,-1
 68 500 l 1,19,-1
 93 507 l 1,20,-1
 117 510 l 1,21,22
 152 510 152 510 175 493 c 0,23,24
 198 478 198 478 198 454 c 2,25,-1
 196 440 l 1,26,-1
 194 431 l 1,27,-1
 195 429 l 1,28,29
 202 446 202 446 221 462 c 0,30,31
 240 477 240 477 267 488 c 2,32,-1
 324 504 l 1,33,-1
 385 510 l 1,34,-1
 435 505 l 2,35,36
 459 501 459 501 477 490 c 2,37,-1
 506 464 l 1,38,39
 517 447 517 447 517 426 c 2,40,-1
 515 291 l 1,41,-1
 512 172 l 1,42,-1
 514 118 l 1,43,-1
 520 74 l 2,44,45
 525 55 525 55 533 44 c 0,46,47
 541 34 541 34 556 34 c 0,48,49
 576 34 576 34 604 56 c 1,50,51
 604 43 604 43 595 31 c 2,52,-1
 573 10 l 2,53,54
 559 1 559 1 539 -5 c 2,55,-1
 498 -10 l 1,56,-1
 462 -6 l 2,57,58
 445 -2 445 -2 431 8 c 0,59,60
 418 18 418 18 410 33 c 0,61,62
 404 48 404 48 404 71 c 2,63,-1
 406 157 l 1,64,-1
 407 241 l 1,65,-1
 406 319 l 1,66,-1
 404 393 l 2,67,68
 402 428 402 428 384 442 c 128,-1,69
 366 456 366 456 340 456 c 2,70,-1
 296 450 l 1,71,-1
 251 435 l 2,72,73
 230 426 230 426 216 412 c 0,74,75
 202 400 202 400 202 385 c 2,0,-1
EndSplineSet
EndChar

StartChar: uni006F
Encoding: 111 111 82
Width: 600
GlyphClass: 1
Flags: W
LayerCount: 2
Fore
SplineSet
294 34 m 0,0,1
 321 34 321 34 344 50 c 0,2,3
 367 64 367 64 385 93 c 0,4,5
 402 120 402 120 412 156 c 128,-1,6
 422 192 422 192 422 234 c 0,7,8
 422 279 422 279 414 321 c 128,-1,9
 406 363 406 363 390 397 c 0,10,11
 373 429 373 429 348 448 c 0,12,13
 321 468 321 468 284 468 c 0,14,15
 258 468 258 468 234 451 c 0,16,17
 211 435 211 435 194 406 c 0,18,19
 178 378 178 378 168 340 c 128,-1,20
 158 302 158 302 158 259 c 0,21,22
 158 215 158 215 166 174 c 0,23,24
 175 134 175 134 190 103 c 0,25,26
 207 72 207 72 233 53 c 0,27,28
 260 34 260 34 294 34 c 0,0,1
303 510 m 0,29,30
 418 510 418 510 480 447 c 0,31,32
 540 385 540 385 540 265 c 0,33,34
 540 206 540 206 521 155 c 0,35,36
 501 105 501 105 466 68 c 0,37,38
 432 32 432 32 383 11 c 0,39,40
 335 -10 335 -10 278 -10 c 0,41,42
 226 -10 226 -10 182 5 c 0,43,44
 138 19 138 19 106 50 c 0,45,46
 75 80 75 80 59 128 c 0,47,48
 41 176 41 176 41 243 c 0,49,50
 41 297 41 297 61 345 c 128,-1,51
 81 393 81 393 117 430 c 0,52,53
 152 467 152 467 200 488 c 0,54,55
 247 510 247 510 303 510 c 0,29,30
EndSplineSet
EndChar

StartChar: uni0070
Encoding: 112 112 83
Width: 590
GlyphClass: 1
Flags: W
LayerCount: 2
Fore
SplineSet
261 36 m 0,0,1
 337 36 337 36 379 104 c 128,-1,2
 421 172 421 172 421 264 c 0,3,4
 421 338 421 338 391.5 394.5 c 128,-1,5
 362 451 362 451 313 451 c 0,6,7
 268 451 268 451 237 418.5 c 128,-1,8
 206 386 206 386 199 330 c 0,9,10
 194 287 194 287 194 193 c 2,11,-1
 194 68 l 2,12,13
 194 36 194 36 261 36 c 0,0,1
98.5 -215.5 m 128,-1,15
 83 -199 83 -199 83 -155 c 0,16,17
 83 -115 83 -115 84 -26 c 0,18,19
 86 124 86 124 86 241 c 0,20,21
 86 440 86 440 63 501 c 1,22,23
 94 510 94 510 112 510 c 0,24,25
 146 510 146 510 169.5 494 c 128,-1,26
 193 478 193 478 193 455 c 0,27,28
 193 446 193 446 191 438 c 1,29,-1
 196 436 l 1,30,-1
 206 450 l 2,31,32
 215 463 215 463 234 478 c 128,-1,33
 253 493 253 493 284 504 c 128,-1,34
 315 515 315 515 357 515 c 0,35,36
 441 515 441 515 491 450 c 128,-1,37
 541 385 541 385 541 287 c 0,38,39
 541 153 541 153 466 71 c 128,-1,40
 391 -11 391 -11 247 -11 c 0,41,42
 225 -11 225 -11 197 -6 c 1,43,44
 196 -23 196 -23 196 -54 c 0,45,46
 196 -105 196 -105 200 -142.5 c 128,-1,47
 204 -180 204 -180 209 -201 c 2,48,-1
 214 -222 l 1,49,50
 207 -223 207 -223 193 -226 c 0,51,52
 159 -232 159 -232 144 -232 c 0,53,14
 114 -232 114 -232 98.5 -215.5 c 128,-1,15
EndSplineSet
EndChar

StartChar: uni0071
Encoding: 113 113 84
Width: 576
GlyphClass: 1
Flags: W
LayerCount: 2
Fore
SplineSet
259 43 m 1,0,-1
 292 53 l 2,1,2
 313 63 313 63 335 90 c 0,3,4
 355 115 355 115 371 160 c 128,-1,5
 387 205 387 205 387 273 c 2,6,-1
 386 342 l 1,7,-1
 380 404 l 2,8,9
 377 433 377 433 367 449 c 0,10,11
 357 467 357 467 339 467 c 0,12,13
 293 467 293 467 258 445 c 0,14,15
 225 422 225 422 203 386 c 0,16,17
 180 351 180 351 169 307 c 0,18,19
 160 263 160 263 160 219 c 0,20,21
 160 184 160 184 166 152 c 0,22,23
 172 121 172 121 185 97 c 0,24,25
 199 71 199 71 217 58 c 0,26,27
 235 43 235 43 259 43 c 1,0,-1
495 -132 m 1,28,-1
 491 -170 l 1,29,-1
 477 -193 l 1,30,-1
 458 -206 l 1,31,-1
 432 -209 l 1,32,-1
 398 -206 l 1,33,-1
 361 -199 l 1,34,-1
 365 -195 l 1,35,-1
 372 -182 l 1,36,-1
 378 -149 l 1,37,-1
 381 -94 l 1,38,-1
 381 2 l 2,39,40
 381 40 381 40 384 58 c 2,41,-1
 387 75 l 1,42,43
 358 30 358 30 311 12 c 0,44,45
 264 -7 264 -7 208 -7 c 0,46,47
 166 -7 166 -7 134 8 c 0,48,49
 104 22 104 22 83 48 c 0,50,51
 63 73 63 73 53 106 c 0,52,53
 44 140 44 140 44 178 c 0,54,55
 44 233 44 233 65 292 c 0,56,57
 85 351 85 351 124 400 c 0,58,59
 165 447 165 447 221 479 c 0,60,61
 279 510 279 510 353 510 c 1,62,-1
 409 504 l 1,63,-1
 454 488 l 2,64,65
 473 478 473 478 484 462 c 0,66,67
 495 445 495 445 495 425 c 2,68,-1
 495 -132 l 1,28,-1
EndSplineSet
EndChar

StartChar: uni0072
Encoding: 114 114 85
Width: 404
GlyphClass: 1
Flags: W
LayerCount: 2
Fore
SplineSet
195 445 m 1,0,-1
 193 432 l 1,1,-1
 191 421 l 1,2,-1
 191 411 l 1,3,-1
 191 409 l 1,4,-1
 192 407 l 1,5,6
 201 432 201 432 219 450 c 2,7,-1
 257 483 l 1,8,9
 278 495 278 495 300 503 c 1,10,-1
 342 510 l 1,11,12
 368 510 368 510 380 494 c 0,13,14
 391 479 391 479 391 457 c 0,15,16
 391 431 391 431 378 404 c 1,17,18
 365 420 365 420 347 425 c 2,19,-1
 307 431 l 1,20,21
 269 431 269 431 245 416 c 0,22,23
 223 402 223 402 212 376 c 0,24,25
 200 350 200 350 197 314 c 0,26,27
 195 277 195 277 195 233 c 0,28,29
 195 160 195 160 197 114 c 2,30,-1
 205 43 l 1,31,-1
 213 9 l 1,32,-1
 217 0 l 1,33,-1
 181 -7 l 1,34,-1
 148 -10 l 1,35,-1
 122 -7 l 2,36,37
 110 -3 110 -3 102 6 c 0,38,39
 93 14 93 14 89 29 c 0,40,41
 84 44 84 44 84 67 c 2,42,-1
 88 155 l 1,43,-1
 89 241 l 1,44,-1
 86 366 l 1,45,-1
 78 445 l 1,46,-1
 69 487 l 1,47,-1
 65 501 l 1,48,-1
 89 507 l 1,49,-1
 113 510 l 1,50,51
 149 510 149 510 171 492 c 0,52,53
 195 476 195 476 195 445 c 1,0,-1
EndSplineSet
EndChar

StartChar: uni0073
Encoding: 115 115 86
Width: 440
GlyphClass: 1
Flags: W
LayerCount: 2
Fore
SplineSet
40 111 m 1,0,-1
 43 135 l 1,1,-1
 65 110 l 2,2,3
 78 96 78 96 100 82 c 0,4,5
 120 67 120 67 149 58 c 1,6,-1
 212 48 l 1,7,8
 258 48 258 48 282 67 c 0,9,10
 306 88 306 88 306 112 c 1,11,-1
 293 147 l 1,12,13
 281 165 281 165 252 179 c 2,14,-1
 136 236 l 2,15,16
 97 257 97 257 69 285 c 0,17,18
 42 315 42 315 42 356 c 0,19,20
 42 394 42 394 59 422 c 0,21,22
 75 450 75 450 103 470 c 0,23,24
 129 489 129 489 164 500 c 1,25,-1
 235 510 l 1,26,-1
 288 505 l 1,27,-1
 336 492 l 2,28,29
 356 484 356 484 368 471 c 0,30,31
 381 457 381 457 381 441 c 0,32,33
 381 427 381 427 371 410 c 0,34,35
 363 394 363 394 340 374 c 1,36,37
 337 397 337 397 324 412 c 0,38,39
 310 429 310 429 293 438 c 2,40,-1
 258 452 l 1,41,-1
 226 456 l 1,42,43
 185 456 185 456 162 437 c 0,44,45
 140 416 140 416 140 391 c 0,46,47
 140 369 140 369 156 355 c 2,48,-1
 208 323 l 1,49,-1
 299 279 l 2,50,51
 322 269 322 269 341 254 c 2,52,-1
 375 223 l 1,53,-1
 399 183 l 1,54,55
 408 160 408 160 408 134 c 0,56,57
 408 101 408 101 392 74 c 0,58,59
 376 48 376 48 351 29 c 0,60,61
 325 11 325 11 291 0 c 1,62,-1
 220 -11 l 1,63,-1
 168 -6 l 2,64,65
 138 -2 138 -2 109 12 c 0,66,67
 80 24 80 24 61 49 c 0,68,69
 40 72 40 72 40 111 c 1,0,-1
EndSplineSet
EndChar

StartChar: uni0074
Encoding: 116 116 87
Width: 387
GlyphClass: 1
Flags: W
LayerCount: 2
Fore
SplineSet
217 610 m 1,0,-1
 198 500 l 1,1,-1
 264 500 l 1,2,-1
 306 505 l 1,3,-1
 319 510 l 1,4,-1
 320 496 l 1,5,-1
 320 483 l 2,6,7
 320 457 320 457 305 449 c 1,8,-1
 263 442 l 1,9,-1
 251 442 l 1,10,-1
 231 443 l 1,11,-1
 210 444 l 1,12,-1
 198 444 l 1,13,-1
 197 372 l 1,14,-1
 196 306 l 1,15,-1
 196 239 l 1,16,-1
 198 174 l 2,17,18
 199 142 199 142 207 117 c 128,-1,19
 215 92 215 92 233 77 c 0,20,21
 249 62 249 62 279 62 c 0,22,23
 301 62 301 62 329 75 c 0,24,25
 358 89 358 89 383 118 c 1,26,-1
 384 111 l 1,27,-1
 384 105 l 2,28,29
 384 82 384 82 373 61 c 128,-1,30
 362 40 362 40 342 24 c 2,31,-1
 299 -1 l 1,32,-1
 247 -10 l 1,33,34
 195 -10 195 -10 162 5 c 0,35,36
 130 20 130 20 114 46 c 0,37,38
 97 72 97 72 91 106 c 0,39,40
 85 141 85 141 85 179 c 2,41,-1
 86 229 l 1,42,-1
 87 278 l 1,43,-1
 89 322 l 1,44,-1
 89 357 l 1,45,-1
 88 411 l 1,46,-1
 81 440 l 2,47,48
 76 450 76 450 68 454 c 2,49,-1
 43 464 l 1,50,-1
 43 500 l 1,51,52
 60 500 60 500 83 514 c 0,53,54
 108 527 108 527 130 546 c 2,55,-1
 171 585 l 1,56,-1
 195 617 l 1,57,-1
 217 610 l 1,0,-1
EndSplineSet
EndChar

StartChar: uni0075
Encoding: 117 117 88
Width: 599
GlyphClass: 1
Flags: W
LayerCount: 2
Fore
SplineSet
509 445 m 2,0,-1
 504 284 l 1,1,-1
 502 146 l 1,2,-1
 503 101 l 2,3,4
 504 80 504 80 508 65 c 0,5,6
 512 51 512 51 521 42 c 128,-1,7
 530 33 530 33 543 33 c 0,8,9
 563 33 563 33 590 56 c 1,10,11
 590 43 590 43 582 30 c 1,12,-1
 560 10 l 2,13,14
 545 1 545 1 527 -5 c 2,15,-1
 486 -11 l 1,16,17
 450 -11 450 -11 424 7 c 0,18,19
 399 24 399 24 399 61 c 2,20,-1
 400 75 l 1,21,-1
 399 76 l 1,22,-1
 398 76 l 1,23,-1
 382 63 l 1,24,-1
 351 33 l 2,25,26
 330 17 330 17 299 3 c 0,27,28
 269 -11 269 -11 223 -11 c 1,29,-1
 167 -4 l 1,30,31
 141 4 141 4 120 18 c 0,32,33
 100 31 100 31 88 54 c 0,34,35
 75 75 75 75 75 105 c 2,36,-1
 78 174 l 1,37,-1
 79 253 l 1,38,-1
 78 328 l 1,39,-1
 75 393 l 1,40,-1
 69 450 l 1,41,-1
 63 483 l 1,42,-1
 56 501 l 1,43,-1
 80 507 l 1,44,-1
 105 510 l 1,45,46
 139 510 139 510 164 492 c 0,47,48
 190 476 190 476 190 445 c 2,49,-1
 188 352 l 1,50,-1
 187 263 l 1,51,-1
 189 155 l 2,52,53
 192 113 192 113 199 88 c 0,54,55
 207 63 207 63 223 53 c 0,56,57
 238 43 238 43 264 43 c 0,58,59
 285 43 285 43 308 53 c 2,60,-1
 349 78 l 1,61,-1
 391 113 l 1,62,-1
 393 157 l 1,63,-1
 396 209 l 1,64,-1
 397 264 l 1,65,-1
 398 318 l 1,66,-1
 394 417 l 1,67,-1
 386 472 l 1,68,-1
 378 495 l 1,69,-1
 375 501 l 1,70,-1
 401 507 l 1,71,-1
 424 510 l 1,72,73
 459 510 459 510 485 492 c 0,74,75
 509 476 509 476 509 445 c 2,0,-1
EndSplineSet
EndChar

StartChar: uni0076
Encoding: 118 118 89
Width: 507
GlyphClass: 1
Flags: W
LayerCount: 2
Fore
SplineSet
293 75 m 1,0,-1
 349 245 l 1,1,-1
 383 364 l 1,2,-1
 404 442 l 1,3,-1
 421 486 l 2,4,5
 430 501 430 501 441 505 c 2,6,-1
 476 510 l 1,7,-1
 493 508 l 1,8,-1
 505 505 l 1,9,-1
 517 501 l 1,10,-1
 498 481 l 1,11,-1
 480 451 l 1,12,-1
 459 404 l 1,13,-1
 309 -16 l 1,14,-1
 250 -3 l 2,15,16
 228 5 228 5 205 22 c 0,17,18
 184 40 184 40 174 71 c 2,19,-1
 146 155 l 1,20,-1
 113 258 l 1,21,-1
 78 359 l 1,22,-1
 46 437 l 1,23,-1
 19 485 l 1,24,-1
 1 501 l 1,25,-1
 36 507 l 1,26,-1
 81 510 l 2,27,28
 107 510 107 510 131 497 c 0,29,30
 154 486 154 486 160 463 c 2,31,-1
 184 382 l 1,32,-1
 219 278 l 1,33,-1
 257 171 l 1,34,-1
 293 75 l 1,0,-1
EndSplineSet
EndChar

StartChar: uni0077
Encoding: 119 119 90
Width: 797
GlyphClass: 1
Flags: W
LayerCount: 2
Fore
SplineSet
482 71 m 2,0,-1
 453 158 l 1,1,-1
 415 264 l 1,2,-1
 411 239 l 1,3,-1
 397 191 l 1,4,-1
 312 -16 l 1,5,-1
 309 -16 l 1,6,-1
 250 -3 l 2,7,8
 228 5 228 5 205 22 c 0,9,10
 184 40 184 40 174 71 c 2,11,-1
 146 155 l 1,12,-1
 113 258 l 1,13,-1
 78 359 l 1,14,-1
 46 437 l 1,15,-1
 19 485 l 1,16,-1
 1 501 l 1,17,-1
 36 507 l 1,18,-1
 81 510 l 2,19,20
 107 510 107 510 131 497 c 0,21,22
 154 486 154 486 160 463 c 2,23,-1
 184 382 l 1,24,-1
 219 278 l 1,25,-1
 258 171 l 1,26,-1
 296 75 l 1,27,-1
 306 99 l 1,28,-1
 323 139 l 1,29,-1
 343 191 l 1,30,-1
 362 248 l 1,31,-1
 377 305 l 1,32,-1
 383 356 l 1,33,-1
 378 388 l 1,34,-1
 364 409 l 1,35,-1
 391 414 l 1,36,-1
 418 417 l 1,37,-1
 463 408 l 2,38,39
 485 400 485 400 493 371 c 2,40,-1
 516 297 l 1,41,-1
 543 219 l 1,42,-1
 571 143 l 1,43,-1
 599 75 l 1,44,-1
 650 245 l 1,45,-1
 681 364 l 1,46,-1
 700 442 l 2,47,48
 707 471 707 471 716 486 c 128,-1,49
 725 501 725 501 737 505 c 2,50,-1
 771 510 l 1,51,-1
 788 508 l 1,52,-1
 801 505 l 1,53,-1
 812 501 l 1,54,-1
 793 481 l 1,55,-1
 775 451 l 1,56,-1
 754 404 l 1,57,-1
 613 -16 l 1,58,-1
 557 -3 l 2,59,60
 533 5 533 5 512 22 c 0,61,62
 489 40 489 40 482 71 c 2,0,-1
EndSplineSet
EndChar

StartChar: uni0078
Encoding: 120 120 91
Width: 506
GlyphClass: 1
Flags: W
LayerCount: 2
Fore
SplineSet
35 0 m 1,0,-1
 58 16 l 1,1,-1
 85 45 l 1,2,-1
 116 81 l 1,3,-1
 146 121 l 1,4,-1
 217 225 l 1,5,-1
 182 286 l 1,6,-1
 149 344 l 1,7,-1
 119 396 l 1,8,-1
 93 437 l 2,9,10
 73 469 73 469 52 484 c 1,11,-1
 18 501 l 1,12,-1
 59 507 l 1,13,-1
 110 510 l 2,14,15
 142 510 142 510 164 495 c 1,16,-1
 202 455 l 1,17,-1
 236 393 l 1,18,-1
 278 313 l 1,19,-1
 332 399 l 1,20,-1
 372 465 l 2,21,22
 385 488 385 488 401 498 c 0,23,24
 418 510 418 510 450 510 c 2,25,-1
 467 508 l 1,26,-1
 482 505 l 1,27,-1
 497 500 l 1,28,29
 475 491 475 491 451 465 c 2,30,-1
 399 403 l 1,31,-1
 349 330 l 1,32,-1
 306 265 l 1,33,-1
 358 179 l 1,34,-1
 403 106 l 1,35,-1
 420 84 l 1,36,-1
 438 61 l 1,37,-1
 460 41 l 2,38,39
 471 34 471 34 482 34 c 0,40,41
 498 34 498 34 513 47 c 1,42,43
 513 30 513 30 506 19 c 2,44,-1
 488 2 l 1,45,-1
 462 -8 l 1,46,-1
 434 -10 l 1,47,-1
 390 -5 l 2,48,49
 372 0 372 0 355 11 c 0,50,51
 339 21 339 21 327 37 c 0,52,53
 313 54 313 54 300 77 c 2,54,-1
 246 176 l 1,55,-1
 181 77 l 1,56,-1
 144 21 l 1,57,-1
 119 -4 l 1,58,-1
 87 -10 l 1,59,-1
 58 -8 l 2,60,61
 45 -6 45 -6 35 0 c 1,0,-1
EndSplineSet
EndChar

StartChar: uni0079
Encoding: 121 121 92
Width: 507
GlyphClass: 1
Flags: W
LayerCount: 2
Fore
SplineSet
294 75 m 1,0,-1
 350 245 l 1,1,-1
 384 364 l 1,2,-1
 405 442 l 1,3,-1
 422 486 l 2,4,5
 431 501 431 501 442 505 c 2,6,-1
 477 510 l 1,7,-1
 494 508 l 1,8,-1
 506 505 l 1,9,-1
 518 501 l 1,10,-1
 499 481 l 1,11,-1
 481 451 l 1,12,-1
 460 404 l 1,13,-1
 310 -16 l 1,14,-1
 268 -110 l 1,15,-1
 218 -174 l 1,16,17
 191 -198 191 -198 163 -209 c 1,18,-1
 107 -221 l 1,19,20
 68 -221 68 -221 45 -203 c 0,21,22
 22 -187 22 -187 22 -159 c 0,23,24
 22 -140 22 -140 35 -117 c 1,25,26
 43 -131 43 -131 62 -137 c 2,27,-1
 103 -143 l 1,28,-1
 140 -136 l 2,29,30
 159 -129 159 -129 179 -117 c 2,31,-1
 217 -85 l 2,32,33
 234 -66 234 -66 245 -40 c 2,34,-1
 251 -22 l 1,35,-1
 260 -3 l 1,36,37
 235 3 235 3 210 20 c 0,38,39
 186 35 186 35 175 71 c 2,40,-1
 147 155 l 1,41,-1
 114 258 l 1,42,-1
 79 359 l 1,43,-1
 47 437 l 1,44,-1
 20 485 l 1,45,-1
 2 501 l 1,46,-1
 37 507 l 1,47,-1
 82 510 l 2,48,49
 108 510 108 510 132 497 c 0,50,51
 155 486 155 486 161 463 c 2,52,-1
 185 382 l 1,53,-1
 220 278 l 1,54,-1
 258 171 l 1,55,-1
 294 75 l 1,0,-1
EndSplineSet
EndChar

StartChar: uni007A
Encoding: 122 122 93
Width: 475
GlyphClass: 1
Flags: W
LayerCount: 2
Fore
SplineSet
190 84 m 1,0,-1
 176 62 l 1,1,-1
 161 43 l 1,2,-1
 174 45 l 1,3,-1
 187 47 l 1,4,-1
 207 49 l 1,5,-1
 384 59 l 2,6,7
 417 59 417 59 432 40 c 0,8,9
 446 21 446 21 446 -10 c 1,10,-1
 399 -5 l 1,11,-1
 332 -2 l 1,12,-1
 229 0 l 1,13,-1
 47 0 l 1,14,-1
 46 10 l 1,15,-1
 45 18 l 1,16,-1
 48 37 l 1,17,-1
 57 59 l 1,18,-1
 89 106 l 1,19,-1
 133 175 l 1,20,-1
 182 254 l 1,21,-1
 229 334 l 1,22,-1
 271 405 l 1,23,-1
 301 458 l 1,24,-1
 283 454 l 1,25,-1
 267 452 l 1,26,-1
 249 451 l 1,27,-1
 98 442 l 2,28,29
 63 442 63 442 50 460 c 0,30,31
 35 478 35 478 35 510 c 1,32,-1
 79 505 l 1,33,-1
 142 501 l 1,34,-1
 238 500 l 1,35,-1
 423 500 l 1,36,-1
 423 488 l 1,37,-1
 420 465 l 1,38,-1
 407 437 l 1,39,-1
 345 342 l 1,40,-1
 281 241 l 1,41,-1
 227 149 l 1,42,-1
 190 84 l 1,0,-1
EndSplineSet
EndChar

StartChar: uni007B
Encoding: 123 123 94
Width: 355
GlyphClass: 1
Flags: W
LayerCount: 2
Fore
SplineSet
34 284 m 1,0,1
 50 284 50 284 63 295 c 128,-1,2
 76 306 76 306 87 336 c 128,-1,3
 98 366 98 366 103 419 c 2,4,-1
 109 557 l 2,5,6
 109 601 109 601 125 633 c 0,7,8
 140 665 140 665 162 686 c 0,9,10
 185 707 185 707 212 717 c 1,11,-1
 264 727 l 1,12,13
 299 727 299 727 324 704 c 1,14,15
 268 703 268 703 232 663 c 0,16,17
 197 623 197 623 197 548 c 0,18,19
 197 476 197 476 188 423 c 0,20,21
 180 370 180 370 167 335 c 0,22,23
 153 301 153 301 139 283 c 0,24,25
 124 266 124 266 111 265 c 1,26,27
 136 258 136 258 154 222 c 2,28,-1
 170 184 l 1,29,-1
 184 126 l 1,30,-1
 193 47 l 1,31,-1
 197 -58 l 1,32,-1
 200 -113 l 2,33,34
 202 -141 202 -141 213 -161 c 0,35,36
 223 -183 223 -183 243 -195 c 0,37,38
 264 -208 264 -208 300 -208 c 2,39,-1
 312 -208 l 1,40,-1
 324 -206 l 1,41,42
 308 -227 308 -227 285 -235 c 0,43,44
 264 -245 264 -245 239 -245 c 1,45,-1
 192 -236 l 1,46,-1
 151 -209 l 1,47,48
 133 -191 133 -191 121 -165 c 128,-1,49
 109 -139 109 -139 109 -104 c 2,50,-1
 103 86 l 2,51,52
 97 156 97 156 86 194 c 0,53,54
 75 233 75 233 62 246 c 1,55,-1
 34 262 l 1,56,-1
 34 284 l 1,0,1
EndSplineSet
EndChar

StartChar: uni007C
Encoding: 124 124 95
Width: 262
GlyphClass: 1
Flags: W
LayerCount: 2
Fore
SplineSet
169 690 m 2,0,-1
 167 357 l 1,1,-1
 166 227 l 1,2,-1
 165 106 l 1,3,-1
 165 10 l 1,4,-1
 165 -51 l 1,5,-1
 166 -120 l 1,6,-1
 169 -167 l 1,7,-1
 160 -169 l 1,8,-1
 148 -170 l 1,9,-1
 135 -170 l 1,10,-1
 107 -166 l 2,11,12
 92 -161 92 -161 92 -148 c 2,13,-1
 94 185 l 1,14,-1
 95 314 l 1,15,-1
 96 435 l 1,16,-1
 97 531 l 1,17,-1
 97 591 l 1,18,-1
 96 658 l 1,19,-1
 92 700 l 1,20,-1
 105 702 l 1,21,-1
 119 703 l 1,22,-1
 137 704 l 1,23,-1
 160 701 l 2,24,25
 169 699 169 699 169 690 c 2,0,-1
EndSplineSet
EndChar

StartChar: uni007D
Encoding: 125 125 96
Width: 355
GlyphClass: 1
Flags: W
LayerCount: 2
Fore
SplineSet
318 262 m 1,0,1
 303 259 303 259 289 246 c 0,2,3
 277 233 277 233 266 194 c 0,4,5
 255 156 255 156 248 86 c 0,6,7
 243 15 243 15 243 -104 c 0,8,9
 243 -139 243 -139 231 -165 c 128,-1,10
 219 -191 219 -191 201 -209 c 1,11,-1
 160 -236 l 1,12,-1
 113 -245 l 1,13,14
 88 -245 88 -245 67 -235 c 0,15,16
 44 -227 44 -227 28 -206 c 1,17,-1
 40 -208 l 1,18,-1
 52 -208 l 2,19,20
 88 -208 88 -208 109 -195 c 0,21,22
 129 -183 129 -183 139 -161 c 0,23,24
 150 -141 150 -141 152 -113 c 2,25,-1
 155 -58 l 2,26,27
 155 2 155 2 158 47 c 2,28,-1
 167 126 l 1,29,-1
 181 184 l 1,30,-1
 198 222 l 2,31,32
 215 258 215 258 241 265 c 1,33,34
 228 266 228 266 213 283 c 0,35,36
 199 301 199 301 185 335 c 0,37,38
 172 370 172 370 163 423 c 0,39,40
 155 476 155 476 155 548 c 0,41,42
 155 623 155 623 119 663 c 0,43,44
 84 703 84 703 28 704 c 1,45,46
 53 727 53 727 88 727 c 1,47,-1
 140 717 l 1,48,49
 167 707 167 707 190 686 c 0,50,51
 212 665 212 665 227 633 c 0,52,53
 243 601 243 601 243 557 c 0,54,55
 243 473 243 473 248 419 c 0,56,57
 254 366 254 366 265 336 c 128,-1,58
 276 306 276 306 288 295 c 0,59,60
 302 284 302 284 318 284 c 1,61,-1
 318 262 l 1,0,1
EndSplineSet
EndChar

StartChar: asciitilde
Encoding: 126 126 97
Width: 551
GlyphClass: 2
Flags: W
LayerCount: 2
Fore
SplineSet
55 222 m 1,0,1
 63 277 63 277 96 310.5 c 128,-1,2
 129 344 129 344 177 344 c 0,3,4
 208 344 208 344 234 337.5 c 128,-1,5
 260 331 260 331 295 319 c 0,6,7
 326 308 326 308 347 302.5 c 128,-1,8
 368 297 368 297 392 297 c 0,9,10
 443 297 443 297 494 346 c 1,11,-1
 498 343 l 1,12,13
 490 288 490 288 457 254.5 c 128,-1,14
 424 221 424 221 376 221 c 0,15,16
 345 221 345 221 318.5 227.5 c 128,-1,17
 292 234 292 234 257 246 c 0,18,19
 226 257 226 257 205 262.5 c 128,-1,20
 184 268 184 268 161 268 c 0,21,22
 110 268 110 268 59 219 c 1,23,-1
 55 222 l 1,0,1
EndSplineSet
EndChar

StartChar: uni00A1
Encoding: 161 161 98
Width: 268
GlyphClass: 1
Flags: W
LayerCount: 2
Fore
SplineSet
214 -1 m 1,0,-1
 184 -8 l 1,1,-1
 154 -10 l 1,2,-1
 120 -6 l 2,3,4
 103 -2 103 -2 88 6 c 2,5,-1
 65 25 l 2,6,7
 56 37 56 37 56 52 c 0,8,9
 56 104 56 104 63 158 c 2,10,-1
 79 268 l 1,11,-1
 97 379 l 2,12,13
 106 434 106 434 108 490 c 1,14,-1
 103 528 l 1,15,-1
 90 560 l 1,16,-1
 108 564 l 1,17,-1
 121 565 l 2,18,19
 147 565 147 565 157 548 c 128,-1,20
 167 531 167 531 167 497 c 2,21,-1
 167 403 l 1,22,-1
 166 295 l 1,23,-1
 169 193 l 1,24,-1
 179 101 l 2,25,26
 185 59 185 59 194 31 c 0,27,28
 202 4 202 4 214 -1 c 1,0,-1
187 690 m 0,29,30
 187 664 187 664 168 646 c 0,31,32
 151 628 151 628 125 628 c 0,33,34
 100 628 100 628 81 646 c 0,35,36
 64 664 64 664 64 690 c 0,37,38
 64 715 64 715 81 733 c 0,39,40
 100 751 100 751 125 751 c 0,41,42
 151 751 151 751 168 733 c 0,43,44
 187 715 187 715 187 690 c 0,29,30
EndSplineSet
EndChar

StartChar: uni00A2
Encoding: 162 162 99
Width: 533
GlyphClass: 1
Flags: W
LayerCount: 2
Fore
SplineSet
153 272 m 0,0,1
 153 202 153 202 182 151 c 0,2,3
 212 102 212 102 259 79 c 1,4,-1
 262 448 l 1,5,6
 236 439 236 439 215 420 c 0,7,8
 195 401 195 401 180 376 c 0,9,10
 166 352 166 352 159 325 c 0,11,12
 153 298 153 298 153 272 c 0,0,1
334 594 m 1,13,-1
 333 570 l 1,14,-1
 333 509 l 1,15,-1
 384 502 l 2,16,17
 408 497 408 497 426 488 c 2,18,-1
 454 468 l 2,19,20
 465 456 465 456 465 441 c 0,21,22
 465 427 465 427 455 410 c 0,23,24
 446 394 446 394 424 375 c 1,25,26
 421 393 421 393 411 406 c 2,27,-1
 390 430 l 2,28,29
 377 440 377 440 362 445 c 2,30,-1
 333 454 l 1,31,-1
 332 358 l 1,32,-1
 331 253 l 1,33,-1
 330 151 l 1,34,-1
 330 61 l 1,35,-1
 337 61 l 2,36,37
 377 61 377 61 413 80 c 0,38,39
 450 99 450 99 480 141 c 1,40,41
 480 107 480 107 467 82 c 1,42,-1
 433 39 l 1,43,44
 412 21 412 21 385 11 c 0,45,46
 358 0 358 0 330 -5 c 1,47,-1
 330 -32 l 1,48,-1
 331 -102 l 1,49,-1
 334 -148 l 1,50,-1
 324 -150 l 1,51,-1
 314 -151 l 1,52,-1
 300 -151 l 1,53,-1
 272 -147 l 2,54,55
 257 -143 257 -143 257 -128 c 2,56,-1
 257 -94 l 1,57,-1
 258 -57 l 1,58,-1
 258 -9 l 1,59,60
 205 -5 205 -5 165 19 c 0,61,62
 125 42 125 42 99 76 c 128,-1,63
 73 110 73 110 61 152 c 0,64,65
 47 193 47 193 47 233 c 0,66,67
 47 281 47 281 62 326 c 0,68,69
 76 371 76 371 105 408 c 0,70,71
 132 445 132 445 172 471 c 128,-1,72
 212 497 212 497 262 506 c 1,73,-1
 260 566 l 1,74,-1
 257 604 l 1,75,-1
 271 606 l 1,76,-1
 284 608 l 1,77,-1
 302 608 l 1,78,-1
 324 605 l 1,79,-1
 334 594 l 1,13,-1
EndSplineSet
EndChar

StartChar: uni00A3
Encoding: 163 163 100
Width: 564
GlyphClass: 1
Flags: W
LayerCount: 2
Fore
SplineSet
344 500 m 1,0,-1
 386 505 l 1,1,-1
 397 510 l 1,2,-1
 398 496 l 1,3,-1
 398 483 l 2,4,5
 398 457 398 457 385 449 c 0,6,7
 370 442 370 442 343 442 c 2,8,-1
 325 442 l 1,9,-1
 294 443 l 1,10,-1
 263 443 l 1,11,-1
 245 443 l 1,12,-1
 244 433 l 1,13,-1
 244 423 l 1,14,-1
 246 312 l 1,15,-1
 248 185 l 2,16,17
 248 147 248 147 240 123 c 2,18,-1
 218 76 l 1,19,-1
 257 79 l 1,20,-1
 320 77 l 1,21,-1
 388 74 l 1,22,-1
 437 73 l 2,23,24
 482 73 482 73 514 85 c 0,25,26
 544 96 544 96 562 117 c 1,27,-1
 564 99 l 1,28,-1
 565 82 l 2,29,30
 565 28 565 28 529 10 c 0,31,32
 493 -9 493 -9 427 -9 c 2,33,-1
 346 -5 l 1,34,-1
 247 0 l 1,35,-1
 165 -1 l 1,36,-1
 113 -4 l 1,37,-1
 85 -8 l 1,38,-1
 70 -12 l 1,39,-1
 60 -15 l 1,40,-1
 50 -16 l 1,41,-1
 92 25 l 2,42,43
 108 46 108 46 119 75 c 0,44,45
 130 106 130 106 134 149 c 2,46,-1
 138 263 l 1,47,-1
 137 349 l 1,48,-1
 133 399 l 1,49,-1
 125 425 l 1,50,-1
 113 441 l 1,51,-1
 94 453 l 1,52,-1
 65 464 l 1,53,-1
 65 500 l 1,54,55
 97 500 97 500 115 517 c 0,56,57
 134 533 134 533 134 560 c 2,58,-1
 133 575 l 1,59,-1
 133 593 l 2,60,61
 133 644 133 644 154 680 c 0,62,63
 176 715 176 715 210 738 c 0,64,65
 244 760 244 760 285 770 c 1,66,-1
 367 781 l 1,67,-1
 435 773 l 1,68,69
 467 764 467 764 491 749 c 0,70,71
 516 735 516 735 530 711 c 0,72,73
 544 689 544 689 544 660 c 1,74,75
 524 691 524 691 484 707 c 128,-1,76
 444 723 444 723 402 723 c 1,77,-1
 354 717 l 2,78,79
 328 710 328 710 305 696 c 0,80,81
 281 680 281 680 265 657 c 0,82,83
 249 633 249 633 248 599 c 2,84,-1
 247 547 l 1,85,-1
 243 520 l 1,86,-1
 242 503 l 1,87,-1
 242 500 l 1,88,-1
 344 500 l 1,0,-1
EndSplineSet
EndChar

StartChar: currency
Encoding: 164 164 101
Width: 576
GlyphClass: 2
Flags: W
LayerCount: 2
Fore
SplineSet
124 0 m 1,0,-1
 124 200 l 1,1,-1
 64 200 l 1,2,-1
 64 240 l 1,3,-1
 124 240 l 1,4,-1
 124 290 l 1,5,-1
 64 290 l 1,6,-1
 64 330 l 1,7,-1
 124 330 l 1,8,-1
 124 540 l 2,9,10
 124 585 124 585 111.5 612.5 c 128,-1,11
 99 640 99 640 54 640 c 2,12,-1
 34 640 l 1,13,-1
 34 660 l 1,14,-1
 294 660 l 2,15,16
 359 660 359 660 416 643.5 c 128,-1,17
 473 627 473 627 508.5 587.5 c 128,-1,18
 544 548 544 548 544 480 c 0,19,20
 544 408 544 408 508.5 366.5 c 128,-1,21
 473 325 473 325 416 307.5 c 128,-1,22
 359 290 359 290 294 290 c 2,23,-1
 214 290 l 1,24,-1
 214 240 l 1,25,-1
 474 240 l 1,26,-1
 474 200 l 1,27,-1
 214 200 l 1,28,-1
 214 0 l 1,29,-1
 124 0 l 1,0,-1
214 330 m 1,30,-1
 294 330 l 2,31,32
 336 332 336 332 370 347.5 c 128,-1,33
 404 363 404 363 424 395.5 c 128,-1,34
 444 428 444 428 444 480 c 0,35,36
 444 530 444 530 423 562 c 128,-1,37
 402 594 402 594 366.5 609.5 c 128,-1,38
 331 625 331 625 289 625 c 0,39,40
 270 625 270 625 249.5 622 c 128,-1,41
 229 619 229 619 214 615 c 1,42,-1
 214 330 l 1,30,-1
EndSplineSet
EndChar

StartChar: uni00A5
Encoding: 165 165 102
Width: 596
GlyphClass: 1
Flags: W
LayerCount: 2
Fore
SplineSet
518 130 m 2,0,-1
 487 131 l 1,1,-1
 452 132 l 1,2,-1
 411 133 l 1,3,-1
 412 95 l 1,4,-1
 412 58 l 2,5,6
 412 17 412 17 392 4 c 0,7,8
 373 -10 373 -10 346 -10 c 2,9,-1
 314 -7 l 1,10,-1
 279 0 l 1,11,-1
 281 4 l 1,12,-1
 284 20 l 1,13,-1
 287 60 l 1,14,-1
 289 134 l 1,15,-1
 222 133 l 1,16,-1
 177 130 l 1,17,-1
 175 140 l 1,18,-1
 174 151 l 1,19,-1
 174 164 l 1,20,-1
 179 192 l 2,21,22
 183 207 183 207 198 207 c 2,23,-1
 224 206 l 1,24,-1
 253 204 l 1,25,-1
 290 204 l 1,26,-1
 290 253 l 1,27,-1
 290 280 l 1,28,-1
 222 279 l 1,29,-1
 177 276 l 1,30,-1
 175 286 l 1,31,-1
 174 297 l 1,32,-1
 174 310 l 1,33,-1
 179 339 l 2,34,35
 183 353 183 353 198 353 c 2,36,-1
 220 352 l 1,37,-1
 246 351 l 1,38,-1
 276 350 l 1,39,-1
 249 385 l 1,40,-1
 214 434 l 1,41,-1
 178 491 l 1,42,-1
 141 550 l 1,43,-1
 108 605 l 1,44,-1
 81 648 l 1,45,-1
 64 668 l 1,46,-1
 47 685 l 1,47,-1
 28 700 l 1,48,-1
 47 706 l 1,49,-1
 71 710 l 1,50,-1
 104 713 l 1,51,-1
 156 707 l 1,52,-1
 192 690 l 1,53,-1
 218 662 l 1,54,-1
 240 629 l 1,55,-1
 272 572 l 1,56,-1
 308 512 l 1,57,-1
 346 452 l 1,58,-1
 383 400 l 1,59,-1
 448 498 l 1,60,-1
 494 578 l 1,61,-1
 528 638 l 1,62,-1
 559 680 l 1,63,-1
 594 705 l 1,64,-1
 641 713 l 1,65,-1
 658 710 l 1,66,-1
 670 706 l 1,67,-1
 678 700 l 1,68,-1
 655 682 l 1,69,-1
 632 661 l 1,70,-1
 609 635 l 1,71,-1
 566 576 l 1,72,-1
 511 495 l 1,73,-1
 457 412 l 1,74,-1
 417 348 l 1,75,-1
 420 348 l 1,76,-1
 486 350 l 1,77,-1
 529 353 l 1,78,-1
 531 340 l 1,79,-1
 532 325 l 1,80,-1
 533 308 l 1,81,-1
 530 285 l 2,82,83
 527 276 527 276 518 276 c 2,84,-1
 486 277 l 1,85,-1
 451 278 l 1,86,-1
 408 279 l 1,87,-1
 408 244 l 1,88,-1
 410 202 l 1,89,-1
 420 202 l 1,90,-1
 486 203 l 1,91,-1
 529 207 l 1,92,-1
 531 194 l 1,93,-1
 532 180 l 1,94,-1
 533 162 l 1,95,-1
 530 140 l 2,96,97
 527 130 527 130 518 130 c 2,0,-1
EndSplineSet
EndChar

StartChar: brokenbar
Encoding: 166 166 103
Width: 246
GlyphClass: 2
Flags: W
LayerCount: 2
Fore
SplineSet
78 330 m 1,0,-1
 78 680 l 1,1,-1
 168 680 l 1,2,-1
 168 330 l 1,3,-1
 78 330 l 1,0,-1
78 -190 m 1,4,-1
 78 160 l 1,5,-1
 168 160 l 1,6,-1
 168 -190 l 1,7,-1
 78 -190 l 1,4,-1
EndSplineSet
EndChar

StartChar: uni00A7
Encoding: 167 167 104
Width: 411
GlyphClass: 1
Flags: W
LayerCount: 2
Fore
SplineSet
172 275 m 1,0,-1
 211 108 l 2,1,2
 228 32 228 32 228 -37 c 2,3,-1
 225 -92 l 1,4,-1
 213 -145 l 1,5,6
 250 -130 250 -130 272 -95 c 0,7,8
 295 -59 295 -59 295 8 c 1,9,-1
 292 51 l 1,10,-1
 281 104 l 1,11,-1
 263 177 l 1,12,-1
 236 280 l 1,13,-1
 197 448 l 2,14,15
 179 525 179 525 179 594 c 0,16,17
 179 649 179 649 195 700 c 1,18,19
 160 686 160 686 137 650 c 0,20,21
 115 614 115 614 115 548 c 0,22,23
 115 527 115 527 118 505 c 2,24,-1
 127 452 l 1,25,-1
 145 378 l 1,26,-1
 172 275 l 1,0,-1
181 -206 m 1,27,-1
 112 -196 l 2,28,29
 83 -188 83 -188 63 -173 c 1,30,-1
 36 -144 l 1,31,-1
 28 -116 l 1,32,-1
 29 -104 l 1,33,-1
 30 -98 l 1,34,35
 59 -125 59 -125 98 -140 c 0,36,37
 136 -154 136 -154 172 -154 c 1,38,-1
 176 -146 l 1,39,-1
 178 -126 l 1,40,-1
 178 -105 l 1,41,-1
 178 -88 l 1,42,-1
 175 -23 l 1,43,-1
 164 56 l 1,44,-1
 141 158 l 1,45,-1
 106 291 l 2,46,47
 81 383 81 383 69 446 c 0,48,49
 56 510 56 510 56 560 c 0,50,51
 56 602 56 602 70 639 c 0,52,53
 83 676 83 676 105 703 c 0,54,55
 127 732 127 732 159 746 c 0,56,57
 190 762 190 762 227 762 c 1,58,-1
 296 752 l 1,59,60
 327 743 327 743 345 729 c 2,61,-1
 373 700 l 1,62,-1
 381 673 l 1,63,-1
 380 664 l 1,64,-1
 380 659 l 1,65,-1
 380 654 l 1,66,67
 349 681 349 681 310 695 c 128,-1,68
 271 709 271 709 235 709 c 1,69,-1
 231 701 l 1,70,-1
 230 683 l 1,71,-1
 229 662 l 1,72,-1
 229 647 l 1,73,-1
 233 582 l 2,74,75
 236 547 236 547 245 502 c 0,76,77
 252 457 252 457 267 399 c 2,78,-1
 302 265 l 2,79,80
 329 173 329 173 340 109 c 0,81,82
 352 46 352 46 352 -4 c 0,83,84
 352 -46 352 -46 339 -83 c 0,85,86
 327 -120 327 -120 304 -148 c 0,87,88
 282 -176 282 -176 250 -191 c 128,-1,89
 218 -206 218 -206 181 -206 c 1,27,-1
EndSplineSet
EndChar

StartChar: uni00A8
Encoding: 168 168 105
Width: 400
GlyphClass: 1
Flags: W
LayerCount: 2
Fore
SplineSet
247 649 m 128,-1,1
 247 673 247 673 265 691 c 0,2,3
 282 708 282 708 306 708 c 128,-1,4
 330 708 330 708 348 691 c 0,5,6
 365 673 365 673 365 649 c 128,-1,7
 365 625 365 625 348 608 c 0,8,9
 330 590 330 590 306 590 c 128,-1,10
 282 590 282 590 265 608 c 0,11,0
 247 625 247 625 247 649 c 128,-1,1
44 649 m 128,-1,13
 44 673 44 673 62 691 c 0,14,15
 79 708 79 708 104 708 c 0,16,17
 127 708 127 708 145 691 c 0,18,19
 162 673 162 673 162 649 c 128,-1,20
 162 625 162 625 145 608 c 0,21,22
 127 590 127 590 104 590 c 0,23,24
 79 590 79 590 62 608 c 0,25,12
 44 625 44 625 44 649 c 128,-1,13
EndSplineSet
EndChar

StartChar: uni00A9
Encoding: 169 169 106
Width: 837
GlyphClass: 1
Flags: W
LayerCount: 2
Fore
SplineSet
705 351 m 0,0,1
 705 417 705 417 685 472 c 0,2,3
 663 527 663 527 625 567 c 0,4,5
 587 606 587 606 535 628 c 0,6,7
 483 651 483 651 419 651 c 0,8,9
 359 651 359 651 307 628 c 0,10,11
 253 606 253 606 214 566 c 0,12,13
 174 525 174 525 150 469 c 0,14,15
 127 413 127 413 127 346 c 0,16,17
 127 281 127 281 149 228 c 0,18,19
 172 173 172 173 212 133 c 0,20,21
 251 93 251 93 305 70 c 0,22,23
 358 48 358 48 421 48 c 0,24,25
 479 48 479 48 530 70 c 0,26,27
 581 93 581 93 620 133 c 0,28,29
 659 174 659 174 683 230 c 0,30,31
 705 284 705 284 705 351 c 0,0,1
781 363 m 0,32,33
 781 280 781 280 754 211 c 128,-1,34
 727 142 727 142 676 92 c 128,-1,35
 625 42 625 42 555 14 c 128,-1,36
 485 -14 485 -14 398 -14 c 0,37,38
 320 -14 320 -14 257 13 c 0,39,40
 193 40 193 40 146 86 c 0,41,42
 101 133 101 133 74 196 c 0,43,44
 49 260 49 260 49 333 c 0,45,46
 49 417 49 417 77 486 c 128,-1,47
 105 555 105 555 156 605 c 0,48,49
 208 654 208 654 280 682 c 0,50,51
 354 709 354 709 442 709 c 0,52,53
 517 709 517 709 578 683 c 0,54,55
 641 656 641 656 686 610 c 128,-1,56
 731 564 731 564 756 500 c 0,57,58
 781 437 781 437 781 363 c 0,32,33
544 297 m 1,59,60
 544 267 544 267 532 245 c 0,61,62
 520 224 520 224 500 210 c 0,63,64
 482 197 482 197 457 191 c 2,65,-1
 411 185 l 1,66,67
 372 185 372 185 343 199 c 0,68,69
 314 214 314 214 294 237 c 0,70,71
 275 261 275 261 266 289 c 0,72,73
 256 318 256 318 256 345 c 0,74,75
 256 382 256 382 270 415 c 0,76,77
 283 448 283 448 308 474 c 0,78,79
 331 499 331 499 364 514 c 0,80,81
 398 529 398 529 436 529 c 2,82,-1
 468 526 l 1,83,-1
 500 515 l 2,84,85
 516 509 516 509 526 499 c 0,86,87
 535 489 535 489 535 478 c 2,88,-1
 528 455 l 1,89,-1
 500 427 l 1,90,-1
 489 454 l 1,91,-1
 471 471 l 1,92,-1
 449 481 l 1,93,-1
 430 484 l 2,94,95
 406 484 406 484 389 474 c 0,96,97
 370 463 370 463 358 445 c 0,98,99
 347 429 347 429 340 408 c 0,100,101
 333 388 333 388 333 369 c 0,102,103
 333 338 333 338 343 314 c 128,-1,104
 353 290 353 290 368 274 c 0,105,106
 385 256 385 256 405 247 c 0,107,108
 426 238 426 238 447 238 c 0,109,110
 473 238 473 238 497 252 c 0,111,112
 522 265 522 265 544 297 c 1,59,60
EndSplineSet
EndChar

StartChar: uni00AA
Encoding: 170 170 107
Width: 386
GlyphClass: 1
Flags: W
LayerCount: 2
Fore
SplineSet
217 435 m 1,0,-1
 217 460 l 1,1,-1
 218 491 l 1,2,-1
 219 523 l 1,3,-1
 220 551 l 1,4,-1
 189 545 l 1,5,-1
 155 532 l 2,6,7
 138 523 138 523 127 507 c 0,8,9
 114 492 114 492 114 468 c 0,10,11
 114 449 114 449 125 433 c 128,-1,12
 136 417 136 417 158 417 c 2,13,-1
 191 423 l 2,14,15
 210 430 210 430 217 435 c 1,0,-1
125 369 m 0,16,17
 80 369 80 369 59 395 c 128,-1,18
 38 421 38 421 38 455 c 0,19,20
 38 491 38 491 56 514 c 128,-1,21
 74 537 74 537 101 550 c 0,22,23
 128 564 128 564 160 570 c 2,24,-1
 220 577 l 1,25,-1
 220 585 l 1,26,-1
 218 615 l 1,27,-1
 208 644 l 1,28,-1
 189 664 l 2,29,30
 178 672 178 672 156 672 c 0,31,32
 135 672 135 672 109 658 c 0,33,34
 84 644 84 644 64 621 c 1,35,36
 65 642 65 642 76 658 c 2,37,-1
 103 687 l 1,38,39
 120 698 120 698 141 704 c 2,40,-1
 183 710 l 1,41,-1
 245 700 l 1,42,-1
 280 674 l 1,43,-1
 295 638 l 1,44,-1
 299 598 l 1,45,-1
 297 541 l 1,46,-1
 296 486 l 1,47,-1
 295 460 l 1,48,-1
 297 436 l 1,49,-1
 305 416 l 2,50,51
 310 409 310 409 322 409 c 0,52,53
 333 409 333 409 352 421 c 1,54,55
 352 403 352 403 331 387 c 0,56,57
 309 371 309 371 279 371 c 0,58,59
 259 371 259 371 241 380 c 128,-1,60
 223 389 223 389 220 409 c 1,61,-1
 180 381 l 1,62,63
 154 369 154 369 125 369 c 0,16,17
EndSplineSet
EndChar

StartChar: uni00AB
Encoding: 171 171 108
Width: 577
GlyphClass: 1
Flags: W
LayerCount: 2
Fore
SplineSet
665 119 m 1,0,-1
 670 109 l 1,1,-1
 660 86 l 1,2,-1
 642 59 l 1,3,-1
 635 49 l 1,4,-1
 599 72 l 1,5,-1
 543 106 l 1,6,-1
 477 144 l 1,7,-1
 414 178 l 1,8,-1
 367 203 l 1,9,-1
 348 214 l 1,10,-1
 342 221 l 1,11,-1
 331 235 l 1,12,-1
 321 254 l 1,13,-1
 317 273 l 2,14,15
 317 284 317 284 327 291 c 2,16,-1
 347 301 l 1,17,-1
 398 328 l 1,18,-1
 465 365 l 1,19,-1
 535 404 l 1,20,-1
 596 441 l 1,21,-1
 632 465 l 1,22,-1
 635 460 l 1,23,-1
 647 445 l 1,24,-1
 660 424 l 1,25,-1
 667 403 l 2,26,27
 667 396 667 396 661 394 c 2,28,-1
 640 382 l 1,29,-1
 587 354 l 1,30,-1
 517 316 l 1,31,-1
 446 275 l 1,32,-1
 418 259 l 1,33,34
 450 238 450 238 493 215 c 2,35,-1
 573 170 l 1,36,-1
 665 119 l 1,0,-1
393 119 m 1,37,-1
 398 109 l 1,38,-1
 389 86 l 1,39,-1
 372 59 l 1,40,-1
 363 49 l 1,41,-1
 329 72 l 1,42,-1
 272 106 l 1,43,-1
 206 144 l 1,44,-1
 143 178 l 1,45,-1
 95 203 l 1,46,-1
 77 214 l 1,47,-1
 70 221 l 1,48,-1
 60 235 l 1,49,-1
 50 254 l 1,50,-1
 47 273 l 2,51,52
 47 284 47 284 56 291 c 2,53,-1
 76 301 l 1,54,-1
 127 328 l 1,55,-1
 194 365 l 1,56,-1
 264 404 l 1,57,-1
 324 441 l 1,58,-1
 360 465 l 1,59,-1
 364 460 l 1,60,-1
 377 445 l 1,61,-1
 389 424 l 1,62,-1
 395 403 l 1,63,-1
 390 394 l 1,64,-1
 369 382 l 1,65,-1
 315 354 l 1,66,-1
 246 316 l 1,67,-1
 175 275 l 1,68,-1
 146 259 l 1,69,-1
 221 215 l 1,70,-1
 302 170 l 1,71,-1
 393 119 l 1,37,-1
EndSplineSet
EndChar

StartChar: logicalnot
Encoding: 172 172 109
Width: 654
GlyphClass: 2
Flags: W
LayerCount: 2
Fore
SplineSet
528 130 m 1,0,-1
 528 230 l 1,1,-1
 68 230 l 1,2,-1
 68 290 l 1,3,-1
 588 290 l 1,4,-1
 588 130 l 1,5,-1
 528 130 l 1,0,-1
EndSplineSet
EndChar

StartChar: uni00AE
Encoding: 174 174 111
Width: 553
GlyphClass: 1
Flags: W
LayerCount: 2
Fore
SplineSet
241 648 m 1,0,-1
 240 597 l 1,1,-1
 240 549 l 1,2,-1
 266 546 l 2,3,4
 286 546 286 546 299 557 c 128,-1,5
 312 568 312 568 312 595 c 0,6,7
 312 616 312 616 298 632 c 0,8,9
 283 648 283 648 248 648 c 2,10,-1
 241 648 l 1,0,-1
187 513 m 1,11,-1
 187 541 l 1,12,-1
 187 574 l 1,13,-1
 186 607 l 1,14,-1
 185 631 l 1,15,-1
 182 664 l 1,16,-1
 180 673 l 1,17,-1
 192 672 l 1,18,-1
 216 672 l 1,19,-1
 262 672 l 2,20,21
 311 672 311 672 336 652 c 0,22,23
 359 632 359 632 359 603 c 0,24,25
 359 580 359 580 344 558 c 0,26,27
 330 536 330 536 307 531 c 1,28,-1
 320 520 l 1,29,-1
 333 502 l 1,30,-1
 359 459 l 1,31,-1
 378 432 l 1,32,-1
 391 417 l 1,33,-1
 402 409 l 1,34,-1
 390 406 l 1,35,-1
 361 403 l 1,36,-1
 343 405 l 2,37,38
 336 406 336 406 331 411 c 2,39,-1
 321 423 l 1,40,-1
 311 441 l 1,41,-1
 298 467 l 1,42,-1
 282 493 l 1,43,-1
 263 515 l 2,44,45
 253 525 253 525 240 528 c 1,46,-1
 240 513 l 1,47,-1
 241 474 l 1,48,-1
 242 431 l 2,49,50
 242 415 242 415 233 409 c 128,-1,51
 224 403 224 403 213 403 c 2,52,-1
 197 405 l 1,53,-1
 180 407 l 1,54,-1
 182 411 l 1,55,-1
 184 426 l 1,56,-1
 186 457 l 1,57,-1
 187 513 l 1,11,-1
469 534 m 0,58,59
 469 577 469 577 454 614 c 0,60,61
 440 650 440 650 416 676 c 0,62,63
 390 702 390 702 355 716 c 0,64,65
 320 731 320 731 278 731 c 0,66,67
 239 731 239 731 205 716 c 0,68,69
 170 702 170 702 143 675 c 128,-1,70
 116 648 116 648 101 611 c 0,71,72
 87 573 87 573 87 529 c 0,73,74
 87 487 87 487 101 451 c 128,-1,75
 115 415 115 415 142 389 c 0,76,77
 169 362 169 362 204 348 c 0,78,79
 239 333 239 333 281 333 c 0,80,81
 318 333 318 333 352 348 c 0,82,83
 386 362 386 362 412 390 c 0,84,85
 437 416 437 416 453 453 c 0,86,87
 469 489 469 489 469 534 c 0,58,59
517 542 m 0,88,89
 517 487 517 487 499 442 c 0,90,91
 481 396 481 396 448 362 c 0,92,93
 415 330 415 330 368 312 c 0,94,95
 321 293 321 293 263 293 c 0,96,97
 214 293 214 293 172 311 c 0,98,99
 130 328 130 328 99 359 c 0,100,101
 69 390 69 390 51 432 c 0,102,103
 35 473 35 473 35 521 c 0,104,105
 35 576 35 576 53 622 c 0,106,107
 72 668 72 668 105 701 c 0,108,109
 139 734 139 734 187 752 c 128,-1,110
 235 770 235 770 294 770 c 0,111,112
 343 770 343 770 384 752 c 0,113,114
 425 735 425 735 454 704 c 0,115,116
 484 674 484 674 501 632 c 0,117,118
 517 591 517 591 517 542 c 0,88,89
EndSplineSet
EndChar

StartChar: uni00AF
Encoding: 175 175 112
Width: 400
GlyphClass: 1
Flags: W
LayerCount: 2
Fore
SplineSet
349 613 m 2,0,-1
 290 615 l 1,1,-1
 227 616 l 1,2,-1
 155 617 l 1,3,-1
 85 616 l 1,4,-1
 39 613 l 1,5,-1
 37 623 l 1,6,-1
 36 634 l 1,7,-1
 36 647 l 1,8,-1
 40 676 l 2,9,10
 44 690 44 690 58 690 c 2,11,-1
 118 687 l 1,12,-1
 179 686 l 1,13,-1
 251 685 l 1,14,-1
 317 687 l 1,15,-1
 359 690 l 1,16,-1
 361 677 l 1,17,-1
 363 662 l 1,18,-1
 364 645 l 1,19,-1
 360 622 l 2,20,21
 357 613 357 613 349 613 c 2,0,-1
EndSplineSet
EndChar

StartChar: uni00B0
Encoding: 176 176 113
Width: 373
GlyphClass: 1
Flags: W
LayerCount: 2
Fore
SplineSet
337 551 m 128,-1,1
 337 520 337 520 324 493 c 128,-1,2
 311 466 311 466 291 445 c 0,3,4
 269 425 269 425 241 413 c 0,5,6
 214 401 214 401 183 401 c 0,7,8
 153 401 153 401 127 413 c 0,9,10
 99 425 99 425 79 445 c 0,11,12
 58 466 58 466 46 493 c 0,13,14
 33 520 33 520 33 551 c 128,-1,15
 33 582 33 582 46 609 c 0,16,17
 58 636 58 636 79 657 c 0,18,19
 99 677 99 677 127 689 c 0,20,21
 153 701 153 701 183 701 c 1,22,-1
 241 689 l 1,23,24
 269 677 269 677 291 657 c 0,25,26
 311 636 311 636 324 609 c 128,-1,0
 337 582 337 582 337 551 c 128,-1,1
280 553 m 2,27,28
 280 571 280 571 272 588 c 2,29,-1
 251 618 l 1,30,-1
 220 639 l 1,31,-1
 184 646 l 1,32,-1
 148 639 l 1,33,-1
 118 618 l 1,34,-1
 97 588 l 2,35,36
 89 571 89 571 89 553 c 128,-1,37
 89 535 89 535 96 517 c 0,38,39
 104 499 104 499 117 485 c 2,40,-1
 147 461 l 1,41,-1
 184 453 l 1,42,43
 207 453 207 453 224 461 c 0,44,45
 242 470 242 470 255 485 c 2,46,-1
 274 517 l 1,47,-1
 280 553 l 2,27,28
EndSplineSet
EndChar

StartChar: plusminus
Encoding: 177 177 114
Width: 442
GlyphClass: 2
Flags: W
LayerCount: 2
Fore
SplineSet
142 -12 m 2,0,1
 223 -15 223 -15 284 -15 c 0,2,3
 365 -15 365 -15 393 -10 c 1,4,-1
 395 -24 l 2,5,6
 397 -39 397 -39 397 -55 c 0,7,8
 397 -87 397 -87 383 -87 c 2,9,-1
 302 -85 l 2,10,11
 221 -83 221 -83 158 -83 c 0,12,13
 70 -83 70 -83 42 -87 c 1,14,-1
 40 -76 l 2,15,16
 39 -64 39 -64 39 -53 c 0,17,18
 39 -10 39 -10 62 -10 c 2,19,-1
 142 -12 l 2,0,1
186 261 m 1,20,-1
 161 261 l 2,21,22
 73 261 73 261 45 257 c 1,23,-1
 44 268 l 2,24,25
 42 280 42 280 42 291 c 0,26,27
 42 334 42 334 65 334 c 2,28,-1
 106 332 l 2,29,30
 146 331 146 331 187 330 c 1,31,-1
 187 361 l 2,32,33
 187 442 187 442 182 470 c 1,34,-1
 196 472 l 2,35,36
 211 474 211 474 227 474 c 0,37,38
 259 474 259 474 259 460 c 2,39,-1
 255 329 l 1,40,-1
 287 329 l 2,41,42
 368 329 368 329 396 334 c 1,43,-1
 398 320 l 2,44,45
 400 305 400 305 400 289 c 0,46,47
 400 257 400 257 386 257 c 2,48,-1
 255 260 l 1,49,-1
 255 235 l 2,50,51
 255 147 255 147 259 119 c 1,52,-1
 248 118 l 2,53,54
 236 116 236 116 225 116 c 0,55,56
 182 116 182 116 182 139 c 2,57,-1
 186 261 l 1,20,-1
EndSplineSet
EndChar

StartChar: uni00B2
Encoding: 178 178 115
Width: 333
GlyphClass: 2
Flags: W
LayerCount: 2
Fore
SplineSet
40 445 m 1,0,1
 44 474 44 474 62 495.5 c 128,-1,2
 80 517 80 517 114 546 c 0,3,4
 151 577 151 577 169.5 601 c 128,-1,5
 188 625 188 625 188 658 c 0,6,7
 188 678 188 678 178 693 c 128,-1,8
 168 708 168 708 143 708 c 0,9,10
 120 708 120 708 101.5 697.5 c 128,-1,11
 83 687 83 687 72 674 c 2,12,-1
 60 660 l 1,13,-1
 56 665 l 1,14,15
 59 707 59 707 89 732 c 128,-1,16
 119 757 119 757 158 757 c 0,17,18
 207 757 207 757 234 730.5 c 128,-1,19
 261 704 261 704 261 668 c 0,20,21
 261 623 261 623 233 592.5 c 128,-1,22
 205 562 205 562 153 527 c 0,23,24
 122 507 122 507 110 497 c 1,25,-1
 113 493 l 1,26,27
 143 502 143 502 237 502 c 0,28,29
 272 502 272 502 281.5 490.5 c 128,-1,30
 291 479 291 479 292 448 c 0,31,32
 293 443 293 443 293 440 c 1,33,-1
 250 442 l 2,34,35
 208 445 208 445 169 445 c 2,36,-1
 116 445 l 2,37,38
 72 445 72 445 44 442 c 1,39,-1
 40 445 l 1,0,1
EndSplineSet
EndChar

StartChar: uni00B3
Encoding: 179 179 116
Width: 296
GlyphClass: 2
Flags: W
LayerCount: 2
Fore
SplineSet
75.5 458 m 128,-1,1
 48 476 48 476 38 511 c 1,2,-1
 44 516 l 1,3,4
 79 488 79 488 121 488 c 0,5,6
 151 488 151 488 167.5 501.5 c 128,-1,7
 184 515 184 515 184 534 c 0,8,9
 184 555 184 555 165 571.5 c 128,-1,10
 146 588 146 588 112 590 c 0,11,12
 106 590 106 590 100.5 593.5 c 128,-1,13
 95 597 95 597 95 603 c 0,14,15
 95 610 95 610 98 620 c 1,16,-1
 134 626 l 2,17,18
 154 629 154 629 166.5 642.5 c 128,-1,19
 179 656 179 656 179 671 c 0,20,21
 179 687 179 687 166 697.5 c 128,-1,22
 153 708 153 708 127 708 c 0,23,24
 104 708 104 708 86.5 697.5 c 128,-1,25
 69 687 69 687 58 674 c 2,26,-1
 47 660 l 1,27,-1
 43 665 l 1,28,29
 45 709 45 709 76.5 733 c 128,-1,30
 108 757 108 757 150 757 c 0,31,32
 193 757 193 757 220.5 737 c 128,-1,33
 248 717 248 717 248 682 c 0,34,35
 248 662 248 662 234.5 644.5 c 128,-1,36
 221 627 221 627 193 615 c 1,37,-1
 193 610 l 1,38,39
 225 601 225 601 240.5 582.5 c 128,-1,40
 256 564 256 564 256 540 c 0,41,42
 256 494 256 494 223 467 c 128,-1,43
 190 440 190 440 137 440 c 0,44,0
 103 440 103 440 75.5 458 c 128,-1,1
EndSplineSet
EndChar

StartChar: uni00B4
Encoding: 180 180 117
Width: 400
GlyphClass: 1
Flags: W
LayerCount: 2
Fore
SplineSet
92 580 m 1,0,1
 176 627 176 627 230 749 c 1,2,3
 254 749 254 749 271 738 c 128,-1,4
 288 727 288 727 298 714 c 2,5,-1
 307 701 l 1,6,7
 295 653 295 653 231 612 c 128,-1,8
 167 571 167 571 123 571 c 0,9,10
 101 571 101 571 92 575 c 1,11,-1
 92 580 l 1,0,1
EndSplineSet
EndChar

StartChar: mu
Encoding: 181 181 118
Width: 529
GlyphClass: 2
Flags: W
LayerCount: 2
Fore
SplineSet
74 -190 m 1,0,-1
 74 470 l 1,1,-1
 164 470 l 1,2,-1
 164 235 l 2,3,4
 164 178 164 178 176 131.5 c 128,-1,5
 188 85 188 85 213.5 57.5 c 128,-1,6
 239 30 239 30 279 30 c 0,7,8
 320 30 320 30 344.5 48.5 c 128,-1,9
 369 67 369 67 384 90 c 1,10,-1
 384 470 l 1,11,-1
 474 470 l 1,12,-1
 474 0 l 1,13,-1
 424 0 l 1,14,-1
 389 45 l 1,15,-1
 384 45 l 1,16,17
 368 27 368 27 343.5 8.5 c 128,-1,18
 319 -10 319 -10 269 -10 c 0,19,20
 209 -10 209 -10 164 35 c 1,21,-1
 164 -190 l 1,22,-1
 74 -190 l 1,0,-1
EndSplineSet
EndChar

StartChar: uni00B6
Encoding: 182 182 119
Width: 639
GlyphClass: 1
Flags: W
LayerCount: 2
Fore
SplineSet
42 414 m 0,0,1
 42 474 42 474 62 527 c 0,2,3
 83 579 83 579 118 618 c 0,4,5
 153 658 153 658 200 680 c 0,6,7
 248 702 248 702 302 702 c 2,8,-1
 410 702 l 1,9,-1
 502 702 l 2,10,11
 540 703 540 703 549 710 c 1,12,13
 544 677 544 677 524 663 c 128,-1,14
 504 649 504 649 477 645 c 1,15,-1
 476 629 l 1,16,-1
 476 613 l 1,17,-1
 475 572 l 1,18,-1
 474 483 l 1,19,-1
 473 362 l 1,20,-1
 472 230 l 1,21,-1
 472 158 l 1,22,-1
 473 67 l 1,23,-1
 474 -28 l 1,24,-1
 475 -114 l 1,25,-1
 476 -176 l 1,26,-1
 477 -200 l 1,27,-1
 429 -200 l 1,28,-1
 430 129 l 1,29,-1
 432 369 l 1,30,-1
 430 528 l 1,31,-1
 428 642 l 1,32,-1
 384 642 l 1,33,-1
 383 628 l 1,34,-1
 383 613 l 1,35,-1
 382 572 l 1,36,-1
 381 483 l 1,37,-1
 380 362 l 1,38,-1
 379 230 l 1,39,-1
 379 158 l 1,40,-1
 380 67 l 1,41,-1
 381 -28 l 1,42,-1
 382 -114 l 1,43,-1
 383 -176 l 1,44,-1
 384 -200 l 1,45,-1
 335 -200 l 1,46,-1
 336 -45 l 1,47,-1
 337 90 l 1,48,-1
 337 111 l 1,49,-1
 339 132 l 1,50,-1
 275 120 l 1,51,52
 225 120 225 120 183 145 c 0,53,54
 140 170 140 170 109 211 c 0,55,56
 77 253 77 253 59 306 c 0,57,58
 42 358 42 358 42 414 c 0,0,1
EndSplineSet
EndChar

StartChar: uni00B7
Encoding: 183 183 120
Width: 245
GlyphClass: 1
Flags: W
LayerCount: 2
Fore
SplineSet
55 287 m 0,0,1
 55 315 55 315 74 335 c 0,2,3
 95 355 95 355 121 355 c 0,4,5
 149 355 149 355 169 335 c 128,-1,6
 189 315 189 315 189 287 c 0,7,8
 189 260 189 260 169 240 c 128,-1,9
 149 220 149 220 121 220 c 0,10,11
 95 220 95 220 74 240 c 0,12,13
 55 260 55 260 55 287 c 0,0,1
EndSplineSet
EndChar

StartChar: uni00B8
Encoding: 184 184 121
Width: 400
GlyphClass: 1
Flags: W
LayerCount: 2
Fore
SplineSet
204 0 m 1,0,-1
 199 -18 l 1,1,-1
 198 -27 l 2,2,3
 198 -38 198 -38 213 -40 c 2,4,-1
 246 -45 l 2,5,6
 265 -48 265 -48 280 -59 c 0,7,8
 295 -69 295 -69 295 -98 c 0,9,10
 295 -120 295 -120 286 -141 c 0,11,12
 278 -161 278 -161 262 -176 c 2,13,-1
 226 -200 l 1,14,-1
 182 -209 l 1,15,16
 147 -209 147 -209 125 -195 c 0,17,18
 104 -182 104 -182 104 -158 c 1,19,-1
 108 -136 l 1,20,21
 118 -148 118 -148 139 -152 c 2,22,-1
 178 -157 l 2,23,24
 201 -157 201 -157 218 -147 c 0,25,26
 235 -136 235 -136 235 -119 c 0,27,28
 235 -106 235 -106 220 -101 c 2,29,-1
 190 -92 l 2,30,31
 173 -88 173 -88 159 -81 c 0,32,33
 146 -74 146 -74 146 -54 c 0,34,35
 146 -40 146 -40 155 -25 c 0,36,37
 163 -11 163 -11 184 0 c 1,38,-1
 204 0 l 1,0,-1
EndSplineSet
EndChar

StartChar: uni00B9
Encoding: 185 185 122
Width: 269
GlyphClass: 2
Flags: W
LayerCount: 2
Fore
SplineSet
35 458 m 2,0,1
 35 467 35 467 43 470.5 c 128,-1,2
 51 474 51 474 67 477 c 0,3,4
 81 479 81 479 88 481 c 2,5,-1
 98 484 l 1,6,-1
 100 529 l 2,7,8
 103 574 103 574 103 606 c 0,9,10
 103 611 103 611 103 621 c 0,11,12
 105 680 105 680 97 700 c 128,-1,13
 89 720 89 720 54 721 c 0,14,15
 53 721 53 721 51 721 c 0,16,17
 42 722 42 722 39 724.5 c 128,-1,18
 36 727 36 727 36 737 c 0,19,20
 36 744 36 744 38 752 c 1,21,-1
 211 752 l 2,22,23
 225 752 225 752 229.5 747.5 c 128,-1,24
 234 743 234 743 234 734 c 2,25,-1
 234 720 l 1,26,27
 201 720 201 720 187.5 715.5 c 128,-1,28
 174 711 174 711 169.5 696 c 128,-1,29
 165 681 165 681 165 645 c 0,30,31
 165 644 165 644 165 635 c 0,32,33
 164 502 164 502 166 485 c 1,34,-1
 178 482 l 2,35,36
 183 481 183 481 194 479 c 0,37,38
 214 475 214 475 223.5 471 c 128,-1,39
 233 467 233 467 233 458 c 0,40,41
 233 448 233 448 232 445 c 2,42,-1
 37 445 l 1,43,-1
 35 458 l 2,0,1
EndSplineSet
EndChar

StartChar: uni00BA
Encoding: 186 186 123
Width: 404
GlyphClass: 1
Flags: W
LayerCount: 2
Fore
SplineSet
122 548 m 0,0,1
 122 514 122 514 130 488 c 128,-1,2
 138 462 138 462 149 445 c 0,3,4
 161 426 161 426 177 417 c 0,5,6
 191 408 191 408 207 408 c 0,7,8
 222 408 222 408 235 415 c 0,9,10
 249 423 249 423 260 438 c 128,-1,11
 271 453 271 453 277 477 c 2,12,-1
 283 532 l 2,13,14
 283 566 283 566 276 593 c 128,-1,15
 269 620 269 620 257 639 c 1,16,-1
 229 668 l 2,17,18
 214 678 214 678 197 678 c 0,19,20
 169 678 169 678 145 647 c 0,21,22
 122 615 122 615 122 548 c 0,0,1
36 537 m 0,23,24
 36 578 36 578 53 611 c 0,25,26
 68 643 68 643 94 665 c 0,27,28
 119 687 119 687 152 699 c 0,29,30
 185 710 185 710 218 710 c 1,31,-1
 274 700 l 2,32,33
 303 691 303 691 323 671 c 0,34,35
 345 652 345 652 357 622 c 0,36,37
 370 592 370 592 370 552 c 0,38,39
 370 509 370 509 355 476 c 0,40,41
 338 442 338 442 313 419 c 0,42,43
 286 396 286 396 254 384 c 128,-1,44
 222 372 222 372 188 372 c 1,45,-1
 132 381 l 1,46,47
 104 391 104 391 83 411 c 0,48,49
 62 432 62 432 50 463 c 0,50,51
 36 494 36 494 36 537 c 0,23,24
EndSplineSet
EndChar

StartChar: uni00BB
Encoding: 187 187 124
Width: 578
GlyphClass: 1
Flags: W
LayerCount: 2
Fore
SplineSet
68 119 m 2,0,-1
 159 170 l 1,1,-1
 240 215 l 1,2,-1
 315 259 l 1,3,-1
 287 275 l 1,4,-1
 215 316 l 1,5,-1
 146 354 l 1,6,-1
 93 382 l 1,7,-1
 72 394 l 2,8,9
 66 396 66 396 66 403 c 0,10,11
 66 412 66 412 73 424 c 2,12,-1
 85 445 l 1,13,-1
 97 460 l 1,14,-1
 101 465 l 1,15,16
 111 457 111 457 137 441 c 2,17,-1
 198 404 l 1,18,-1
 268 365 l 1,19,-1
 335 328 l 1,20,-1
 385 301 l 1,21,-1
 406 291 l 2,22,23
 416 284 416 284 416 273 c 2,24,-1
 412 254 l 1,25,-1
 402 235 l 1,26,-1
 391 221 l 1,27,-1
 384 214 l 1,28,-1
 366 203 l 1,29,-1
 319 178 l 1,30,-1
 255 144 l 1,31,-1
 190 106 l 1,32,-1
 133 72 l 1,33,-1
 98 49 l 1,34,-1
 89 59 l 1,35,-1
 73 86 l 2,36,37
 63 100 63 100 63 109 c 0,38,39
 63 116 63 116 68 119 c 2,0,-1
339 119 m 2,40,-1
 429 170 l 1,41,-1
 510 215 l 1,42,-1
 587 259 l 1,43,-1
 557 275 l 1,44,-1
 487 316 l 1,45,-1
 418 354 l 2,46,47
 385 370 385 370 364 382 c 2,48,-1
 342 394 l 2,49,50
 337 396 337 396 337 403 c 2,51,-1
 343 424 l 1,52,-1
 356 445 l 1,53,-1
 369 460 l 1,54,-1
 373 465 l 1,55,56
 382 457 382 457 409 441 c 2,57,-1
 468 404 l 1,58,-1
 539 365 l 1,59,-1
 606 328 l 1,60,-1
 657 301 l 1,61,-1
 677 291 l 2,62,63
 686 284 686 284 686 273 c 2,64,-1
 682 254 l 1,65,-1
 673 235 l 1,66,-1
 663 221 l 1,67,-1
 656 214 l 1,68,-1
 637 203 l 1,69,-1
 590 178 l 1,70,-1
 527 144 l 1,71,-1
 461 106 l 1,72,-1
 404 72 l 1,73,-1
 370 49 l 1,74,-1
 360 59 l 1,75,-1
 343 86 l 2,76,77
 335 100 335 100 335 109 c 0,78,79
 335 116 335 116 339 119 c 2,40,-1
EndSplineSet
EndChar

StartChar: onequarter
Encoding: 188 188 125
Width: 456
GlyphClass: 2
Flags: W
LayerCount: 2
Fore
SplineSet
228 137 m 1,0,1
 228 217 228 217 230 248 c 1,2,-1
 225 250 l 1,3,-1
 152 139 l 1,4,-1
 155 135 l 1,5,6
 176 137 176 137 228 137 c 1,0,1
220 307 m 1,7,8
 241 314 241 314 253 314 c 0,9,10
 270 314 270 314 281.5 303.5 c 128,-1,11
 293 293 293 293 293 276 c 0,12,13
 293 185 293 185 292 136 c 1,14,15
 327 136 327 136 346 141 c 1,16,-1
 346 117 l 2,17,18
 346 91 346 91 334 85 c 128,-1,19
 322 79 322 79 292 79 c 1,20,-1
 292 72 l 2,21,22
 292 65 292 65 292 52 c 0,23,24
 293 40 293 40 293 33 c 0,25,26
 293 9 293 9 285.5 1 c 128,-1,27
 278 -7 278 -7 262 -7 c 0,28,29
 250 -7 250 -7 224 -4 c 0,30,31
 221 -4 221 -4 220 -4 c 1,32,-1
 224 20 l 2,33,34
 227 43 227 43 228 82 c 1,35,-1
 122 82 l 2,36,37
 110 82 110 82 102 88 c 128,-1,38
 94 94 94 94 90 101 c 2,39,-1
 86 108 l 1,40,-1
 220 307 l 1,7,8
54 358 m 2,41,42
 53 369 53 369 53 380 c 0,43,44
 53 408 53 408 76 408 c 2,45,-1
 121 406 l 2,46,47
 166 403 166 403 210 403 c 2,48,-1
 298 403 l 2,49,50
 379 403 379 403 407 408 c 1,51,-1
 409 398 l 2,52,53
 411 388 411 388 411 378 c 0,54,55
 411 346 411 346 397 346 c 2,56,-1
 353 348 l 2,57,58
 309 350 309 350 264 350 c 2,59,-1
 172 350 l 2,60,61
 77 350 77 350 56 346 c 1,62,-1
 54 358 l 2,41,42
138 463 m 2,63,64
 138 472 138 472 146 475.5 c 128,-1,65
 154 479 154 479 170 482 c 0,66,67
 184 484 184 484 191 486 c 2,68,-1
 201 489 l 1,69,-1
 204 534 l 2,70,71
 206 578 206 578 206 611 c 0,72,73
 206 616 206 616 206 626 c 0,74,75
 208 685 208 685 200 705 c 128,-1,76
 192 725 192 725 157 726 c 0,77,78
 156 726 156 726 154 726 c 0,79,80
 145 727 145 727 142 729.5 c 128,-1,81
 139 732 139 732 139 742 c 0,82,83
 139 750 139 750 141 757 c 1,84,-1
 314 757 l 2,85,86
 328 757 328 757 332.5 752.5 c 128,-1,87
 337 748 337 748 337 739 c 2,88,-1
 337 725 l 1,89,90
 304 725 304 725 290.5 720.5 c 128,-1,91
 277 716 277 716 272.5 701 c 128,-1,92
 268 686 268 686 268 650 c 0,93,94
 268 649 268 649 268 640 c 0,95,96
 267 507 267 507 269 490 c 1,97,-1
 281 487 l 2,98,99
 286 486 286 486 297 484 c 0,100,101
 317 480 317 480 326.5 476 c 128,-1,102
 336 472 336 472 336 463 c 0,103,104
 336 452 336 452 335 450 c 2,105,-1
 140 450 l 1,106,-1
 138 463 l 2,63,64
EndSplineSet
EndChar

StartChar: onehalf
Encoding: 189 189 126
Width: 458
GlyphClass: 2
Flags: W
LayerCount: 2
Fore
SplineSet
107 0 m 1,0,1
 111 29 111 29 129 50.5 c 128,-1,2
 147 72 147 72 181 101 c 0,3,4
 218 132 218 132 236.5 156 c 128,-1,5
 255 180 255 180 255 213 c 0,6,7
 255 233 255 233 245 248 c 128,-1,8
 235 263 235 263 210 263 c 0,9,10
 187 263 187 263 168.5 252.5 c 128,-1,11
 150 242 150 242 138 228 c 2,12,-1
 127 215 l 1,13,-1
 123 220 l 1,14,15
 126 262 126 262 156 287 c 128,-1,16
 186 312 186 312 225 312 c 0,17,18
 274 312 274 312 301 285.5 c 128,-1,19
 328 259 328 259 328 223 c 0,20,21
 328 178 328 178 300 147.5 c 128,-1,22
 272 117 272 117 220 82 c 0,23,24
 189 62 189 62 177 52 c 1,25,-1
 180 48 l 1,26,27
 210 57 210 57 304 57 c 0,28,29
 339 57 339 57 348.5 45.5 c 128,-1,30
 358 34 358 34 359 3 c 0,31,32
 360 -2 360 -2 360 -5 c 1,33,-1
 318 -2 l 2,34,35
 275 0 275 0 236 0 c 2,36,-1
 183 0 l 2,37,38
 139 0 139 0 111 -3 c 1,39,-1
 107 0 l 1,0,1
52 360 m 2,40,41
 50 372 50 372 50 383 c 0,42,43
 50 411 50 411 73 411 c 2,44,-1
 118 408 l 2,45,46
 163 406 163 406 207 406 c 2,47,-1
 295 406 l 2,48,49
 376 406 376 406 404 411 c 1,50,-1
 406 401 l 2,51,52
 408 391 408 391 408 381 c 0,53,54
 408 349 408 349 394 349 c 2,55,-1
 350 351 l 2,56,57
 306 353 306 353 261 353 c 2,58,-1
 169 353 l 2,59,60
 74 353 74 353 53 349 c 1,61,-1
 52 360 l 2,40,41
135 463 m 2,62,63
 135 472 135 472 143 475.5 c 128,-1,64
 151 479 151 479 167 482 c 0,65,66
 181 484 181 484 188 486 c 2,67,-1
 198 489 l 1,68,-1
 200 534 l 2,69,70
 203 578 203 578 203 611 c 0,71,72
 203 616 203 616 203 626 c 0,73,74
 205 685 205 685 197 705 c 128,-1,75
 189 725 189 725 154 726 c 0,76,77
 153 726 153 726 151 726 c 0,78,79
 142 727 142 727 139 729.5 c 128,-1,80
 136 732 136 732 136 742 c 0,81,82
 136 750 136 750 138 757 c 1,83,-1
 311 757 l 2,84,85
 325 757 325 757 329.5 752.5 c 128,-1,86
 334 748 334 748 334 739 c 2,87,-1
 334 725 l 1,88,89
 301 725 301 725 287.5 720.5 c 128,-1,90
 274 716 274 716 269.5 701 c 128,-1,91
 265 686 265 686 265 650 c 0,92,93
 265 649 265 649 265 640 c 0,94,95
 264 507 264 507 266 490 c 1,96,-1
 278 487 l 2,97,98
 283 486 283 486 294 484 c 0,99,100
 314 480 314 480 323.5 476 c 128,-1,101
 333 472 333 472 333 463 c 0,102,103
 333 452 333 452 332 450 c 2,104,-1
 137 450 l 1,105,-1
 135 463 l 2,62,63
EndSplineSet
EndChar

StartChar: threequarters
Encoding: 190 190 127
Width: 440
GlyphClass: 2
Flags: W
LayerCount: 2
Fore
SplineSet
222 137 m 1,0,1
 222 217 222 217 224 248 c 1,2,-1
 219 250 l 1,3,-1
 146 139 l 1,4,-1
 149 135 l 1,5,6
 170 137 170 137 222 137 c 1,0,1
214 307 m 1,7,8
 235 314 235 314 247 314 c 0,9,10
 264 314 264 314 275.5 303.5 c 128,-1,11
 287 293 287 293 287 276 c 0,12,13
 287 185 287 185 286 136 c 1,14,15
 321 136 321 136 340 141 c 1,16,-1
 340 117 l 2,17,18
 340 91 340 91 328 85 c 128,-1,19
 316 79 316 79 286 79 c 1,20,-1
 286 72 l 2,21,22
 286 65 286 65 286 52 c 0,23,24
 287 40 287 40 287 33 c 0,25,26
 287 9 287 9 279.5 1 c 128,-1,27
 272 -7 272 -7 256 -7 c 0,28,29
 244 -7 244 -7 218 -4 c 0,30,31
 215 -4 215 -4 214 -4 c 1,32,-1
 218 20 l 2,33,34
 221 43 221 43 222 82 c 1,35,-1
 116 82 l 2,36,37
 104 82 104 82 96 88 c 128,-1,38
 88 94 88 94 84 101 c 2,39,-1
 80 108 l 1,40,-1
 214 307 l 1,7,8
48 358 m 2,41,42
 46 369 46 369 46 380 c 0,43,44
 46 408 46 408 69 408 c 2,45,-1
 114 406 l 2,46,47
 159 403 159 403 203 403 c 0,48,49
 372 403 372 403 400 408 c 1,50,-1
 402 398 l 2,51,52
 404 388 404 388 404 378 c 0,53,54
 404 346 404 346 390 346 c 2,55,-1
 346 348 l 2,56,57
 302 350 302 350 257 350 c 0,58,59
 241 350 241 350 208 350 c 0,60,61
 75 351 75 351 49 346 c 1,62,-1
 48 358 l 2,41,42
153.5 458 m 128,-1,64
 126 476 126 476 116 511 c 1,65,-1
 122 516 l 1,66,67
 157 488 157 488 199 488 c 0,68,69
 229 488 229 488 245.5 501.5 c 128,-1,70
 262 515 262 515 262 534 c 0,71,72
 262 555 262 555 243 571.5 c 128,-1,73
 224 588 224 588 190 590 c 0,74,75
 184 590 184 590 178.5 593.5 c 128,-1,76
 173 597 173 597 173 603 c 0,77,78
 173 610 173 610 176 620 c 1,79,-1
 212 626 l 2,80,81
 232 629 232 629 244.5 642.5 c 128,-1,82
 257 656 257 656 257 671 c 0,83,84
 257 687 257 687 244 697.5 c 128,-1,85
 231 708 231 708 205 708 c 0,86,87
 182 708 182 708 164.5 697.5 c 128,-1,88
 147 687 147 687 136 674 c 2,89,-1
 125 660 l 1,90,-1
 121 665 l 1,91,92
 123 709 123 709 154.5 733 c 128,-1,93
 186 757 186 757 228 757 c 0,94,95
 271 757 271 757 298.5 737 c 128,-1,96
 326 717 326 717 326 682 c 0,97,98
 326 662 326 662 312.5 644.5 c 128,-1,99
 299 627 299 627 271 615 c 1,100,-1
 271 610 l 1,101,102
 303 601 303 601 318.5 582.5 c 128,-1,103
 334 564 334 564 334 540 c 0,104,105
 334 494 334 494 301 467 c 128,-1,106
 268 440 268 440 215 440 c 0,107,63
 181 440 181 440 153.5 458 c 128,-1,64
EndSplineSet
EndChar

StartChar: uni00BF
Encoding: 191 191 128
Width: 386
GlyphClass: 1
Flags: W
LayerCount: 2
Fore
SplineSet
323 690 m 0,0,1
 323 664 323 664 304 646 c 0,2,3
 287 628 287 628 261 628 c 0,4,5
 236 628 236 628 217 646 c 0,6,7
 200 664 200 664 200 690 c 0,8,9
 200 715 200 715 217 733 c 0,10,11
 236 751 236 751 261 751 c 0,12,13
 287 751 287 751 304 733 c 0,14,15
 323 715 323 715 323 690 c 0,0,1
36 201 m 0,16,17
 36 233 36 233 51 258 c 0,18,19
 66 284 66 284 89 307 c 2,20,-1
 139 351 l 1,21,-1
 189 395 l 2,22,23
 213 417 213 417 228 443 c 0,24,25
 244 468 244 468 244 500 c 1,26,-1
 239 531 l 1,27,-1
 225 560 l 1,28,-1
 244 563 l 1,29,-1
 258 564 l 2,30,31
 283 564 283 564 293 547 c 128,-1,32
 303 530 303 530 303 497 c 0,33,34
 303 462 303 462 292 435 c 0,35,36
 280 406 280 406 262 384 c 0,37,38
 245 361 245 361 223 342 c 2,39,-1
 185 305 l 1,40,-1
 156 267 l 2,41,42
 143 247 143 247 143 225 c 0,43,44
 143 205 143 205 158 194 c 0,45,46
 172 184 172 184 192 176 c 2,47,-1
 238 162 l 1,48,-1
 284 143 l 1,49,-1
 318 108 l 2,50,51
 333 88 333 88 333 53 c 1,52,-1
 332 45 l 1,53,-1
 330 33 l 1,54,-1
 326 13 l 1,55,-1
 317 -21 l 1,56,57
 310 2 310 2 281 18 c 0,58,59
 251 34 251 34 210 47 c 0,60,61
 116 77 116 77 76 114 c 0,62,63
 36 152 36 152 36 201 c 0,16,17
EndSplineSet
EndChar

StartChar: uni00C0
Encoding: 192 192 129
Width: 648
GlyphClass: 1
Flags: W
LayerCount: 2
Fore
SplineSet
408 758 m 1,0,-1
 393 755 l 1,1,-1
 377 754 l 2,2,3
 355 754 355 754 326 765 c 0,4,5
 298 777 298 777 269 794 c 0,6,7
 242 812 242 812 221 835 c 0,8,9
 199 859 199 859 193 884 c 1,10,-1
 212 909 l 1,11,-1
 235 924 l 1,12,-1
 270 932 l 1,13,-1
 285 902 l 1,14,-1
 312 855 l 2,15,16
 329 829 329 829 353 803 c 0,17,18
 377 778 377 778 408 758 c 1,0,-1
298 587 m 1,19,-1
 241 419 l 1,20,-1
 197 285 l 1,21,-1
 248 284 l 1,22,-1
 305 284 l 1,23,-1
 356 284 l 1,24,-1
 407 285 l 1,25,-1
 351 445 l 1,26,-1
 298 587 l 1,19,-1
39 -10 m 1,27,-1
 13 -5 l 1,28,-1
 8 0 l 1,29,-1
 28 26 l 1,30,-1
 51 65 l 1,31,-1
 77 130 l 1,32,-1
 286 713 l 1,33,34
 317 710 317 710 346 697 c 1,35,-1
 394 660 l 1,36,37
 417 636 417 636 432 592 c 2,38,-1
 455 519 l 1,39,-1
 484 430 l 1,40,-1
 516 333 l 1,41,-1
 549 238 l 1,42,-1
 580 153 l 1,43,-1
 608 86 l 1,44,-1
 639 21 l 2,45,46
 649 4 649 4 657 0 c 1,47,-1
 633 -5 l 1,48,-1
 581 -10 l 2,49,50
 547 -10 547 -10 518 4 c 128,-1,51
 489 18 489 18 481 50 c 2,52,-1
 458 131 l 1,53,-1
 426 233 l 1,54,-1
 377 233 l 1,55,-1
 325 233 l 1,56,-1
 250 233 l 1,57,-1
 182 231 l 1,58,-1
 140 102 l 1,59,-1
 112 29 l 1,60,61
 98 4 98 4 82 -3 c 1,62,-1
 39 -10 l 1,27,-1
EndSplineSet
EndChar

StartChar: uni00C1
Encoding: 193 193 130
Width: 648
GlyphClass: 1
Flags: W
LayerCount: 2
Fore
SplineSet
232 758 m 1,0,1
 264 778 264 778 287 803 c 2,2,-1
 328 855 l 1,3,-1
 355 902 l 1,4,-1
 370 932 l 1,5,-1
 405 924 l 1,6,-1
 430 909 l 1,7,-1
 447 884 l 1,8,9
 441 860 441 860 420 835 c 1,10,-1
 371 794 l 1,11,12
 344 777 344 777 314 765 c 0,13,14
 285 754 285 754 264 754 c 2,15,-1
 248 755 l 1,16,-1
 232 758 l 1,0,1
298 587 m 1,17,-1
 241 419 l 1,18,-1
 197 285 l 1,19,-1
 248 284 l 1,20,-1
 305 284 l 1,21,-1
 356 284 l 1,22,-1
 407 285 l 1,23,-1
 351 445 l 1,24,-1
 298 587 l 1,17,-1
39 -10 m 1,25,-1
 13 -5 l 1,26,-1
 8 0 l 1,27,-1
 28 26 l 1,28,-1
 51 65 l 1,29,-1
 77 130 l 1,30,-1
 286 713 l 1,31,32
 317 710 317 710 346 697 c 1,33,-1
 394 660 l 1,34,35
 417 636 417 636 432 592 c 2,36,-1
 455 519 l 1,37,-1
 484 430 l 1,38,-1
 516 333 l 1,39,-1
 549 238 l 1,40,-1
 580 153 l 1,41,-1
 608 86 l 1,42,-1
 639 21 l 2,43,44
 649 4 649 4 657 0 c 1,45,-1
 633 -5 l 1,46,-1
 581 -10 l 2,47,48
 547 -10 547 -10 518 4 c 128,-1,49
 489 18 489 18 481 50 c 2,50,-1
 458 131 l 1,51,-1
 426 233 l 1,52,-1
 377 233 l 1,53,-1
 325 233 l 1,54,-1
 250 233 l 1,55,-1
 182 231 l 1,56,-1
 140 102 l 1,57,-1
 112 29 l 1,58,59
 98 4 98 4 82 -3 c 1,60,-1
 39 -10 l 1,25,-1
EndSplineSet
EndChar

StartChar: uni00C2
Encoding: 194 194 131
Width: 648
GlyphClass: 1
Flags: W
LayerCount: 2
Fore
SplineSet
484 758 m 1,0,-1
 469 755 l 1,1,-1
 453 754 l 1,2,-1
 420 761 l 1,3,-1
 381 781 l 1,4,-1
 344 806 l 1,5,-1
 319 833 l 1,6,-1
 295 806 l 1,7,-1
 259 781 l 1,8,-1
 219 761 l 1,9,-1
 185 754 l 1,10,-1
 170 755 l 1,11,-1
 154 758 l 1,12,13
 185 777 185 777 209 803 c 128,-1,14
 233 829 233 829 250 855 c 2,15,-1
 278 902 l 1,16,-1
 292 932 l 1,17,-1
 314 935 l 1,18,-1
 343 926 l 1,19,-1
 364 902 l 1,20,-1
 383 869 l 1,21,-1
 405 830 l 2,22,23
 418 810 418 810 437 791 c 0,24,25
 455 773 455 773 484 758 c 1,0,-1
298 586 m 1,26,-1
 241 419 l 1,27,-1
 197 285 l 1,28,-1
 248 284 l 1,29,-1
 305 284 l 1,30,-1
 356 284 l 1,31,-1
 407 285 l 1,32,-1
 351 445 l 1,33,-1
 298 586 l 1,26,-1
39 -10 m 1,34,-1
 13 -5 l 1,35,-1
 8 0 l 1,36,-1
 28 25 l 1,37,-1
 51 65 l 1,38,-1
 77 130 l 1,39,-1
 286 713 l 1,40,41
 317 710 317 710 346 697 c 1,42,-1
 394 660 l 1,43,44
 417 636 417 636 432 592 c 2,45,-1
 455 519 l 1,46,-1
 484 430 l 1,47,-1
 516 333 l 1,48,-1
 549 238 l 1,49,-1
 580 153 l 1,50,-1
 608 86 l 1,51,-1
 639 21 l 2,52,53
 649 4 649 4 657 0 c 1,54,-1
 633 -5 l 1,55,-1
 581 -10 l 2,56,57
 547 -10 547 -10 518 4 c 128,-1,58
 489 18 489 18 481 50 c 2,59,-1
 458 131 l 1,60,-1
 426 233 l 1,61,-1
 377 233 l 1,62,-1
 325 233 l 1,63,-1
 250 233 l 1,64,-1
 182 231 l 1,65,-1
 140 102 l 1,66,-1
 112 29 l 1,67,68
 98 4 98 4 82 -3 c 1,69,-1
 39 -10 l 1,34,-1
EndSplineSet
EndChar

StartChar: uni00C3
Encoding: 195 195 132
Width: 648
GlyphClass: 1
Flags: W
LayerCount: 2
Fore
SplineSet
492 887 m 1,0,1
 490 845 490 845 460 816 c 0,2,3
 430 786 430 786 372 786 c 1,4,-1
 332 790 l 1,5,-1
 294 799 l 1,6,-1
 259 809 l 1,7,-1
 224 813 l 1,8,-1
 184 806 l 1,9,10
 165 798 165 798 148 779 c 1,11,12
 150 821 150 821 181 850 c 128,-1,13
 212 879 212 879 268 879 c 1,14,-1
 309 875 l 1,15,-1
 346 866 l 1,16,-1
 382 856 l 1,17,-1
 417 852 l 1,18,-1
 456 860 l 2,19,20
 476 868 476 868 492 887 c 1,0,1
298 587 m 1,21,-1
 241 419 l 1,22,-1
 197 285 l 1,23,-1
 248 284 l 1,24,-1
 305 284 l 1,25,-1
 356 284 l 1,26,-1
 407 285 l 1,27,-1
 351 445 l 1,28,-1
 298 587 l 1,21,-1
39 -10 m 1,29,-1
 13 -5 l 1,30,-1
 8 0 l 1,31,-1
 28 26 l 1,32,-1
 51 65 l 1,33,-1
 77 130 l 1,34,-1
 286 713 l 1,35,36
 317 710 317 710 346 697 c 1,37,-1
 394 660 l 1,38,39
 417 636 417 636 432 592 c 2,40,-1
 455 519 l 1,41,-1
 484 430 l 1,42,-1
 516 333 l 1,43,-1
 549 238 l 1,44,-1
 580 153 l 1,45,-1
 608 86 l 1,46,-1
 639 21 l 2,47,48
 649 4 649 4 657 0 c 1,49,-1
 633 -5 l 1,50,-1
 581 -10 l 2,51,52
 547 -10 547 -10 518 4 c 128,-1,53
 489 18 489 18 481 50 c 2,54,-1
 458 131 l 1,55,-1
 426 233 l 1,56,-1
 377 233 l 1,57,-1
 325 233 l 1,58,-1
 250 233 l 1,59,-1
 182 231 l 1,60,-1
 140 102 l 1,61,-1
 112 29 l 1,62,63
 98 4 98 4 82 -3 c 1,64,-1
 39 -10 l 1,29,-1
EndSplineSet
EndChar

StartChar: uni00C4
Encoding: 196 196 133
Width: 648
GlyphClass: 1
Flags: W
LayerCount: 2
Fore
SplineSet
363 832 m 128,-1,1
 363 856 363 856 381 873 c 0,2,3
 398 891 398 891 422 891 c 128,-1,4
 446 891 446 891 464 873 c 0,5,6
 481 856 481 856 481 832 c 128,-1,7
 481 808 481 808 464 790 c 0,8,9
 446 773 446 773 422 773 c 128,-1,10
 398 773 398 773 381 790 c 0,11,0
 363 808 363 808 363 832 c 128,-1,1
160 832 m 128,-1,13
 160 856 160 856 178 873 c 0,14,15
 195 891 195 891 220 891 c 0,16,17
 243 891 243 891 261 873 c 0,18,19
 278 856 278 856 278 832 c 128,-1,20
 278 808 278 808 261 790 c 0,21,22
 243 773 243 773 220 773 c 0,23,24
 195 773 195 773 178 790 c 0,25,12
 160 808 160 808 160 832 c 128,-1,13
298 586 m 1,26,-1
 241 419 l 1,27,-1
 197 285 l 1,28,-1
 248 284 l 1,29,-1
 305 284 l 1,30,-1
 356 284 l 1,31,-1
 407 285 l 1,32,-1
 351 445 l 1,33,-1
 298 586 l 1,26,-1
40 -10 m 1,34,-1
 13 -5 l 1,35,-1
 8 0 l 1,36,-1
 28 25 l 1,37,-1
 51 65 l 1,38,-1
 78 130 l 1,39,-1
 287 713 l 1,40,-1
 346 697 l 1,41,-1
 394 660 l 1,42,43
 418 636 418 636 432 592 c 2,44,-1
 455 519 l 1,45,-1
 484 430 l 1,46,-1
 517 333 l 1,47,-1
 549 238 l 1,48,-1
 581 153 l 1,49,-1
 608 86 l 1,50,-1
 640 21 l 2,51,52
 649 4 649 4 657 0 c 1,53,-1
 633 -5 l 1,54,-1
 582 -10 l 2,55,56
 547 -10 547 -10 519 4 c 0,57,58
 489 18 489 18 481 50 c 2,59,-1
 458 131 l 1,60,-1
 426 233 l 1,61,-1
 377 233 l 1,62,-1
 326 233 l 1,63,-1
 251 233 l 1,64,-1
 182 231 l 1,65,-1
 141 102 l 1,66,-1
 112 29 l 2,67,68
 98 4 98 4 83 -3 c 1,69,-1
 40 -10 l 1,34,-1
EndSplineSet
EndChar

StartChar: uni00C5
Encoding: 197 197 134
Width: 648
GlyphClass: 1
Flags: W
LayerCount: 2
Fore
SplineSet
371 846 m 0,0,1
 371 869 371 869 354 883 c 0,2,3
 338 899 338 899 318 899 c 0,4,5
 296 899 296 899 281 883 c 0,6,7
 266 869 266 869 266 846 c 0,8,9
 266 827 266 827 280 808 c 0,10,11
 295 789 295 789 318 789 c 0,12,13
 345 789 345 789 357 808 c 0,14,15
 371 827 371 827 371 846 c 0,0,1
408 845 m 1,16,-1
 401 811 l 1,17,-1
 381 783 l 1,18,-1
 352 764 l 1,19,-1
 317 757 l 2,20,21
 300 757 300 757 283 764 c 0,22,23
 267 771 267 771 255 783 c 2,24,-1
 235 811 l 1,25,26
 228 828 228 828 228 845 c 0,27,28
 228 863 228 863 235 879 c 2,29,-1
 255 908 l 1,30,-1
 283 926 l 1,31,-1
 317 933 l 1,32,-1
 352 926 l 1,33,-1
 381 908 l 1,34,-1
 401 879 l 1,35,-1
 408 845 l 1,16,-1
297 586 m 1,36,-1
 241 419 l 1,37,-1
 197 285 l 1,38,-1
 248 284 l 1,39,-1
 305 284 l 1,40,-1
 356 284 l 1,41,-1
 407 285 l 1,42,-1
 351 445 l 1,43,-1
 297 586 l 1,36,-1
39 -10 m 1,44,-1
 13 -5 l 1,45,-1
 8 0 l 1,46,-1
 28 25 l 1,47,-1
 51 65 l 1,48,-1
 77 130 l 1,49,-1
 286 713 l 1,50,51
 317 710 317 710 346 697 c 1,52,-1
 394 660 l 1,53,54
 417 636 417 636 432 592 c 2,55,-1
 455 519 l 1,56,-1
 484 430 l 1,57,-1
 516 333 l 1,58,-1
 549 238 l 1,59,-1
 580 153 l 1,60,-1
 608 86 l 1,61,-1
 639 21 l 2,62,63
 649 4 649 4 657 0 c 1,64,-1
 633 -5 l 1,65,-1
 581 -10 l 2,66,67
 547 -10 547 -10 518 4 c 128,-1,68
 489 18 489 18 481 50 c 2,69,-1
 458 131 l 1,70,-1
 426 233 l 1,71,-1
 377 233 l 1,72,-1
 325 233 l 1,73,-1
 250 233 l 1,74,-1
 182 231 l 1,75,-1
 140 102 l 1,76,-1
 112 29 l 1,77,78
 98 4 98 4 82 -3 c 1,79,-1
 39 -10 l 1,44,-1
EndSplineSet
EndChar

StartChar: uni00C6
Encoding: 198 198 135
Width: 871
GlyphClass: 1
Flags: W
LayerCount: 2
Fore
SplineSet
347 586 m 1,0,-1
 272 419 l 1,1,-1
 214 285 l 1,2,-1
 271 284 l 1,3,-1
 331 284 l 1,4,-1
 359 284 l 1,5,-1
 358 351 l 1,6,-1
 358 438 l 1,7,-1
 357 523 l 1,8,-1
 356 585 l 1,9,-1
 350 586 l 1,10,-1
 347 586 l 1,0,-1
340 713 m 1,11,-1
 393 706 l 1,12,-1
 451 702 l 1,13,-1
 528 700 l 1,14,-1
 626 701 l 1,15,-1
 696 705 l 1,16,-1
 748 710 l 1,17,18
 748 678 748 678 735 654 c 0,19,20
 721 630 721 630 687 630 c 2,21,-1
 517 640 l 1,22,-1
 494 643 l 1,23,-1
 478 646 l 1,24,-1
 478 605 l 1,25,-1
 477 545 l 1,26,-1
 476 475 l 1,27,-1
 476 401 l 1,28,-1
 629 401 l 1,29,-1
 671 405 l 1,30,-1
 684 410 l 1,31,-1
 685 397 l 1,32,-1
 685 384 l 2,33,34
 685 358 685 358 670 349 c 1,35,-1
 628 341 l 1,36,-1
 475 342 l 1,37,-1
 475 234 l 1,38,-1
 476 153 l 1,39,-1
 479 66 l 1,40,-1
 601 66 l 1,41,-1
 667 66 l 1,42,-1
 721 68 l 1,43,-1
 762 77 l 2,44,45
 780 84 780 84 791 98 c 1,46,47
 802 58 802 58 789 36 c 0,48,49
 777 15 777 15 751 5 c 1,50,-1
 692 -7 l 1,51,-1
 626 -9 l 1,52,-1
 557 -7 l 1,53,-1
 493 -4 l 1,54,-1
 346 0 l 1,55,-1
 350 9 l 1,56,-1
 355 40 l 1,57,-1
 358 109 l 1,58,-1
 359 233 l 1,59,-1
 347 233 l 1,60,-1
 268 233 l 1,61,-1
 193 231 l 1,62,-1
 142 102 l 2,63,64
 122 54 122 54 106 29 c 128,-1,65
 90 4 90 4 73 -3 c 1,66,-1
 30 -10 l 1,67,-1
 6 -5 l 1,68,-1
 0 0 l 1,69,-1
 23 26 l 1,70,-1
 49 65 l 1,71,-1
 80 130 l 1,72,-1
 340 713 l 1,11,-1
EndSplineSet
EndChar

StartChar: uni00C7
Encoding: 199 199 136
Width: 703
GlyphClass: 1
Flags: W
LayerCount: 2
Fore
SplineSet
56 340 m 0,0,1
 56 420 56 420 85 488 c 0,2,3
 115 555 115 555 164 605 c 0,4,5
 214 654 214 654 281 682 c 0,6,7
 347 710 347 710 422 710 c 1,8,-1
 489 705 l 1,9,-1
 556 689 l 1,10,11
 588 677 588 677 610 659 c 0,12,13
 631 641 631 641 631 615 c 0,14,15
 631 599 631 599 619 578 c 0,16,17
 605 557 605 557 584 546 c 1,18,19
 582 567 582 567 564 585 c 0,20,21
 547 604 547 604 522 618 c 2,22,-1
 469 640 l 1,23,-1
 414 648 l 1,24,25
 367 648 367 648 324 627 c 0,26,27
 282 607 282 607 249 569 c 0,28,29
 217 530 217 530 199 475 c 0,30,31
 179 420 179 420 179 352 c 0,32,33
 179 276 179 276 200 222 c 0,34,35
 219 166 219 166 253 129 c 0,36,37
 286 93 286 93 330 75 c 0,38,39
 374 58 374 58 423 58 c 0,40,41
 483 58 483 58 543 80 c 0,42,43
 604 103 604 103 657 155 c 1,44,45
 655 115 655 115 632 84 c 0,46,47
 610 53 610 53 574 32 c 128,-1,48
 538 11 538 11 492 0 c 1,49,-1
 397 -10 l 2,50,51
 394 -10 394 -10 391 -10 c 2,52,-1
 388 -18 l 1,53,-1
 387 -27 l 2,54,55
 387 -38 387 -38 403 -40 c 2,56,-1
 436 -45 l 2,57,58
 454 -48 454 -48 469 -59 c 0,59,60
 485 -69 485 -69 485 -98 c 1,61,-1
 476 -141 l 1,62,-1
 451 -176 l 2,63,64
 436 -191 436 -191 415 -200 c 1,65,-1
 371 -209 l 1,66,67
 335 -209 335 -209 314 -195 c 0,68,69
 292 -182 292 -182 292 -158 c 1,70,-1
 296 -136 l 1,71,72
 308 -148 308 -148 328 -152 c 2,73,-1
 368 -157 l 2,74,75
 390 -157 390 -157 407 -147 c 0,76,77
 423 -136 423 -136 423 -119 c 0,78,79
 423 -106 423 -106 410 -101 c 2,80,-1
 379 -92 l 2,81,82
 363 -88 363 -88 349 -81 c 0,83,84
 334 -74 334 -74 334 -54 c 0,85,86
 334 -40 334 -40 343 -25 c 0,87,88
 349 -16 349 -16 359 -9 c 1,89,90
 304 -4 304 -4 256 13 c 0,91,92
 194 36 194 36 149 80 c 0,93,94
 104 125 104 125 80 191 c 0,95,96
 56 256 56 256 56 340 c 0,0,1
EndSplineSet
EndChar

StartChar: uni00C8
Encoding: 200 200 137
Width: 582
GlyphClass: 1
Flags: W
LayerCount: 2
Fore
SplineSet
386 758 m 1,0,-1
 370 755 l 1,1,-1
 356 754 l 2,2,3
 333 754 333 754 304 765 c 0,4,5
 276 777 276 777 248 794 c 0,6,7
 220 812 220 812 198 835 c 0,8,9
 177 859 177 859 171 884 c 1,10,-1
 190 909 l 2,11,12
 198 917 198 917 213 924 c 2,13,-1
 248 932 l 1,14,-1
 263 902 l 1,15,-1
 290 855 l 2,16,17
 307 829 307 829 331 803 c 0,18,19
 356 778 356 778 386 758 c 1,0,-1
108 277 m 1,20,-1
 107 318 l 1,21,-1
 106 375 l 1,22,-1
 105 441 l 1,23,-1
 104 505 l 1,24,-1
 103 559 l 1,25,-1
 102 595 l 1,26,-1
 98 653 l 1,27,-1
 95 684 l 1,28,-1
 92 700 l 1,29,-1
 276 700 l 1,30,-1
 374 701 l 1,31,-1
 444 705 l 1,32,-1
 496 710 l 1,33,34
 496 678 496 678 483 655 c 0,35,36
 469 630 469 630 435 630 c 2,37,-1
 265 640 l 1,38,-1
 242 643 l 1,39,-1
 226 646 l 1,40,-1
 226 605 l 1,41,-1
 225 545 l 1,42,-1
 224 475 l 1,43,-1
 224 401 l 1,44,-1
 377 401 l 1,45,-1
 419 405 l 1,46,-1
 432 410 l 1,47,-1
 433 397 l 1,48,-1
 433 384 l 2,49,50
 433 358 433 358 418 349 c 1,51,-1
 376 341 l 1,52,-1
 223 342 l 1,53,-1
 223 234 l 1,54,-1
 224 152 l 1,55,-1
 227 65 l 1,56,-1
 349 65 l 1,57,-1
 415 65 l 1,58,-1
 469 68 l 1,59,-1
 510 77 l 2,60,61
 528 84 528 84 539 98 c 1,62,63
 550 58 550 58 537 36 c 0,64,65
 525 15 525 15 499 5 c 1,66,-1
 440 -7 l 1,67,-1
 374 -9 l 1,68,-1
 305 -7 l 1,69,-1
 241 -4 l 1,70,-1
 94 0 l 1,71,-1
 98 10 l 1,72,-1
 103 46 l 1,73,-1
 106 129 l 1,74,-1
 108 277 l 1,20,-1
EndSplineSet
EndChar

StartChar: uni00C9
Encoding: 201 201 138
Width: 582
GlyphClass: 1
Flags: W
LayerCount: 2
Fore
SplineSet
210 758 m 1,0,-1
 266 803 l 1,1,-1
 307 855 l 1,2,-1
 334 902 l 1,3,-1
 349 932 l 1,4,-1
 383 924 l 1,5,-1
 408 909 l 1,6,-1
 426 884 l 1,7,8
 419 859 419 859 398 835 c 0,9,10
 376 812 376 812 349 794 c 0,11,12
 322 777 322 777 292 765 c 0,13,14
 264 754 264 754 241 754 c 2,15,-1
 226 755 l 1,16,-1
 210 758 l 1,0,-1
108 277 m 1,17,-1
 107 318 l 1,18,-1
 106 375 l 1,19,-1
 105 441 l 1,20,-1
 104 505 l 1,21,-1
 103 559 l 1,22,-1
 102 595 l 1,23,-1
 98 653 l 1,24,-1
 95 684 l 1,25,-1
 92 700 l 1,26,-1
 276 700 l 1,27,-1
 374 701 l 1,28,-1
 444 705 l 1,29,-1
 496 710 l 1,30,31
 496 678 496 678 483 655 c 0,32,33
 469 630 469 630 435 630 c 2,34,-1
 265 640 l 1,35,-1
 242 643 l 1,36,-1
 226 646 l 1,37,-1
 226 605 l 1,38,-1
 225 545 l 1,39,-1
 224 475 l 1,40,-1
 224 401 l 1,41,-1
 377 401 l 1,42,-1
 419 405 l 1,43,-1
 432 410 l 1,44,-1
 433 397 l 1,45,-1
 433 384 l 2,46,47
 433 358 433 358 418 349 c 1,48,-1
 376 341 l 1,49,-1
 223 342 l 1,50,-1
 223 234 l 1,51,-1
 224 152 l 1,52,-1
 227 65 l 1,53,-1
 349 65 l 1,54,-1
 415 65 l 1,55,-1
 469 68 l 1,56,-1
 510 77 l 2,57,58
 528 84 528 84 539 98 c 1,59,60
 550 58 550 58 537 36 c 0,61,62
 525 15 525 15 499 5 c 1,63,-1
 440 -7 l 1,64,-1
 374 -9 l 1,65,-1
 305 -7 l 1,66,-1
 241 -4 l 1,67,-1
 94 0 l 1,68,-1
 98 10 l 1,69,-1
 103 46 l 1,70,-1
 106 129 l 1,71,-1
 108 277 l 1,17,-1
EndSplineSet
EndChar

StartChar: uni00CA
Encoding: 202 202 139
Width: 582
GlyphClass: 1
Flags: W
LayerCount: 2
Fore
SplineSet
462 758 m 1,0,-1
 447 755 l 1,1,-1
 432 754 l 1,2,-1
 398 761 l 1,3,-1
 359 781 l 1,4,-1
 322 806 l 2,5,6
 306 820 306 820 297 833 c 1,7,-1
 273 806 l 1,8,-1
 237 781 l 1,9,-1
 197 761 l 1,10,-1
 163 754 l 1,11,-1
 148 755 l 1,12,-1
 132 758 l 1,13,14
 163 777 163 777 188 803 c 2,15,-1
 229 855 l 1,16,-1
 256 902 l 1,17,-1
 271 932 l 1,18,-1
 292 935 l 2,19,20
 310 935 310 935 321 926 c 2,21,-1
 342 902 l 1,22,-1
 361 869 l 1,23,-1
 383 830 l 2,24,25
 397 810 397 810 415 791 c 0,26,27
 434 773 434 773 462 758 c 1,0,-1
108 276 m 1,28,-1
 107 318 l 1,29,-1
 106 375 l 1,30,-1
 105 441 l 1,31,-1
 104 504 l 1,32,-1
 103 559 l 1,33,-1
 102 595 l 1,34,-1
 98 652 l 1,35,-1
 95 684 l 1,36,-1
 92 700 l 1,37,-1
 276 700 l 1,38,-1
 374 701 l 1,39,-1
 444 705 l 1,40,-1
 496 710 l 1,41,42
 496 678 496 678 483 654 c 0,43,44
 469 630 469 630 435 630 c 2,45,-1
 265 640 l 1,46,-1
 242 643 l 1,47,-1
 226 646 l 1,48,-1
 226 605 l 1,49,-1
 225 545 l 1,50,-1
 224 475 l 1,51,-1
 224 401 l 1,52,-1
 377 401 l 1,53,-1
 419 405 l 1,54,-1
 432 410 l 1,55,-1
 433 397 l 1,56,-1
 433 384 l 2,57,58
 433 358 433 358 418 349 c 1,59,-1
 376 341 l 1,60,-1
 223 342 l 1,61,-1
 223 234 l 1,62,-1
 224 152 l 1,63,-1
 227 65 l 1,64,-1
 349 65 l 1,65,-1
 415 65 l 1,66,-1
 469 68 l 1,67,-1
 510 77 l 2,68,69
 528 84 528 84 539 98 c 1,70,71
 550 58 550 58 537 36 c 0,72,73
 525 15 525 15 499 5 c 1,74,-1
 440 -7 l 1,75,-1
 374 -9 l 1,76,-1
 305 -7 l 1,77,-1
 241 -4 l 1,78,-1
 94 0 l 1,79,-1
 98 10 l 1,80,-1
 103 46 l 1,81,-1
 106 129 l 1,82,-1
 108 276 l 1,28,-1
EndSplineSet
EndChar

StartChar: uni00CB
Encoding: 203 203 140
Width: 582
GlyphClass: 1
Flags: W
LayerCount: 2
Fore
SplineSet
341 832 m 128,-1,1
 341 856 341 856 359 873 c 0,2,3
 376 891 376 891 400 891 c 128,-1,4
 424 891 424 891 442 873 c 0,5,6
 459 856 459 856 459 832 c 128,-1,7
 459 808 459 808 442 790 c 0,8,9
 424 773 424 773 400 773 c 128,-1,10
 376 773 376 773 359 790 c 0,11,0
 341 808 341 808 341 832 c 128,-1,1
139 832 m 128,-1,13
 139 856 139 856 156 873 c 0,14,15
 174 891 174 891 198 891 c 128,-1,16
 222 891 222 891 240 873 c 0,17,18
 257 856 257 856 257 832 c 128,-1,19
 257 808 257 808 240 790 c 0,20,21
 222 773 222 773 198 773 c 128,-1,22
 174 773 174 773 156 790 c 0,23,12
 139 808 139 808 139 832 c 128,-1,13
108 276 m 1,24,-1
 107 318 l 1,25,-1
 106 375 l 1,26,-1
 105 441 l 1,27,-1
 104 504 l 1,28,-1
 103 559 l 1,29,-1
 102 595 l 1,30,-1
 98 652 l 1,31,-1
 95 684 l 1,32,-1
 92 700 l 1,33,-1
 276 700 l 1,34,-1
 374 701 l 1,35,-1
 444 705 l 1,36,-1
 496 710 l 1,37,38
 496 678 496 678 483 654 c 0,39,40
 469 630 469 630 435 630 c 2,41,-1
 265 640 l 1,42,-1
 242 643 l 1,43,-1
 226 646 l 1,44,-1
 226 605 l 1,45,-1
 225 545 l 1,46,-1
 224 475 l 1,47,-1
 224 401 l 1,48,-1
 377 401 l 1,49,-1
 419 405 l 1,50,-1
 432 410 l 1,51,-1
 433 397 l 1,52,-1
 433 384 l 2,53,54
 433 358 433 358 418 349 c 1,55,-1
 376 341 l 1,56,-1
 223 342 l 1,57,-1
 223 234 l 1,58,-1
 224 152 l 1,59,-1
 227 65 l 1,60,-1
 349 65 l 1,61,-1
 415 65 l 1,62,-1
 469 68 l 1,63,-1
 510 77 l 2,64,65
 528 84 528 84 539 98 c 1,66,67
 550 58 550 58 537 36 c 0,68,69
 525 15 525 15 499 5 c 1,70,-1
 440 -7 l 1,71,-1
 374 -9 l 1,72,-1
 305 -7 l 1,73,-1
 241 -4 l 1,74,-1
 94 0 l 1,75,-1
 98 10 l 1,76,-1
 103 46 l 1,77,-1
 106 129 l 1,78,-1
 108 276 l 1,24,-1
EndSplineSet
EndChar

StartChar: uni00CC
Encoding: 204 204 141
Width: 323
GlyphClass: 1
Flags: W
LayerCount: 2
Fore
SplineSet
264 758 m 1,0,-1
 248 755 l 1,1,-1
 232 754 l 2,2,3
 211 754 211 754 181 765 c 0,4,5
 152 777 152 777 125 794 c 0,6,7
 97 812 97 812 76 835 c 0,8,9
 54 859 54 859 49 884 c 1,10,-1
 66 909 l 1,11,-1
 91 924 l 1,12,-1
 125 932 l 1,13,-1
 139 902 l 1,14,-1
 167 855 l 1,15,-1
 208 803 l 2,16,17
 232 778 232 778 264 758 c 1,0,-1
252 648 m 2,18,-1
 249 520 l 1,19,-1
 248 395 l 1,20,-1
 249 255 l 1,21,-1
 252 106 l 1,22,-1
 254 63 l 1,23,-1
 256 36 l 1,24,-1
 261 18 l 1,25,-1
 267 0 l 1,26,-1
 257 -5 l 1,27,-1
 223 -10 l 1,28,29
 183 -10 183 -10 158 8 c 0,30,31
 133 25 133 25 133 73 c 2,32,-1
 133 368 l 1,33,-1
 131 489 l 1,34,-1
 128 595 l 1,35,-1
 124 653 l 1,36,-1
 121 684 l 1,37,-1
 118 701 l 1,38,-1
 145 707 l 1,39,-1
 173 710 l 2,40,41
 207 710 207 710 229 694 c 0,42,43
 252 677 252 677 252 648 c 2,18,-1
EndSplineSet
EndChar

StartChar: uni00CD
Encoding: 205 205 142
Width: 323
GlyphClass: 1
Flags: W
LayerCount: 2
Fore
SplineSet
49 758 m 1,0,1
 79 778 79 778 103 803 c 2,2,-1
 144 855 l 1,3,-1
 172 902 l 1,4,-1
 186 932 l 1,5,-1
 221 924 l 1,6,-1
 245 909 l 1,7,-1
 264 884 l 1,8,9
 258 860 258 860 236 835 c 0,10,11
 215 812 215 812 186 794 c 0,12,13
 159 777 159 777 131 765 c 0,14,15
 101 754 101 754 79 754 c 2,16,-1
 63 755 l 1,17,-1
 49 758 l 1,0,1
213 648 m 2,18,-1
 210 520 l 1,19,-1
 209 395 l 1,20,-1
 210 255 l 1,21,-1
 213 106 l 1,22,-1
 215 63 l 1,23,-1
 217 36 l 1,24,-1
 222 18 l 1,25,-1
 228 0 l 1,26,-1
 218 -5 l 1,27,-1
 184 -10 l 1,28,29
 144 -10 144 -10 119 8 c 0,30,31
 94 25 94 25 94 73 c 2,32,-1
 94 368 l 1,33,-1
 92 489 l 1,34,-1
 89 595 l 1,35,-1
 85 653 l 1,36,-1
 82 684 l 1,37,-1
 79 701 l 1,38,-1
 106 707 l 1,39,-1
 134 710 l 2,40,41
 168 710 168 710 190 694 c 0,42,43
 213 677 213 677 213 648 c 2,18,-1
EndSplineSet
EndChar

StartChar: uni00CE
Encoding: 206 206 143
Width: 323
GlyphClass: 1
Flags: W
LayerCount: 2
Fore
SplineSet
309 758 m 1,0,-1
 293 755 l 1,1,-1
 277 754 l 1,2,-1
 244 761 l 1,3,-1
 204 781 l 1,4,-1
 168 806 l 1,5,-1
 144 833 l 1,6,-1
 119 806 l 1,7,-1
 82 781 l 2,8,9
 63 769 63 769 43 761 c 2,10,-1
 10 754 l 1,11,-1
 -6 755 l 1,12,-1
 -21 758 l 1,13,14
 10 777 10 777 33 803 c 2,15,-1
 74 855 l 1,16,-1
 102 902 l 1,17,-1
 116 932 l 1,18,-1
 139 935 l 1,19,-1
 167 926 l 1,20,-1
 188 902 l 1,21,-1
 206 869 l 1,22,-1
 229 830 l 1,23,-1
 261 791 l 2,24,25
 279 773 279 773 309 758 c 1,0,-1
221 648 m 2,26,-1
 218 520 l 1,27,-1
 217 395 l 1,28,-1
 218 255 l 1,29,-1
 221 106 l 1,30,-1
 223 63 l 1,31,-1
 225 36 l 1,32,-1
 230 18 l 1,33,-1
 236 0 l 1,34,-1
 226 -5 l 1,35,-1
 192 -10 l 1,36,37
 152 -10 152 -10 127 8 c 0,38,39
 102 25 102 25 102 73 c 2,40,-1
 102 368 l 1,41,-1
 100 489 l 1,42,-1
 97 595 l 1,43,-1
 93 653 l 1,44,-1
 90 684 l 1,45,-1
 87 701 l 1,46,-1
 114 707 l 1,47,-1
 142 710 l 2,48,49
 176 710 176 710 198 694 c 0,50,51
 221 677 221 677 221 648 c 2,26,-1
EndSplineSet
EndChar

StartChar: uni00CF
Encoding: 207 207 144
Width: 323
GlyphClass: 1
Flags: W
LayerCount: 2
Fore
SplineSet
205 832 m 128,-1,1
 205 856 205 856 222 873 c 0,2,3
 240 891 240 891 262 891 c 0,4,5
 288 891 288 891 305 873 c 0,6,7
 323 856 323 856 323 832 c 128,-1,8
 323 808 323 808 305 790 c 0,9,10
 288 773 288 773 262 773 c 0,11,12
 240 773 240 773 222 790 c 0,13,0
 205 808 205 808 205 832 c 128,-1,1
1 832 m 128,-1,15
 1 856 1 856 19 873 c 0,16,17
 37 891 37 891 60 891 c 0,18,19
 84 891 84 891 102 873 c 0,20,21
 120 856 120 856 120 832 c 128,-1,22
 120 808 120 808 102 790 c 0,23,24
 84 773 84 773 60 773 c 0,25,26
 37 773 37 773 19 790 c 0,27,14
 1 808 1 808 1 832 c 128,-1,15
238 648 m 2,28,-1
 235 520 l 1,29,-1
 234 395 l 1,30,-1
 235 255 l 1,31,-1
 238 106 l 1,32,-1
 240 63 l 1,33,-1
 242 36 l 1,34,-1
 247 18 l 1,35,-1
 253 0 l 1,36,-1
 243 -5 l 1,37,-1
 209 -10 l 1,38,39
 169 -10 169 -10 144 8 c 0,40,41
 119 25 119 25 119 73 c 2,42,-1
 119 368 l 1,43,-1
 117 489 l 1,44,-1
 114 595 l 1,45,-1
 110 653 l 1,46,-1
 107 684 l 1,47,-1
 104 701 l 1,48,-1
 131 707 l 1,49,-1
 159 710 l 2,50,51
 193 710 193 710 215 694 c 0,52,53
 238 677 238 677 238 648 c 2,28,-1
EndSplineSet
EndChar

StartChar: uni00D0
Encoding: 208 208 145
Width: 815
GlyphClass: 1
Flags: W
LayerCount: 2
Fore
SplineSet
398 315 m 2,0,-1
 349 316 l 1,1,-1
 299 317 l 1,2,-1
 240 318 l 1,3,-1
 240 238 l 1,4,-1
 241 171 l 1,5,-1
 243 99 l 2,6,7
 243 84 243 84 258 73 c 0,8,9
 272 63 272 63 293 58 c 2,10,-1
 339 51 l 1,11,-1
 383 49 l 2,12,13
 443 49 443 49 491 71 c 0,14,15
 538 94 538 94 571 132 c 0,16,17
 604 171 604 171 621 222 c 0,18,19
 639 274 639 274 639 332 c 0,20,21
 639 419 639 419 608 480 c 0,22,23
 577 540 577 540 528 577 c 128,-1,24
 479 614 479 614 417 630 c 0,25,26
 355 647 355 647 292 647 c 2,27,-1
 267 647 l 1,28,-1
 243 646 l 1,29,-1
 242 522 l 1,30,-1
 240 387 l 1,31,-1
 300 387 l 1,32,-1
 366 389 l 1,33,-1
 408 392 l 1,34,-1
 410 379 l 1,35,-1
 412 364 l 1,36,-1
 412 347 l 1,37,-1
 409 324 l 2,38,39
 406 315 406 315 398 315 c 2,0,-1
125 318 m 1,40,-1
 85 318 l 1,41,-1
 57 315 l 1,42,-1
 55 324 l 1,43,-1
 54 336 l 1,44,-1
 54 349 l 1,45,-1
 58 378 l 2,46,47
 63 392 63 392 77 392 c 2,48,-1
 90 391 l 1,49,-1
 104 391 l 1,50,-1
 124 390 l 1,51,-1
 119 595 l 1,52,-1
 116 653 l 1,53,-1
 112 684 l 1,54,-1
 109 700 l 1,55,-1
 331 700 l 1,56,-1
 486 684 l 1,57,58
 562 667 562 667 622 627 c 0,59,60
 683 587 683 587 720 520 c 128,-1,61
 757 453 757 453 757 351 c 0,62,63
 757 273 757 273 730 207 c 0,64,65
 704 141 704 141 659 92 c 0,66,67
 613 43 613 43 551 15 c 0,68,69
 487 -13 487 -13 414 -13 c 2,70,-1
 352 -11 l 1,71,-1
 291 -7 l 1,72,-1
 216 -2 l 1,73,-1
 112 0 l 1,74,-1
 116 9 l 1,75,-1
 120 46 l 1,76,-1
 124 129 l 1,77,-1
 125 276 l 1,78,-1
 125 318 l 1,40,-1
EndSplineSet
EndChar

StartChar: uni00D1
Encoding: 209 209 146
Width: 763
GlyphClass: 1
Flags: W
LayerCount: 2
Fore
SplineSet
552 887 m 1,0,1
 550 845 550 845 520 816 c 0,2,3
 490 786 490 786 432 786 c 1,4,-1
 392 790 l 1,5,-1
 355 799 l 1,6,-1
 319 809 l 1,7,-1
 284 813 l 1,8,-1
 244 806 l 1,9,10
 226 798 226 798 208 779 c 1,11,12
 210 821 210 821 242 850 c 0,13,14
 272 879 272 879 328 879 c 1,15,-1
 369 875 l 1,16,-1
 406 866 l 1,17,-1
 442 856 l 1,18,-1
 477 852 l 1,19,-1
 516 860 l 2,20,21
 536 868 536 868 552 887 c 1,0,1
671 0 m 1,22,-1
 662 -5 l 1,23,-1
 631 -10 l 2,24,25
 614 -10 614 -10 594 5 c 0,26,27
 576 20 576 20 568 36 c 0,28,29
 542 89 542 89 495 147 c 2,30,-1
 391 264 l 1,31,-1
 276 385 l 2,32,33
 216 445 216 445 168 504 c 1,34,-1
 168 428 l 1,35,-1
 167 353 l 1,36,-1
 166 287 l 1,37,-1
 166 239 l 1,38,-1
 168 151 l 1,39,-1
 170 58 l 1,40,-1
 170 24 l 1,41,-1
 166 4 l 1,42,-1
 156 -7 l 1,43,-1
 135 -10 l 1,44,-1
 112 -7 l 1,45,-1
 93 0 l 1,46,-1
 97 10 l 1,47,-1
 102 46 l 1,48,-1
 105 129 l 1,49,-1
 107 277 l 1,50,-1
 106 318 l 1,51,-1
 105 375 l 1,52,-1
 104 441 l 1,53,-1
 103 504 l 1,54,-1
 102 559 l 1,55,-1
 101 595 l 1,56,-1
 97 653 l 1,57,-1
 94 684 l 1,58,-1
 91 701 l 1,59,-1
 101 705 l 1,60,-1
 111 708 l 1,61,-1
 120 710 l 1,62,63
 152 710 152 710 167 695 c 0,64,65
 194 659 194 659 233 615 c 2,66,-1
 318 526 l 1,67,-1
 409 431 l 1,68,-1
 494 338 l 1,69,-1
 560 254 l 2,70,71
 586 215 586 215 594 187 c 1,72,-1
 596 197 l 1,73,-1
 596 222 l 1,74,-1
 595 254 l 1,75,-1
 594 287 l 1,76,-1
 591 450 l 1,77,-1
 586 595 l 1,78,-1
 583 653 l 1,79,-1
 580 684 l 1,80,-1
 577 701 l 1,81,-1
 586 705 l 1,82,-1
 597 708 l 1,83,-1
 612 710 l 1,84,-1
 637 706 l 1,85,-1
 651 695 l 1,86,-1
 655 675 l 1,87,-1
 656 648 l 1,88,-1
 653 520 l 1,89,-1
 652 395 l 1,90,-1
 653 260 l 1,91,-1
 656 117 l 1,92,-1
 657 71 l 1,93,-1
 659 39 l 1,94,-1
 664 17 l 1,95,-1
 671 0 l 1,22,-1
EndSplineSet
EndChar

StartChar: uni00D2
Encoding: 210 210 147
Width: 821
GlyphClass: 1
Flags: W
LayerCount: 2
Fore
SplineSet
490 758 m 1,0,-1
 474 755 l 1,1,-1
 458 754 l 2,2,3
 436 754 436 754 408 765 c 0,4,5
 378 777 378 777 351 794 c 0,6,7
 324 812 324 812 302 835 c 0,8,9
 281 859 281 859 275 884 c 1,10,-1
 292 909 l 1,11,-1
 317 924 l 1,12,-1
 351 932 l 1,13,-1
 366 902 l 1,14,-1
 393 855 l 1,15,-1
 434 803 l 2,16,17
 458 778 458 778 490 758 c 1,0,-1
178 352 m 0,18,19
 178 290 178 290 197 234 c 0,20,21
 214 180 214 180 245 139 c 0,22,23
 277 98 277 98 318 74 c 0,24,25
 360 51 360 51 407 51 c 128,-1,26
 454 51 454 51 495 74 c 0,27,28
 537 98 537 98 567 139 c 128,-1,29
 597 180 597 180 616 234 c 0,30,31
 633 290 633 290 633 352 c 0,32,33
 633 413 633 413 616 469 c 0,34,35
 597 524 597 524 567 565 c 128,-1,36
 537 606 537 606 495 629 c 0,37,38
 454 653 454 653 407 653 c 128,-1,39
 360 653 360 653 318 629 c 0,40,41
 277 606 277 606 245 565 c 0,42,43
 214 524 214 524 197 469 c 0,44,45
 178 413 178 413 178 352 c 0,18,19
377 -11 m 0,46,47
 306 -11 306 -11 247 14 c 0,48,49
 189 37 189 37 146 84 c 0,50,51
 103 130 103 130 79 196 c 0,52,53
 56 263 56 263 56 347 c 0,54,55
 56 422 56 422 83 488 c 0,56,57
 112 554 112 554 161 604 c 0,58,59
 212 653 212 653 283 682 c 0,60,61
 352 710 352 710 436 710 c 0,62,63
 506 710 506 710 566 688 c 0,64,65
 625 665 625 665 668 620 c 0,66,67
 710 574 710 574 733 508 c 0,68,69
 756 441 756 441 756 353 c 0,70,71
 756 275 756 275 730 209 c 128,-1,72
 704 143 704 143 655 94 c 0,73,74
 606 46 606 46 535 18 c 0,75,76
 464 -11 464 -11 377 -11 c 0,46,47
EndSplineSet
EndChar

StartChar: uni00D3
Encoding: 211 211 148
Width: 821
GlyphClass: 1
Flags: W
LayerCount: 2
Fore
SplineSet
313 758 m 1,0,1
 344 778 344 778 369 803 c 1,2,-1
 410 855 l 1,3,-1
 437 902 l 1,4,-1
 452 932 l 1,5,-1
 486 924 l 1,6,-1
 510 909 l 1,7,-1
 529 884 l 1,8,9
 523 859 523 859 500 835 c 2,10,-1
 452 794 l 1,11,12
 424 777 424 777 395 765 c 0,13,14
 367 754 367 754 344 754 c 2,15,-1
 329 755 l 1,16,-1
 313 758 l 1,0,1
178 352 m 0,17,18
 178 290 178 290 197 234 c 0,19,20
 214 180 214 180 245 139 c 0,21,22
 277 98 277 98 318 74 c 0,23,24
 360 51 360 51 407 51 c 128,-1,25
 454 51 454 51 495 74 c 0,26,27
 537 98 537 98 567 139 c 128,-1,28
 597 180 597 180 616 234 c 0,29,30
 633 290 633 290 633 352 c 0,31,32
 633 413 633 413 616 469 c 0,33,34
 597 524 597 524 567 565 c 128,-1,35
 537 606 537 606 495 629 c 0,36,37
 454 653 454 653 407 653 c 128,-1,38
 360 653 360 653 318 629 c 0,39,40
 277 606 277 606 245 565 c 0,41,42
 214 524 214 524 197 469 c 0,43,44
 178 413 178 413 178 352 c 0,17,18
377 -11 m 0,45,46
 306 -11 306 -11 247 14 c 0,47,48
 189 37 189 37 146 84 c 0,49,50
 103 130 103 130 79 196 c 0,51,52
 56 263 56 263 56 347 c 0,53,54
 56 422 56 422 83 488 c 0,55,56
 112 554 112 554 161 604 c 0,57,58
 212 653 212 653 283 682 c 0,59,60
 352 710 352 710 436 710 c 0,61,62
 506 710 506 710 566 688 c 0,63,64
 625 665 625 665 668 620 c 0,65,66
 710 574 710 574 733 508 c 0,67,68
 756 441 756 441 756 353 c 0,69,70
 756 275 756 275 730 209 c 128,-1,71
 704 143 704 143 655 94 c 0,72,73
 606 46 606 46 535 18 c 0,74,75
 464 -11 464 -11 377 -11 c 0,45,46
EndSplineSet
EndChar

StartChar: uni00D4
Encoding: 212 212 149
Width: 821
GlyphClass: 1
Flags: W
LayerCount: 2
Fore
SplineSet
566 758 m 1,0,-1
 550 755 l 1,1,-1
 535 754 l 1,2,-1
 501 761 l 1,3,4
 482 769 482 769 461 781 c 2,5,-1
 425 806 l 1,6,-1
 401 833 l 1,7,-1
 376 806 l 1,8,-1
 339 781 l 1,9,-1
 300 761 l 1,10,-1
 266 754 l 1,11,-1
 250 755 l 1,12,-1
 236 758 l 1,13,-1
 290 803 l 1,14,-1
 331 855 l 1,15,-1
 359 902 l 1,16,-1
 373 932 l 1,17,-1
 395 935 l 2,18,19
 413 935 413 935 424 926 c 2,20,-1
 445 902 l 1,21,-1
 463 869 l 1,22,-1
 486 830 l 1,23,-1
 518 791 l 2,24,25
 537 773 537 773 566 758 c 1,0,-1
178 352 m 0,26,27
 178 290 178 290 197 234 c 0,28,29
 214 180 214 180 245 139 c 0,30,31
 277 98 277 98 318 74 c 0,32,33
 360 51 360 51 407 51 c 128,-1,34
 454 51 454 51 495 74 c 0,35,36
 537 98 537 98 567 139 c 128,-1,37
 597 180 597 180 616 234 c 0,38,39
 633 290 633 290 633 352 c 0,40,41
 633 413 633 413 616 469 c 0,42,43
 597 524 597 524 567 565 c 128,-1,44
 537 606 537 606 495 629 c 0,45,46
 454 653 454 653 407 653 c 128,-1,47
 360 653 360 653 318 629 c 0,48,49
 277 606 277 606 245 565 c 0,50,51
 214 524 214 524 197 469 c 0,52,53
 178 413 178 413 178 352 c 0,26,27
377 -11 m 0,54,55
 306 -11 306 -11 247 14 c 0,56,57
 189 37 189 37 146 84 c 0,58,59
 103 130 103 130 79 196 c 0,60,61
 56 263 56 263 56 347 c 0,62,63
 56 422 56 422 83 488 c 0,64,65
 112 554 112 554 161 604 c 0,66,67
 212 653 212 653 283 682 c 0,68,69
 352 710 352 710 436 710 c 0,70,71
 506 710 506 710 566 688 c 0,72,73
 625 665 625 665 668 620 c 0,74,75
 710 574 710 574 733 508 c 0,76,77
 756 441 756 441 756 353 c 0,78,79
 756 275 756 275 730 209 c 128,-1,80
 704 143 704 143 655 94 c 0,81,82
 606 46 606 46 535 18 c 0,83,84
 464 -11 464 -11 377 -11 c 0,54,55
EndSplineSet
EndChar

StartChar: uni00D5
Encoding: 213 213 150
Width: 821
GlyphClass: 1
Flags: W
LayerCount: 2
Fore
SplineSet
574 887 m 1,0,1
 572 845 572 845 541 816 c 0,2,3
 510 786 510 786 454 786 c 1,4,-1
 413 790 l 1,5,-1
 375 799 l 1,6,-1
 340 809 l 1,7,-1
 304 813 l 1,8,-1
 265 806 l 1,9,10
 246 798 246 798 229 778 c 1,11,12
 232 820 232 820 262 850 c 0,13,14
 292 879 292 879 349 879 c 1,15,-1
 389 875 l 1,16,-1
 427 866 l 1,17,-1
 463 856 l 1,18,-1
 499 852 l 1,19,-1
 538 860 l 1,20,-1
 574 887 l 1,0,1
178 352 m 0,21,22
 178 290 178 290 197 234 c 0,23,24
 214 180 214 180 245 139 c 0,25,26
 277 98 277 98 318 74 c 0,27,28
 360 51 360 51 407 51 c 128,-1,29
 454 51 454 51 495 74 c 0,30,31
 537 98 537 98 567 139 c 128,-1,32
 597 180 597 180 616 234 c 0,33,34
 633 290 633 290 633 352 c 0,35,36
 633 413 633 413 616 469 c 0,37,38
 597 524 597 524 567 565 c 128,-1,39
 537 606 537 606 495 629 c 0,40,41
 454 653 454 653 407 653 c 128,-1,42
 360 653 360 653 318 629 c 0,43,44
 277 606 277 606 245 565 c 0,45,46
 214 524 214 524 197 469 c 0,47,48
 178 413 178 413 178 352 c 0,21,22
377 -11 m 0,49,50
 306 -11 306 -11 247 14 c 0,51,52
 189 37 189 37 146 84 c 0,53,54
 103 130 103 130 79 196 c 0,55,56
 56 263 56 263 56 347 c 0,57,58
 56 422 56 422 83 488 c 0,59,60
 112 554 112 554 161 604 c 0,61,62
 212 653 212 653 283 682 c 0,63,64
 352 710 352 710 436 710 c 0,65,66
 506 710 506 710 566 688 c 0,67,68
 625 665 625 665 668 620 c 0,69,70
 710 574 710 574 733 508 c 0,71,72
 756 441 756 441 756 353 c 0,73,74
 756 275 756 275 730 209 c 128,-1,75
 704 143 704 143 655 94 c 0,76,77
 606 46 606 46 535 18 c 0,78,79
 464 -11 464 -11 377 -11 c 0,49,50
EndSplineSet
EndChar

StartChar: uni00D6
Encoding: 214 214 151
Width: 821
GlyphClass: 1
Flags: W
LayerCount: 2
Fore
SplineSet
445 832 m 128,-1,1
 445 856 445 856 462 873 c 0,2,3
 480 891 480 891 502 891 c 0,4,5
 528 891 528 891 545 873 c 0,6,7
 563 856 563 856 563 832 c 128,-1,8
 563 808 563 808 545 790 c 0,9,10
 528 773 528 773 502 773 c 0,11,12
 480 773 480 773 462 790 c 0,13,0
 445 808 445 808 445 832 c 128,-1,1
242 832 m 128,-1,15
 242 856 242 856 259 873 c 0,16,17
 277 891 277 891 300 891 c 0,18,19
 325 891 325 891 342 873 c 0,20,21
 360 856 360 856 360 832 c 128,-1,22
 360 808 360 808 342 790 c 0,23,24
 325 773 325 773 300 773 c 0,25,26
 277 773 277 773 259 790 c 0,27,14
 242 808 242 808 242 832 c 128,-1,15
178 352 m 0,28,29
 178 290 178 290 197 234 c 0,30,31
 214 180 214 180 245 139 c 0,32,33
 277 98 277 98 318 74 c 0,34,35
 360 51 360 51 407 51 c 128,-1,36
 454 51 454 51 495 74 c 0,37,38
 537 98 537 98 567 139 c 128,-1,39
 597 180 597 180 616 234 c 0,40,41
 633 290 633 290 633 352 c 0,42,43
 633 413 633 413 616 469 c 0,44,45
 597 524 597 524 567 565 c 128,-1,46
 537 606 537 606 495 629 c 0,47,48
 454 653 454 653 407 653 c 128,-1,49
 360 653 360 653 318 629 c 0,50,51
 277 606 277 606 245 565 c 0,52,53
 214 524 214 524 197 469 c 0,54,55
 178 413 178 413 178 352 c 0,28,29
377 -11 m 0,56,57
 306 -11 306 -11 247 14 c 0,58,59
 189 37 189 37 146 84 c 0,60,61
 103 130 103 130 79 196 c 0,62,63
 56 263 56 263 56 347 c 0,64,65
 56 422 56 422 83 488 c 0,66,67
 112 554 112 554 161 604 c 0,68,69
 212 653 212 653 283 682 c 0,70,71
 352 710 352 710 436 710 c 0,72,73
 506 710 506 710 566 688 c 0,74,75
 625 665 625 665 668 620 c 0,76,77
 710 574 710 574 733 508 c 0,78,79
 756 441 756 441 756 353 c 0,80,81
 756 275 756 275 730 209 c 128,-1,82
 704 143 704 143 655 94 c 0,83,84
 606 46 606 46 535 18 c 0,85,86
 464 -11 464 -11 377 -11 c 0,56,57
EndSplineSet
EndChar

StartChar: multiply
Encoding: 215 215 152
Width: 469
GlyphClass: 2
Flags: W
LayerCount: 2
Fore
SplineSet
93 149 m 1,0,-1
 51 192 l 1,1,-1
 192 333 l 1,2,-1
 51 475 l 1,3,-1
 93 517 l 1,4,-1
 235 375 l 1,5,-1
 376 517 l 1,6,-1
 418 474 l 1,7,-1
 277 333 l 1,8,-1
 418 191 l 1,9,-1
 376 149 l 1,10,-1
 234 291 l 1,11,-1
 93 149 l 1,0,-1
EndSplineSet
EndChar

StartChar: uni00D8
Encoding: 216 216 153
Width: 821
GlyphClass: 1
Flags: W
LayerCount: 2
Fore
SplineSet
178 352 m 0,0,1
 178 305 178 305 188 262 c 0,2,3
 199 219 199 219 217 183 c 0,4,5
 236 147 236 147 261 118 c 0,6,7
 286 91 286 91 318 73 c 1,8,-1
 335 172 l 1,9,-1
 354 282 l 1,10,-1
 373 395 l 1,11,-1
 392 500 l 1,12,-1
 409 588 l 1,13,-1
 419 652 l 1,14,-1
 407 653 l 2,15,16
 360 653 360 653 318 629 c 0,17,18
 277 606 277 606 245 565 c 0,19,20
 214 524 214 524 197 469 c 0,21,22
 178 414 178 414 178 352 c 0,0,1
633 352 m 0,23,24
 633 400 633 400 623 444 c 0,25,26
 612 487 612 487 592 524 c 0,27,28
 573 560 573 560 546 588 c 0,29,30
 519 615 519 615 488 632 c 1,31,-1
 386 52 l 1,32,-1
 397 51 l 1,33,-1
 407 51 l 2,34,35
 454 51 454 51 495 74 c 0,36,37
 537 98 537 98 567 139 c 128,-1,38
 597 180 597 180 616 234 c 0,39,40
 633 289 633 289 633 352 c 0,23,24
509 755 m 1,41,-1
 506 743 l 1,42,-1
 500 705 l 1,43,44
 557 697 557 697 605 669 c 0,45,46
 653 642 653 642 686 598 c 0,47,48
 719 553 719 553 738 492 c 0,49,50
 756 431 756 431 756 353 c 128,-1,51
 756 275 756 275 730 209 c 128,-1,52
 704 143 704 143 655 94 c 0,53,54
 606 46 606 46 535 18 c 0,55,56
 464 -11 464 -11 377 -11 c 2,57,-1
 376 -11 l 1,58,-1
 371 -58 l 1,59,-1
 368 -91 l 1,60,-1
 357 -90 l 1,61,-1
 331 -87 l 2,62,63
 318 -85 318 -85 306 -79 c 128,-1,64
 294 -73 294 -73 294 -62 c 2,65,-1
 294 -59 l 1,66,-1
 296 -44 l 1,67,-1
 299 -26 l 1,68,-1
 303 -3 l 1,69,70
 247 9 247 9 202 37 c 128,-1,71
 157 65 157 65 124 110 c 0,72,73
 92 154 92 154 74 214 c 128,-1,74
 56 274 56 274 56 347 c 128,-1,75
 56 420 56 420 83 486 c 0,76,77
 111 551 111 551 159 601 c 0,78,79
 208 650 208 650 277 679 c 0,80,81
 345 708 345 708 428 710 c 1,82,-1
 434 751 l 1,83,-1
 435 778 l 1,84,-1
 449 777 l 1,85,-1
 462 776 l 1,86,-1
 481 774 l 1,87,-1
 500 768 l 1,88,-1
 509 757 l 1,89,-1
 509 755 l 1,41,-1
EndSplineSet
EndChar

StartChar: uni00D9
Encoding: 217 217 154
Width: 749
GlyphClass: 1
Flags: W
LayerCount: 2
Fore
SplineSet
477 758 m 1,0,-1
 461 755 l 1,1,-1
 445 754 l 1,2,-1
 395 765 l 1,3,4
 365 777 365 777 338 794 c 0,5,6
 311 812 311 812 289 835 c 0,7,8
 268 859 268 859 262 884 c 1,9,-1
 279 909 l 1,10,-1
 304 924 l 1,11,-1
 338 932 l 1,12,-1
 353 902 l 1,13,-1
 380 855 l 1,14,-1
 421 803 l 2,15,16
 445 778 445 778 477 758 c 1,0,-1
657 310 m 2,17,18
 657 158 657 158 587 74 c 0,19,20
 518 -10 518 -10 371 -10 c 0,21,22
 312 -10 312 -10 261 8 c 0,23,24
 210 25 210 25 175 63 c 0,25,26
 139 101 139 101 118 160 c 0,27,28
 99 220 99 220 99 304 c 2,29,-1
 98 368 l 1,30,-1
 97 454 l 1,31,-1
 95 537 l 1,32,-1
 94 595 l 1,33,-1
 90 653 l 1,34,-1
 87 684 l 1,35,-1
 84 701 l 1,36,-1
 111 707 l 1,37,-1
 139 710 l 2,38,39
 173 710 173 710 195 694 c 0,40,41
 218 677 218 677 218 648 c 2,42,-1
 217 578 l 1,43,-1
 217 485 l 1,44,-1
 216 389 l 1,45,-1
 216 312 l 2,46,47
 216 187 216 187 265 122 c 0,48,49
 315 58 315 58 400 58 c 128,-1,50
 485 58 485 58 533 122 c 0,51,52
 581 187 581 187 581 312 c 2,53,-1
 581 397 l 1,54,-1
 581 463 l 1,55,-1
 581 525 l 1,56,-1
 578 595 l 1,57,-1
 575 653 l 1,58,-1
 572 684 l 1,59,-1
 569 701 l 1,60,-1
 592 707 l 1,61,-1
 614 710 l 1,62,63
 648 710 648 710 656 694 c 0,64,65
 662 677 662 677 662 648 c 2,66,-1
 660 571 l 1,67,-1
 658 478 l 1,68,-1
 658 386 l 1,69,-1
 657 310 l 2,17,18
EndSplineSet
EndChar

StartChar: uni00DA
Encoding: 218 218 155
Width: 749
GlyphClass: 1
Flags: W
LayerCount: 2
Fore
SplineSet
301 758 m 1,0,1
 331 778 331 778 356 803 c 1,2,-1
 397 855 l 1,3,-1
 424 902 l 1,4,-1
 439 932 l 1,5,-1
 473 924 l 1,6,-1
 497 909 l 1,7,-1
 516 884 l 1,8,9
 510 859 510 859 488 835 c 1,10,-1
 439 794 l 1,11,12
 411 777 411 777 383 765 c 0,13,14
 354 754 354 754 331 754 c 2,15,-1
 317 755 l 1,16,-1
 301 758 l 1,0,1
657 310 m 2,17,18
 657 158 657 158 587 74 c 0,19,20
 518 -10 518 -10 371 -10 c 0,21,22
 312 -10 312 -10 261 8 c 0,23,24
 210 25 210 25 175 63 c 0,25,26
 139 101 139 101 118 160 c 0,27,28
 99 220 99 220 99 304 c 2,29,-1
 98 368 l 1,30,-1
 97 454 l 1,31,-1
 95 537 l 1,32,-1
 94 595 l 1,33,-1
 90 653 l 1,34,-1
 87 684 l 1,35,-1
 84 701 l 1,36,-1
 111 707 l 1,37,-1
 139 710 l 2,38,39
 173 710 173 710 195 694 c 0,40,41
 218 677 218 677 218 648 c 2,42,-1
 217 578 l 1,43,-1
 217 485 l 1,44,-1
 216 389 l 1,45,-1
 216 312 l 2,46,47
 216 187 216 187 265 122 c 0,48,49
 315 58 315 58 400 58 c 128,-1,50
 485 58 485 58 533 122 c 0,51,52
 581 187 581 187 581 312 c 2,53,-1
 581 397 l 1,54,-1
 581 463 l 1,55,-1
 581 525 l 1,56,-1
 578 595 l 1,57,-1
 575 653 l 1,58,-1
 572 684 l 1,59,-1
 569 701 l 1,60,-1
 592 707 l 1,61,-1
 614 710 l 1,62,63
 648 710 648 710 656 694 c 0,64,65
 662 677 662 677 662 648 c 2,66,-1
 660 571 l 1,67,-1
 658 478 l 1,68,-1
 658 386 l 1,69,-1
 657 310 l 2,17,18
EndSplineSet
EndChar

StartChar: uni00DB
Encoding: 219 219 156
Width: 749
GlyphClass: 1
Flags: W
LayerCount: 2
Fore
SplineSet
553 758 m 1,0,-1
 537 755 l 1,1,-1
 522 754 l 1,2,-1
 488 761 l 1,3,4
 469 769 469 769 448 781 c 2,5,-1
 412 806 l 1,6,-1
 388 833 l 1,7,-1
 363 806 l 1,8,-1
 326 781 l 1,9,-1
 287 761 l 1,10,-1
 254 754 l 1,11,-1
 238 755 l 1,12,-1
 223 758 l 1,13,14
 254 777 254 777 277 803 c 0,15,16
 302 829 302 829 318 855 c 2,17,-1
 346 902 l 1,18,-1
 360 932 l 1,19,-1
 383 935 l 1,20,-1
 411 926 l 1,21,-1
 432 902 l 1,22,-1
 450 869 l 2,23,24
 459 850 459 850 473 830 c 128,-1,25
 487 810 487 810 505 791 c 0,26,27
 524 773 524 773 553 758 c 1,0,-1
657 310 m 2,28,29
 657 158 657 158 587 74 c 0,30,31
 518 -10 518 -10 371 -10 c 0,32,33
 312 -10 312 -10 261 8 c 0,34,35
 210 25 210 25 175 63 c 0,36,37
 139 101 139 101 118 160 c 0,38,39
 99 220 99 220 99 304 c 2,40,-1
 98 368 l 1,41,-1
 97 454 l 1,42,-1
 95 537 l 1,43,-1
 94 595 l 1,44,-1
 90 653 l 1,45,-1
 87 684 l 1,46,-1
 84 701 l 1,47,-1
 111 707 l 1,48,-1
 139 710 l 2,49,50
 173 710 173 710 195 694 c 0,51,52
 218 677 218 677 218 648 c 2,53,-1
 217 578 l 1,54,-1
 217 485 l 1,55,-1
 216 389 l 1,56,-1
 216 312 l 2,57,58
 216 187 216 187 265 122 c 0,59,60
 315 58 315 58 400 58 c 128,-1,61
 485 58 485 58 533 122 c 0,62,63
 581 187 581 187 581 312 c 2,64,-1
 581 397 l 1,65,-1
 581 463 l 1,66,-1
 581 525 l 1,67,-1
 578 595 l 1,68,-1
 575 653 l 1,69,-1
 572 684 l 1,70,-1
 569 701 l 1,71,-1
 592 707 l 1,72,-1
 614 710 l 1,73,74
 648 710 648 710 656 694 c 0,75,76
 662 677 662 677 662 648 c 2,77,-1
 660 571 l 1,78,-1
 658 478 l 1,79,-1
 658 386 l 1,80,-1
 657 310 l 2,28,29
EndSplineSet
EndChar

StartChar: uni00DC
Encoding: 220 220 157
Width: 749
GlyphClass: 1
Flags: W
LayerCount: 2
Fore
SplineSet
432 832 m 128,-1,1
 432 856 432 856 449 873 c 0,2,3
 467 891 467 891 489 891 c 0,4,5
 515 891 515 891 532 873 c 0,6,7
 550 856 550 856 550 832 c 128,-1,8
 550 808 550 808 532 790 c 0,9,10
 515 773 515 773 489 773 c 0,11,12
 467 773 467 773 449 790 c 0,13,0
 432 808 432 808 432 832 c 128,-1,1
229 832 m 128,-1,15
 229 856 229 856 246 873 c 0,16,17
 264 891 264 891 287 891 c 0,18,19
 312 891 312 891 329 873 c 0,20,21
 347 856 347 856 347 832 c 128,-1,22
 347 808 347 808 329 790 c 0,23,24
 312 773 312 773 287 773 c 0,25,26
 264 773 264 773 246 790 c 0,27,14
 229 808 229 808 229 832 c 128,-1,15
657 310 m 2,28,29
 657 158 657 158 587 74 c 0,30,31
 518 -10 518 -10 371 -10 c 0,32,33
 312 -10 312 -10 261 8 c 0,34,35
 210 25 210 25 175 63 c 0,36,37
 139 101 139 101 118 160 c 0,38,39
 99 220 99 220 99 304 c 2,40,-1
 98 368 l 1,41,-1
 97 454 l 1,42,-1
 95 537 l 1,43,-1
 94 595 l 1,44,-1
 90 653 l 1,45,-1
 87 684 l 1,46,-1
 84 701 l 1,47,-1
 111 707 l 1,48,-1
 139 710 l 2,49,50
 173 710 173 710 195 694 c 0,51,52
 218 677 218 677 218 648 c 2,53,-1
 217 578 l 1,54,-1
 217 485 l 1,55,-1
 216 389 l 1,56,-1
 216 312 l 2,57,58
 216 187 216 187 265 122 c 0,59,60
 315 58 315 58 400 58 c 128,-1,61
 485 58 485 58 533 122 c 0,62,63
 581 187 581 187 581 312 c 2,64,-1
 581 397 l 1,65,-1
 581 463 l 1,66,-1
 581 525 l 1,67,-1
 578 595 l 1,68,-1
 575 653 l 1,69,-1
 572 684 l 1,70,-1
 569 701 l 1,71,-1
 592 707 l 1,72,-1
 614 710 l 1,73,74
 648 710 648 710 656 694 c 0,75,76
 662 677 662 677 662 648 c 2,77,-1
 660 571 l 1,78,-1
 658 478 l 1,79,-1
 658 386 l 1,80,-1
 657 310 l 2,28,29
EndSplineSet
EndChar

StartChar: uni00DD
Encoding: 221 221 158
Width: 648
GlyphClass: 1
Flags: W
LayerCount: 2
Fore
SplineSet
256 758 m 1,0,1
 287 778 287 778 312 803 c 1,2,-1
 353 855 l 1,3,-1
 380 902 l 1,4,-1
 395 932 l 1,5,-1
 429 924 l 1,6,-1
 453 909 l 1,7,-1
 472 884 l 1,8,9
 465 860 465 860 444 835 c 0,10,11
 422 812 422 812 395 794 c 0,12,13
 367 777 367 777 338 765 c 0,14,15
 310 754 310 754 287 754 c 2,16,-1
 272 755 l 1,17,-1
 256 758 l 1,0,1
391 316 m 1,18,-1
 392 284 l 1,19,-1
 393 223 l 1,20,-1
 395 143 l 1,21,-1
 396 58 l 2,22,23
 396 17 396 17 376 4 c 0,24,25
 357 -10 357 -10 330 -10 c 2,26,-1
 298 -7 l 1,27,-1
 262 0 l 1,28,-1
 266 6 l 1,29,-1
 270 34 l 1,30,-1
 273 109 l 1,31,-1
 274 253 l 1,32,-1
 274 275 l 1,33,-1
 273 301 l 1,34,-1
 270 326 l 1,35,-1
 264 347 l 1,36,37
 245 365 245 365 219 404 c 2,38,-1
 164 488 l 1,39,-1
 108 577 l 1,40,-1
 65 648 l 1,41,-1
 48 668 l 1,42,-1
 31 685 l 1,43,-1
 12 700 l 1,44,-1
 31 706 l 1,45,-1
 55 710 l 1,46,-1
 88 713 l 1,47,-1
 140 707 l 1,48,-1
 176 690 l 1,49,-1
 202 662 l 1,50,-1
 224 629 l 1,51,-1
 256 573 l 1,52,-1
 292 512 l 1,53,-1
 330 452 l 1,54,-1
 367 401 l 1,55,-1
 432 498 l 1,56,-1
 478 578 l 1,57,-1
 512 639 l 1,58,-1
 543 681 l 2,59,60
 560 698 560 698 578 705 c 2,61,-1
 625 713 l 1,62,-1
 642 710 l 1,63,-1
 654 706 l 1,64,-1
 662 700 l 1,65,-1
 639 682 l 1,66,-1
 616 661 l 1,67,-1
 593 635 l 1,68,-1
 563 594 l 1,69,-1
 524 537 l 1,70,-1
 482 475 l 1,71,-1
 442 413 l 1,72,-1
 409 362 l 1,73,-1
 391 329 l 1,74,-1
 391 316 l 1,18,-1
EndSplineSet
EndChar

StartChar: uni00DE
Encoding: 222 222 159
Width: 580
GlyphClass: 1
Flags: W
LayerCount: 2
Fore
SplineSet
219 427 m 1,0,-1
 219 328 l 1,1,-1
 221 221 l 1,2,-1
 250 221 l 2,3,4
 295 221 295 221 328 235 c 0,5,6
 363 249 363 249 386 274 c 0,7,8
 408 298 408 298 420 327 c 0,9,10
 432 358 432 358 432 390 c 0,11,12
 432 420 432 420 420 448 c 0,13,14
 409 478 409 478 387 500 c 0,15,16
 364 523 364 523 330 536 c 0,17,18
 297 550 297 550 250 550 c 2,19,-1
 220 550 l 1,20,-1
 219 487 l 1,21,-1
 219 427 l 1,0,-1
223 700 m 2,22,-1
 221 652 l 1,23,-1
 221 603 l 1,24,-1
 289 603 l 2,25,26
 357 603 357 603 406 585 c 0,27,28
 453 568 453 568 486 539 c 0,29,30
 517 511 517 511 532 474 c 128,-1,31
 547 437 547 437 547 399 c 0,32,33
 547 343 547 343 523 300 c 0,34,35
 498 258 498 258 459 230 c 0,36,37
 420 200 420 200 370 187 c 0,38,39
 321 172 321 172 271 172 c 2,40,-1
 221 172 l 1,41,-1
 223 106 l 1,42,-1
 225 63 l 1,43,-1
 227 36 l 1,44,-1
 232 18 l 1,45,-1
 238 0 l 1,46,-1
 228 -5 l 1,47,-1
 194 -10 l 1,48,49
 154 -10 154 -10 129 8 c 128,-1,50
 104 26 104 26 104 73 c 2,51,-1
 104 401 l 1,52,-1
 103 465 l 1,53,-1
 102 530 l 1,54,-1
 101 592 l 1,55,-1
 99 646 l 1,56,-1
 95 703 l 1,57,-1
 92 736 l 1,58,-1
 89 752 l 1,59,-1
 116 759 l 1,60,-1
 144 761 l 2,61,62
 178 761 178 761 200 744 c 0,63,64
 223 728 223 728 223 700 c 2,22,-1
EndSplineSet
EndChar

